<?xml version="1.0" encoding="UTF-8"?>
<svg version="1.1" xmlns="http://www.w3.org/2000/svg" width="2048" height="2048">
<path d="M0 0 C0.66676758 0.28083435 1.33353516 0.5616687 2.02050781 0.85101318 C22.14366237 9.32758898 41.85702234 18.56568361 61.43066406 28.23876953 C64.51891821 29.76261806 67.61302573 31.27326887 70.7109375 32.77734375 C82.42706711 38.49996524 93.75244336 44.83333652 105.05908203 51.32226562 C107.99715596 52.99837753 110.94711516 54.65122213 113.90234375 56.296875 C126.19771803 63.15276915 138.18462186 70.34899825 150 78 C151.65216669 79.06147357 153.30451369 80.12266651 154.95703125 81.18359375 C176.1580155 94.83731536 196.82234808 109.20685963 216.92480469 124.42919922 C218.312207 125.47938116 219.70088808 126.52787577 221.09082031 127.57470703 C231.32019596 135.28115314 241.28657813 143.25398034 251.12841797 151.44873047 C253.7140356 153.59183175 256.32624335 155.70072423 258.9375 157.8125 C263.30115175 161.37614893 267.50202955 165.09082375 271.66796875 168.8828125 C273.75823889 170.78051169 275.86986115 172.64733415 278 174.5 C282.71546172 178.61308737 287.36709492 182.7942422 292 187 C292.49129395 187.44472656 292.98258789 187.88945312 293.48876953 188.34765625 C300.57515702 194.77396028 307.46220041 201.35542522 314.15527344 208.19213867 C316.68169211 210.75772952 319.16966743 213.13756216 321.97265625 215.41015625 C325.04682491 218.04005796 327.53395973 220.82728139 330.15234375 223.89453125 C333.26040449 227.43627488 336.6375124 230.70192787 340 234 C344.6449313 238.55594794 349.10985204 243.17583279 353.35644531 248.10693359 C355.79039324 250.9103846 358.33530783 253.60523346 360.875 256.3125 C365.41348524 261.18585549 369.69348797 266.20303977 373.86328125 271.3984375 C375.95882494 273.94986729 378.13963155 276.38326773 380.375 278.8125 C384.35683587 283.18700826 388.01742083 287.74529075 391.63891602 292.41650391 C394.60045484 296.23314568 397.61959829 299.99211717 400.69238281 303.71972656 C407.89907557 312.47288262 414.66356878 321.50640921 421.31640625 330.68554688 C422.86558832 332.81522293 424.42957549 334.93284201 426 337.046875 C453.73625318 374.60505703 478.10172679 414.8079748 500 456 C500.57186035 457.07523926 501.1437207 458.15047852 501.73291016 459.25830078 C539.3176215 530.23818406 568.01371677 606.06856447 611.74285889 833.19921875 C611.91060064 835.02626207 612.08061918 836.85309821 612.25323486 838.6796875 C614.83743446 866.1151988 615.28215872 893.52429383 615.30962753 921.06116486 C615.31244169 923.63418754 615.31795951 926.20719468 615.32363892 928.7802124 C615.3719414 958.98502023 614.26763834 989.11545685 611.3125 1019.1875 C611.23140991 1020.02700195 611.15031982 1020.86650391 611.06677246 1021.73144531 C602.25105282 1111.92335803 581.20462432 1201.05027407 534 1320 C533.62069336 1320.86753906 533.24138672 1321.73507812 532.85058594 1322.62890625 C524.1936739 1342.36819113 514.79535062 1361.80161362 505 1381 C504.5457666 1381.89589844 504.0915332 1382.79179688 503.62353516 1383.71484375 C496.08485653 1398.55334213 488.0833371 1413.03430227 479.57666016 1427.33886719 C478.16557511 1429.72053751 476.77114839 1432.11058319 475.38671875 1434.5078125 C461.51872821 1458.4776632 445.99862241 1481.41448966 430 1504 C429.44908691 1504.77811035 428.89817383 1505.5562207 428.33056641 1506.35791016 C416.6447803 1522.81641732 404.21744837 1538.6522006 391.42382812 1554.26025391 C390.14773696 1555.81948327 388.87812619 1557.384011 387.609375 1558.94921875 C378.95132169 1569.616065 370.02070858 1580.02267945 360.66796875 1590.0859375 C358.66421856 1592.27451384 356.70333414 1594.48099713 354.75927734 1596.72143555 C343.82196839 1609.23582392 332.11830213 1621.04486954 320.35424805 1632.77612305 C318.03641162 1635.08852723 315.72406696 1637.40632898 313.41210938 1639.72460938 C311.91177936 1641.22427957 310.4111397 1642.72364006 308.91015625 1644.22265625 C308.23292007 1644.90191666 307.5556839 1645.58117706 306.85792542 1646.28102112 C302.96955678 1650.15058258 298.97984043 1653.84530068 294.81980896 1657.42173767 C291.80640211 1660.03516942 288.90940193 1662.77204995 286 1665.5 C281.07495537 1670.09150696 276.12601415 1674.63232877 271 1679 C270.08476563 1679.78246094 269.16953125 1680.56492187 268.2265625 1681.37109375 C264.83161565 1684.26402015 261.41915061 1687.13573885 258 1690 C257.34821777 1690.5460791 256.69643555 1691.0921582 256.02490234 1691.65478516 C246.24622121 1699.82665171 236.2877371 1707.70912478 226.12060547 1715.39111328 C224.00084425 1716.99935947 221.89149195 1718.62031319 219.78515625 1720.24609375 C202.02758563 1733.94532001 183.74568946 1746.68758721 165 1759 C164.1961084 1759.52899902 163.3922168 1760.05799805 162.56396484 1760.60302734 C137.13655405 1777.30518316 110.86367823 1792.72798898 84 1807 C82.92186035 1807.57331055 81.8437207 1808.14662109 80.73291016 1808.73730469 C11.86076042 1845.20652382 -61.35449387 1873.1884188 -354.75 1922.5625 C-355.92536819 1922.59376984 -355.92536819 1922.59376984 -357.1244812 1922.62567139 C-369.75307721 1922.95754387 -382.36696801 1923.20906207 -395 1923 C-396.1859375 1922.98211426 -397.371875 1922.96422852 -398.59375 1922.94580078 C-490.07339426 1921.39164512 -581.27573796 1908.12716401 -814 1826 C-815.02657715 1825.52095215 -816.0531543 1825.0419043 -817.11083984 1824.54833984 C-852.32515025 1808.09643672 -886.2809828 1788.96062039 -919 1768 C-920.34578125 1767.13930908 -920.34578125 1767.13930908 -921.71875 1766.26123047 C-956.9985381 1743.6471457 -990.84540097 1718.87332288 -1023 1692 C-1023.6074707 1691.49307617 -1024.21494141 1690.98615234 -1024.84082031 1690.46386719 C-1031.24774117 1685.10877582 -1037.55608926 1679.66161942 -1043.73828125 1674.046875 C-1045.80673875 1672.1749031 -1047.89560914 1670.3313661 -1050 1668.5 C-1054.71408354 1664.38453024 -1059.3763723 1660.21694867 -1064 1656 C-1064.49806152 1655.54850586 -1064.99612305 1655.09701172 -1065.50927734 1654.63183594 C-1075.99884793 1645.08886165 -1086.02856296 1635.07881959 -1096.0625 1625.0625 C-1097.08867935 1624.04020294 -1097.08867935 1624.04020294 -1098.1355896 1622.99725342 C-1111.36498194 1609.8073021 -1111.36498194 1609.8073021 -1116.52905273 1603.72045898 C-1119.24254712 1600.54668389 -1122.13672947 1597.53813583 -1125 1594.5 C-1129.76597866 1589.41421139 -1134.48656211 1584.31290334 -1139 1579 C-1139.78117187 1578.08605469 -1140.56234375 1577.17210937 -1141.3671875 1576.23046875 C-1144.26162932 1572.83439521 -1147.1345571 1569.4205613 -1150 1566 C-1150.81911865 1565.02232666 -1150.81911865 1565.02232666 -1151.65478516 1564.02490234 C-1159.82665171 1554.24622121 -1167.70912478 1544.2877371 -1175.39111328 1534.12060547 C-1176.99935947 1532.00084425 -1178.62031319 1529.89149195 -1180.24609375 1527.78515625 C-1217.6550579 1479.30079995 -1249.54979454 1426.83810392 -1277.31152344 1372.30517578 C-1278.77854797 1369.4334901 -1280.26350749 1366.57238408 -1281.7578125 1363.71484375 C-1297.37443979 1333.56401775 -1310.23569098 1301.82678965 -1322 1270 C-1322.41188568 1268.8864917 -1322.41188568 1268.8864917 -1322.83209229 1267.75048828 C-1353.39700406 1184.88472205 -1372.54627554 1097.8494758 -1380.6875 999.5625 C-1380.74852905 998.77909241 -1380.80955811 997.99568481 -1380.87243652 997.1885376 C-1381.28674541 991.7946807 -1381.65801212 986.398906 -1382 981 C-1382.07368805 979.86572067 -1382.07368805 979.86572067 -1382.14886475 978.70852661 C-1383.26559603 960.92861942 -1383.24549087 943.12013332 -1383.25 925.3125 C-1383.25044186 924.51067165 -1383.25088371 923.70884331 -1383.25133896 922.88271713 C-1383.25960652 894.16921268 -1382.53173538 865.61733574 -1380 837 C-1379.91514343 836.03993042 -1379.83028687 835.07986084 -1379.74285889 834.09069824 C-1374.86059024 779.71807274 -1365.65352748 725.8559092 -1352 673 C-1351.82982361 672.33863037 -1351.65964722 671.67726074 -1351.48431396 670.99584961 C-1334.83466364 606.40611385 -1311.46985361 543.82380283 -1282 484 C-1281.47212891 482.92153809 -1281.47212891 482.92153809 -1280.93359375 481.82128906 C-1278.66584046 477.19167532 -1276.34139116 472.59272881 -1274 468 C-1273.27006836 466.55898926 -1273.27006836 466.55898926 -1272.52539062 465.08886719 C-1264.68331405 449.63426107 -1256.43262893 434.51578373 -1247.56054688 419.62890625 C-1246.15503283 417.26116921 -1244.76757625 414.88442417 -1243.390625 412.5 C-1229.52357252 388.52645164 -1214.00016741 365.58769144 -1198 343 C-1197.44908691 342.22188965 -1196.89817383 341.4437793 -1196.33056641 340.64208984 C-1184.6447803 324.18358268 -1172.21744837 308.3477994 -1159.42382812 292.73974609 C-1158.14773696 291.18051673 -1156.87812619 289.615989 -1155.609375 288.05078125 C-1147.18640205 277.67355739 -1138.50506995 267.52557331 -1129.44921875 257.6953125 C-1127.52677603 255.57970568 -1125.64107741 253.44433927 -1123.76708984 251.28637695 C-1112.42583845 238.31563912 -1100.26615004 226.10471843 -1088.07250977 213.94213867 C-1085.53739324 211.41244696 -1083.00775363 208.87736467 -1080.47851562 206.34179688 C-1078.84146683 204.70540798 -1077.20410834 203.06932883 -1075.56640625 201.43359375 C-1074.82354874 200.68871201 -1074.08069122 199.94383026 -1073.31532288 199.17637634 C-1069.25955942 195.13857436 -1065.11712233 191.26319885 -1060.77537537 187.53382874 C-1057.95102694 185.09374375 -1055.23014245 182.54434109 -1052.5 180 C-1047.7346916 175.58432021 -1042.9396978 171.2210309 -1038 167 C-1037.08347656 166.21625 -1036.16695312 165.4325 -1035.22265625 164.625 C-1022.68772938 153.94651167 -1010.04594862 143.39462043 -996.91308594 133.45654297 C-994.66455372 131.74460535 -992.43011587 130.01497583 -990.1953125 128.28515625 C-980.16698252 120.54762794 -970.01455359 113.11421882 -959.4921875 106.0625 C-956.14357051 103.80950138 -952.87770917 101.46351184 -949.625 99.07421875 C-944.23904418 95.1354873 -938.72508775 91.43841392 -933.125 87.8125 C-932.13250244 87.16812988 -931.14000488 86.52375977 -930.11743164 85.85986328 C-905.34836092 69.8375612 -880.05131656 54.84003266 -854 41 C-853.09797852 40.51740723 -852.19595703 40.03481445 -851.26660156 39.53759766 C-775.19836668 -1.11667885 -694.08255532 -31.02360107 -436 -75 C-434.78715332 -75.07347656 -433.57430664 -75.14695312 -432.32470703 -75.22265625 C-337.59965431 -80.61176501 -241.44066364 -70.55455878 0 0 Z " fill="#222223" transform="translate(1408,101)"/>
<path d="M0 0 C0 194.04 0 388.08 0 588 C-194.04 588 -388.08 588 -588 588 C-588 558.84545455 -588 558.84545455 -586.8125 546.625 C-586.74720093 545.92753662 -586.68190186 545.23007324 -586.61462402 544.51147461 C-579.44572894 468.25623999 -558.31545311 395.47162359 -524 327 C-523.48969238 325.97680664 -522.97938477 324.95361328 -522.45361328 323.89941406 C-512.04210191 303.13131522 -500.22463861 283.10279068 -487 264 C-486.22970459 262.87464844 -486.22970459 262.87464844 -485.44384766 261.7265625 C-477.05290545 249.47172478 -468.27388465 237.60053778 -459 226 C-457.78376953 224.47826172 -457.78376953 224.47826172 -456.54296875 222.92578125 C-447.30085322 211.51884587 -437.67386604 200.46796085 -427.63769531 189.75537109 C-425.8715292 187.862298 -424.1190146 185.95712706 -422.3671875 184.05078125 C-415.10641035 176.18110833 -407.65624478 168.70167337 -399.69628906 161.54345703 C-397.20384262 159.2755747 -394.76147212 156.95574283 -392.31274414 154.64086914 C-385.75991686 148.45791292 -379.04690683 142.6186076 -372 137 C-370.80957047 136.02020313 -369.62088217 135.03828832 -368.43359375 134.0546875 C-353.91703346 122.05859301 -338.7862533 111.07370129 -323.125 100.625 C-322.56694672 100.25226959 -322.00889343 99.87953918 -321.43392944 99.49551392 C-248.93912253 51.17588599 -167.11667113 19.67803435 -37.5625 1.1875 C-36.4514389 1.09221008 -36.4514389 1.09221008 -35.31793213 0.99499512 C-23.48253685 0.00102428 -11.93438332 0 0 0 Z " fill="#54A9D3" transform="translate(1014,426)"/>
<path d="M0 0 C26.06155071 0 26.06155071 0 38.375 1.125 C39.45337128 1.22003311 39.45337128 1.22003311 40.55352783 1.31698608 C69.27008906 3.88236748 97.92595645 8.44952012 126 15 C127.20253418 15.28037109 128.40506836 15.56074219 129.64404297 15.84960938 C170.59738974 25.57153579 210.07662647 39.75678573 248 58 C249.11084961 58.53351074 250.22169922 59.06702148 251.36621094 59.61669922 C299.03958267 82.65550439 344.46815902 112.17597533 383.6875 147.90234375 C385.66384372 149.69507446 387.6645673 151.44795227 389.6875 153.1875 C399.45627405 161.72540852 408.81145408 170.71973495 418 179.875 C418.69343506 180.56384277 419.38687012 181.25268555 420.10131836 181.96240234 C424.03342001 185.90636339 427.78128632 189.95702909 431.41894531 194.17382812 C433.52016433 196.60080748 435.69679593 198.95461242 437.875 201.3125 C441.91279322 205.74496474 445.77307434 210.27742177 449.53515625 214.9453125 C451.34085175 217.1831158 453.15979312 219.40481899 454.99609375 221.6171875 C476.08075001 247.10572306 494.88042725 275.1209356 511 304 C511.59087402 305.05832031 512.18174805 306.11664062 512.79052734 307.20703125 C543.6228534 362.82550031 564.39018615 421.76379477 577 484 C577.17692383 484.84369141 577.35384766 485.68738281 577.53613281 486.55664062 C582.09905748 508.58271968 584.59351387 531.32312296 586.25 553.75 C586.32992187 554.79293213 586.40984375 555.83586426 586.4921875 556.91040039 C587.16994995 566.98819456 587 576.82766333 587 587 C393.29 587 199.58 587 0 587 C0 393.29 0 199.58 0 0 Z " fill="#EAEAEA" transform="translate(1034,427)"/>
<path d="M0 0 C193.71 0 387.42 0 587 0 C587 193.38 587 386.76 587 586 C546.98006496 586 507.05304873 582.03600799 468 573 C466.55016724 572.66983887 466.55016724 572.66983887 465.07104492 572.33300781 C427.20244261 563.64437998 390.52306798 551.7926847 355 536 C353.865625 535.49597656 352.73125 534.99195313 351.5625 534.47265625 C288.92417713 506.43921041 229.06740801 466.94433905 180.828125 417.79296875 C178.93323884 415.93452271 176.96023406 414.21777988 174.9375 412.5 C171.59277137 409.62288392 168.76192599 406.52948799 165.9140625 403.16796875 C163.70774516 400.66897667 161.37316307 398.34089953 159 396 C154.78314911 391.82113876 150.84731888 387.51675236 147 383 C146.12073263 381.99526951 145.24043777 380.9914377 144.359375 379.98828125 C137.02432167 371.59363855 130.20431568 362.87766259 123.49902344 353.97509766 C122.15381786 352.20266881 120.79128162 350.44681413 119.4140625 348.69921875 C96.48660572 319.50195583 77.69848709 287.07626755 61 254 C60.505 253.0207959 60.01 252.0415918 59.5 251.03271484 C30.90029057 194.02880181 12.82398233 131.81445757 4.36572266 68.68945312 C4.06120867 66.45011666 3.7345136 64.21727639 3.38671875 61.984375 C2.17099129 53.85477765 1.50503606 45.69323692 0.875 37.5 C0.78718262 36.41533447 0.69936523 35.33066895 0.60888672 34.21313477 C-0.21401343 22.74157424 0 11.60535004 0 0 Z " fill="#E3E3E3" transform="translate(427,1035)"/>
<path d="M0 0 C0.66676758 0.28083435 1.33353516 0.5616687 2.02050781 0.85101318 C22.14366237 9.32758898 41.85702234 18.56568361 61.43066406 28.23876953 C64.51891821 29.76261806 67.61302573 31.27326887 70.7109375 32.77734375 C82.42706711 38.49996524 93.75244336 44.83333652 105.05908203 51.32226562 C107.99715596 52.99837753 110.94711516 54.65122213 113.90234375 56.296875 C126.19771803 63.15276915 138.18462186 70.34899825 150 78 C151.65216669 79.06147357 153.30451369 80.12266651 154.95703125 81.18359375 C176.1580155 94.83731536 196.82234808 109.20685963 216.92480469 124.42919922 C218.312207 125.47938116 219.70088808 126.52787577 221.09082031 127.57470703 C231.32019596 135.28115314 241.28657813 143.25398034 251.12841797 151.44873047 C253.7140356 153.59183175 256.32624335 155.70072423 258.9375 157.8125 C263.30115175 161.37614893 267.50202955 165.09082375 271.66796875 168.8828125 C273.75823889 170.78051169 275.86986115 172.64733415 278 174.5 C282.71546172 178.61308737 287.36709492 182.7942422 292 187 C292.49129395 187.44472656 292.98258789 187.88945312 293.48876953 188.34765625 C300.57515702 194.77396028 307.46220041 201.35542522 314.15527344 208.19213867 C316.68169211 210.75772952 319.16966743 213.13756216 321.97265625 215.41015625 C325.04682491 218.04005796 327.53395973 220.82728139 330.15234375 223.89453125 C333.26040449 227.43627488 336.6375124 230.70192787 340 234 C344.6449313 238.55594794 349.10985204 243.17583279 353.35644531 248.10693359 C355.79039324 250.9103846 358.33530783 253.60523346 360.875 256.3125 C365.41348524 261.18585549 369.69348797 266.20303977 373.86328125 271.3984375 C375.95882494 273.94986729 378.13963155 276.38326773 380.375 278.8125 C384.35683587 283.18700826 388.01742083 287.74529075 391.63891602 292.41650391 C394.60045484 296.23314568 397.61959829 299.99211717 400.69238281 303.71972656 C407.89907557 312.47288262 414.66356878 321.50640921 421.31640625 330.68554688 C422.86558832 332.81522293 424.42957549 334.93284201 426 337.046875 C453.73625318 374.60505703 478.10172679 414.8079748 500 456 C500.57186035 457.07523926 501.1437207 458.15047852 501.73291016 459.25830078 C539.3176215 530.23818406 568.01371677 606.06856447 611.74285889 833.19921875 C611.91060064 835.02626207 612.08061918 836.85309821 612.25323486 838.6796875 C614.83743446 866.1151988 615.28215872 893.52429383 615.30962753 921.06116486 C615.31244169 923.63418754 615.31795951 926.20719468 615.32363892 928.7802124 C615.3719414 958.98502023 614.26763834 989.11545685 611.3125 1019.1875 C611.23140991 1020.02700195 611.15031982 1020.86650391 611.06677246 1021.73144531 C602.25105282 1111.92335803 581.20462432 1201.05027407 534 1320 C533.62069336 1320.86753906 533.24138672 1321.73507812 532.85058594 1322.62890625 C524.1936739 1342.36819113 514.79535062 1361.80161362 505 1381 C504.5457666 1381.89589844 504.0915332 1382.79179688 503.62353516 1383.71484375 C496.08485653 1398.55334213 488.0833371 1413.03430227 479.57666016 1427.33886719 C478.16557511 1429.72053751 476.77114839 1432.11058319 475.38671875 1434.5078125 C461.51872821 1458.4776632 445.99862241 1481.41448966 430 1504 C429.44908691 1504.77811035 428.89817383 1505.5562207 428.33056641 1506.35791016 C416.6447803 1522.81641732 404.21744837 1538.6522006 391.42382812 1554.26025391 C390.14773696 1555.81948327 388.87812619 1557.384011 387.609375 1558.94921875 C378.95132169 1569.616065 370.02070858 1580.02267945 360.66796875 1590.0859375 C358.66421856 1592.27451384 356.70333414 1594.48099713 354.75927734 1596.72143555 C343.82196839 1609.23582392 332.11830213 1621.04486954 320.35424805 1632.77612305 C318.03641162 1635.08852723 315.72406696 1637.40632898 313.41210938 1639.72460938 C311.91177936 1641.22427957 310.4111397 1642.72364006 308.91015625 1644.22265625 C308.23292007 1644.90191666 307.5556839 1645.58117706 306.85792542 1646.28102112 C302.96955678 1650.15058258 298.97984043 1653.84530068 294.81980896 1657.42173767 C291.80640211 1660.03516942 288.90940193 1662.77204995 286 1665.5 C281.07495537 1670.09150696 276.12601415 1674.63232877 271 1679 C270.08476563 1679.78246094 269.16953125 1680.56492187 268.2265625 1681.37109375 C264.83161565 1684.26402015 261.41915061 1687.13573885 258 1690 C257.34821777 1690.5460791 256.69643555 1691.0921582 256.02490234 1691.65478516 C246.24622121 1699.82665171 236.2877371 1707.70912478 226.12060547 1715.39111328 C224.00084425 1716.99935947 221.89149195 1718.62031319 219.78515625 1720.24609375 C202.02758563 1733.94532001 183.74568946 1746.68758721 165 1759 C164.1961084 1759.52899902 163.3922168 1760.05799805 162.56396484 1760.60302734 C137.13655405 1777.30518316 110.86367823 1792.72798898 84 1807 C82.92186035 1807.57331055 81.8437207 1808.14662109 80.73291016 1808.73730469 C11.86076042 1845.20652382 -61.35449387 1873.1884188 -354.75 1922.5625 C-355.92536819 1922.59376984 -355.92536819 1922.59376984 -357.1244812 1922.62567139 C-369.75307721 1922.95754387 -382.36696801 1923.20906207 -395 1923 C-396.1859375 1922.98211426 -397.371875 1922.96422852 -398.59375 1922.94580078 C-490.07339426 1921.39164512 -581.27573796 1908.12716401 -814 1826 C-815.02657715 1825.52095215 -816.0531543 1825.0419043 -817.11083984 1824.54833984 C-852.32515025 1808.09643672 -886.2809828 1788.96062039 -919 1768 C-920.34578125 1767.13930908 -920.34578125 1767.13930908 -921.71875 1766.26123047 C-956.9985381 1743.6471457 -990.84540097 1718.87332288 -1023 1692 C-1023.6074707 1691.49307617 -1024.21494141 1690.98615234 -1024.84082031 1690.46386719 C-1031.24774117 1685.10877582 -1037.55608926 1679.66161942 -1043.73828125 1674.046875 C-1045.80673875 1672.1749031 -1047.89560914 1670.3313661 -1050 1668.5 C-1054.71408354 1664.38453024 -1059.3763723 1660.21694867 -1064 1656 C-1064.49806152 1655.54850586 -1064.99612305 1655.09701172 -1065.50927734 1654.63183594 C-1075.99884793 1645.08886165 -1086.02856296 1635.07881959 -1096.0625 1625.0625 C-1097.08867935 1624.04020294 -1097.08867935 1624.04020294 -1098.1355896 1622.99725342 C-1111.36498194 1609.8073021 -1111.36498194 1609.8073021 -1116.52905273 1603.72045898 C-1119.24254712 1600.54668389 -1122.13672947 1597.53813583 -1125 1594.5 C-1129.76597866 1589.41421139 -1134.48656211 1584.31290334 -1139 1579 C-1139.78117187 1578.08605469 -1140.56234375 1577.17210937 -1141.3671875 1576.23046875 C-1144.26162932 1572.83439521 -1147.1345571 1569.4205613 -1150 1566 C-1150.81911865 1565.02232666 -1150.81911865 1565.02232666 -1151.65478516 1564.02490234 C-1159.82665171 1554.24622121 -1167.70912478 1544.2877371 -1175.39111328 1534.12060547 C-1176.99935947 1532.00084425 -1178.62031319 1529.89149195 -1180.24609375 1527.78515625 C-1217.6550579 1479.30079995 -1249.54979454 1426.83810392 -1277.31152344 1372.30517578 C-1278.77854797 1369.4334901 -1280.26350749 1366.57238408 -1281.7578125 1363.71484375 C-1297.37443979 1333.56401775 -1310.23569098 1301.82678965 -1322 1270 C-1322.41188568 1268.8864917 -1322.41188568 1268.8864917 -1322.83209229 1267.75048828 C-1353.39700406 1184.88472205 -1372.54627554 1097.8494758 -1380.6875 999.5625 C-1380.74852905 998.77909241 -1380.80955811 997.99568481 -1380.87243652 997.1885376 C-1381.28674541 991.7946807 -1381.65801212 986.398906 -1382 981 C-1382.07368805 979.86572067 -1382.07368805 979.86572067 -1382.14886475 978.70852661 C-1383.26559603 960.92861942 -1383.24549087 943.12013332 -1383.25 925.3125 C-1383.25044186 924.51067165 -1383.25088371 923.70884331 -1383.25133896 922.88271713 C-1383.25960652 894.16921268 -1382.53173538 865.61733574 -1380 837 C-1379.91514343 836.03993042 -1379.83028687 835.07986084 -1379.74285889 834.09069824 C-1374.86059024 779.71807274 -1365.65352748 725.8559092 -1352 673 C-1351.82982361 672.33863037 -1351.65964722 671.67726074 -1351.48431396 670.99584961 C-1334.83466364 606.40611385 -1311.46985361 543.82380283 -1282 484 C-1281.47212891 482.92153809 -1281.47212891 482.92153809 -1280.93359375 481.82128906 C-1278.66584046 477.19167532 -1276.34139116 472.59272881 -1274 468 C-1273.27006836 466.55898926 -1273.27006836 466.55898926 -1272.52539062 465.08886719 C-1264.68331405 449.63426107 -1256.43262893 434.51578373 -1247.56054688 419.62890625 C-1246.15503283 417.26116921 -1244.76757625 414.88442417 -1243.390625 412.5 C-1229.52357252 388.52645164 -1214.00016741 365.58769144 -1198 343 C-1197.44908691 342.22188965 -1196.89817383 341.4437793 -1196.33056641 340.64208984 C-1184.6447803 324.18358268 -1172.21744837 308.3477994 -1159.42382812 292.73974609 C-1158.14773696 291.18051673 -1156.87812619 289.615989 -1155.609375 288.05078125 C-1147.18640205 277.67355739 -1138.50506995 267.52557331 -1129.44921875 257.6953125 C-1127.52677603 255.57970568 -1125.64107741 253.44433927 -1123.76708984 251.28637695 C-1112.42583845 238.31563912 -1100.26615004 226.10471843 -1088.07250977 213.94213867 C-1085.53739324 211.41244696 -1083.00775363 208.87736467 -1080.47851562 206.34179688 C-1078.84146683 204.70540798 -1077.20410834 203.06932883 -1075.56640625 201.43359375 C-1074.82354874 200.68871201 -1074.08069122 199.94383026 -1073.31532288 199.17637634 C-1069.25955942 195.13857436 -1065.11712233 191.26319885 -1060.77537537 187.53382874 C-1057.95102694 185.09374375 -1055.23014245 182.54434109 -1052.5 180 C-1047.7346916 175.58432021 -1042.9396978 171.2210309 -1038 167 C-1037.08347656 166.21625 -1036.16695312 165.4325 -1035.22265625 164.625 C-1022.68772938 153.94651167 -1010.04594862 143.39462043 -996.91308594 133.45654297 C-994.66455372 131.74460535 -992.43011587 130.01497583 -990.1953125 128.28515625 C-980.16698252 120.54762794 -970.01455359 113.11421882 -959.4921875 106.0625 C-956.14357051 103.80950138 -952.87770917 101.46351184 -949.625 99.07421875 C-944.23904418 95.1354873 -938.72508775 91.43841392 -933.125 87.8125 C-932.13250244 87.16812988 -931.14000488 86.52375977 -930.11743164 85.85986328 C-905.34836092 69.8375612 -880.05131656 54.84003266 -854 41 C-853.09797852 40.51740723 -852.19595703 40.03481445 -851.26660156 39.53759766 C-775.19836668 -1.11667885 -694.08255532 -31.02360107 -436 -75 C-434.78715332 -75.07347656 -433.57430664 -75.14695312 -432.32470703 -75.22265625 C-337.59965431 -80.61176501 -241.44066364 -70.55455878 0 0 Z M-456 -30 C-458.26275531 -29.8427097 -460.52553083 -29.68570968 -462.78833008 -29.52905273 C-492.10473897 -27.49132498 -521.09274927 -23.48810966 -550.01019287 -18.35095215 C-552.96962529 -17.82898238 -555.93232667 -17.32627777 -558.89453125 -16.8203125 C-621.96042835 -5.83162984 -683.7368898 12.96999735 -743 37 C-743.63450073 37.25696655 -744.26900146 37.51393311 -744.92272949 37.77868652 C-761.85801356 44.6531391 -778.46648722 52.21583667 -795 60 C-796.06138184 60.4964502 -797.12276367 60.99290039 -798.21630859 61.50439453 C-812.13007969 68.02097087 -825.75263434 74.91147984 -839.16064453 82.4140625 C-842.14135317 84.07895358 -845.13063824 85.72768729 -848.12109375 87.375 C-862.31118239 95.21958676 -876.23917932 103.42580297 -890 112 C-890.92941406 112.5775 -891.85882812 113.155 -892.81640625 113.75 C-906.1861192 122.08050265 -919.17666108 130.85396313 -932 140 C-933.23007386 140.87035004 -934.4605102 141.74018814 -935.69140625 142.609375 C-939.14274119 145.05213893 -942.57484264 147.52069456 -946 150 C-947.08015381 150.78044678 -947.08015381 150.78044678 -948.18212891 151.57666016 C-958.09743983 158.75785568 -967.78695524 166.13152948 -977.234375 173.91796875 C-980.79215359 176.84720645 -984.41938151 179.678213 -988.0625 182.5 C-998.38256959 190.53490081 -1008.13387918 199.25384866 -1017.8203125 208.03515625 C-1019.7983952 209.81826664 -1021.798558 211.57014769 -1023.8125 213.3125 C-1032.14466623 220.58206203 -1040.20672601 228.12548291 -1047.96875 236 C-1049.85712476 237.85932284 -1051.79642753 239.59388084 -1053.8125 241.3125 C-1061.53845326 247.95681981 -1068.69294541 255.31798694 -1075.29296875 263.07421875 C-1077.27599795 265.31136611 -1079.37193386 267.40054652 -1081.5 269.5 C-1084.84933729 272.80986698 -1087.99925956 276.20746949 -1091.0625 279.78125 C-1092.9857634 281.9836968 -1094.96045744 284.13257855 -1096.94946289 286.27563477 C-1101.7024388 291.39979701 -1106.23179809 296.63566054 -1110.6171875 302.08203125 C-1113.37543059 305.45974861 -1116.2129343 308.76188242 -1119.0625 312.0625 C-1123.83858456 317.61145943 -1128.48648895 323.23404871 -1133 329 C-1133.49193848 329.62326172 -1133.98387695 330.24652344 -1134.49072266 330.88867188 C-1142.73445667 341.33511604 -1150.68080304 351.95250132 -1158.40869141 362.78515625 C-1159.95828722 364.94194257 -1161.52767144 367.08253278 -1163.10546875 369.21875 C-1187.8734033 402.85474166 -1209.42052854 439.13995811 -1229 476 C-1229.57862793 477.08877441 -1230.15725586 478.17754883 -1230.75341797 479.29931641 C-1269.85807898 553.19371305 -1299.16920314 632.60105607 -1332.4375 801.62890625 C-1332.53732178 802.37679916 -1332.63714355 803.12469208 -1332.73999023 803.89524841 C-1337.62151722 841.61817256 -1339.51796415 879.28533992 -1339.39111328 917.30419922 C-1339.37402316 922.4661289 -1339.38420478 927.62759397 -1339.4014473 932.78950787 C-1339.5000337 967.76186803 -1337.87407591 1002.52037668 -1333.35742188 1037.22021484 C-1333.01535877 1039.88054987 -1332.69927689 1042.54263921 -1332.390625 1045.20703125 C-1328.71879763 1076.08951663 -1323.06551148 1106.72589297 -1316 1137 C-1315.525524 1139.08712197 -1315.05154061 1141.174356 -1314.578125 1143.26171875 C-1294.96281293 1228.56648524 -1262.65364978 1311.45041616 -1165 1475 C-1164.10788818 1476.25562744 -1164.10788818 1476.25562744 -1163.19775391 1477.53662109 C-1156.32800202 1487.18125172 -1149.29877729 1496.67572471 -1142 1506 C-1141.1314146 1507.11581084 -1140.26292738 1508.2316981 -1139.39453125 1509.34765625 C-1126.22842973 1526.22592346 -1112.69463698 1542.78322465 -1098.22265625 1558.5625 C-1096.32578236 1560.64272725 -1094.46607057 1562.74556898 -1092.625 1564.875 C-1084.69347427 1573.97129524 -1076.43146632 1582.71289192 -1067.80834961 1591.15478516 C-1065.16985903 1593.75300222 -1062.64609911 1596.35844523 -1060.30078125 1599.2265625 C-1058.47262915 1601.43027725 -1056.82772329 1603.15360438 -1054.625 1604.9375 C-1050.35149363 1608.56916796 -1046.44090304 1612.51653444 -1042.5 1616.5 C-1038.1450185 1620.89316449 -1033.80513578 1625.21499931 -1029.07421875 1629.20703125 C-1026.78914837 1631.18226158 -1024.58646317 1633.23192949 -1022.37988281 1635.29394531 C-1017.0498429 1640.27336517 -1011.62508608 1645.02959347 -1005.93359375 1649.59765625 C-1002.45096151 1652.44961208 -999.07230285 1655.40833002 -995.6875 1658.375 C-989.18393952 1664.05365428 -982.50585649 1669.45283239 -975.66455078 1674.71777344 C-974.07264252 1675.94404246 -972.48732658 1677.1788552 -970.90234375 1678.4140625 C-951.17721959 1693.72534724 -930.88678033 1708.31574047 -910 1722 C-909.33532715 1722.43666992 -908.6706543 1722.87333984 -907.98583984 1723.32324219 C-897.88944909 1729.94609308 -887.67045555 1736.34463691 -877.33447266 1742.58642578 C-874.97188818 1744.01702232 -872.61652297 1745.45898331 -870.26171875 1746.90234375 C-843.72028134 1763.09625785 -815.63629516 1778.80305947 -787 1791 C-785.66243076 1791.6581267 -784.32923415 1792.32519722 -783 1793 C-777.31707802 1795.86852252 -771.51325838 1798.18882633 -765.5625 1800.4375 C-761.90158369 1801.83173723 -758.34552653 1803.2449459 -754.875 1805.0625 C-750.97389807 1807.10320248 -746.9279232 1808.54003947 -742.78125 1810.00390625 C-740.20296249 1810.92730978 -737.66381068 1811.91125997 -735.125 1812.9375 C-726.42152531 1816.45475205 -717.65221557 1819.78484366 -708.8203125 1822.96484375 C-705.65649341 1824.12607929 -702.5162924 1825.34169611 -699.375 1826.5625 C-690.79292379 1829.86870969 -682.13158987 1832.59436096 -673.29003906 1835.11132812 C-669.15446098 1836.30387776 -665.13723972 1837.64569072 -661.13696289 1839.23632812 C-594.240806 1863.14255213 -519.46895356 1872.99411748 -449 1878 C-447.87614395 1878.08588379 -446.7522879 1878.17176758 -445.59437561 1878.26025391 C-434.20766587 1879.06562309 -422.85351986 1879.18123275 -411.44140625 1879.203125 C-409.91839055 1879.20736607 -409.91839055 1879.20736607 -408.36460686 1879.21169281 C-402.968085 1879.22659926 -397.57158918 1879.2358769 -392.17504883 1879.24023438 C-387.81135497 1879.24457564 -383.44786368 1879.25830912 -379.08422852 1879.28125 C-288.01727595 1879.75016277 -197.31944648 1866.68111744 -90 1834 C-88.80914795 1833.61518463 -88.80914795 1833.61518463 -87.59423828 1833.22259521 C-25.78227959 1813.21783579 35.01575676 1787.10768432 91 1754 C93.2002012 1752.71559814 95.40074098 1751.43177615 97.6015625 1750.1484375 C124.57367072 1734.37477287 150.7479855 1717.40974723 176 1699 C177.09175537 1698.20577637 177.09175537 1698.20577637 178.20556641 1697.39550781 C188.63361593 1689.79783705 198.94050125 1682.07989631 209 1674 C209.63502441 1673.49114258 210.27004883 1672.98228516 210.92431641 1672.45800781 C222.45214575 1663.20537094 233.72395487 1653.67651392 244.8125 1643.90234375 C246.63466738 1642.3177089 248.46922601 1640.75129744 250.3125 1639.19140625 C256.10660193 1634.28016332 261.80236795 1629.3936089 267.07972717 1623.91908264 C268.88949426 1622.11043724 270.75423699 1620.44574213 272.70092773 1618.78686523 C277.12341889 1614.94412922 281.27447609 1610.86989606 285.41015625 1606.72265625 C286.18129257 1605.95247665 286.95242889 1605.18229706 287.74693298 1604.38877869 C289.36580153 1602.77058627 290.98342551 1601.15114788 292.59985352 1599.53051758 C295.05568718 1597.06932768 297.51681365 1594.61352191 299.97851562 1592.15820312 C301.56021653 1590.57584133 303.14160717 1588.99316933 304.72265625 1587.41015625 C305.44888687 1586.68594986 306.17511749 1585.96174347 306.9233551 1585.21559143 C310.91883855 1581.2019708 314.74951108 1577.09918839 318.4393158 1572.80223083 C321.04509581 1569.79315503 323.77772957 1566.90334452 326.5 1564 C331.09147707 1559.07498742 335.63296927 1554.12651433 340 1549 C340.84046875 1548.01515625 341.6809375 1547.0303125 342.546875 1546.015625 C348.44945254 1539.07914003 354.27101416 1532.08087524 360 1525 C360.44956055 1524.44618652 360.89912109 1523.89237305 361.36230469 1523.32177734 C383.14009074 1496.46447382 403.52040885 1468.2235395 422 1439 C422.57363281 1438.09765625 423.14726563 1437.1953125 423.73828125 1436.265625 C432.05547905 1423.1682272 440.07865855 1409.94999463 447.65185547 1396.40820312 C448.91734833 1394.14764145 450.19347713 1391.89346157 451.47265625 1389.640625 C491.10866798 1319.50299207 520.72597268 1244.44906725 572.203125 946.25390625 C572.21010875 944.52127561 572.21714966 942.78864521 572.22424316 941.05601501 C572.2434852 935.55817334 572.24841832 930.0603717 572.25 924.5625 C572.25058914 923.62582489 572.25117828 922.68914978 572.25178528 921.72409058 C572.26451472 893.04358587 571.89733396 864.55911997 569 836 C568.87694489 834.76135193 568.87694489 834.76135193 568.75140381 833.49768066 C567.63875279 822.31445443 566.40178816 811.15074994 565 800 C564.85022705 798.7941626 564.7004541 797.5883252 564.54614258 796.34594727 C559.77992772 759.20825748 552.22294874 722.43697562 543.1875 686.125 C542.8233197 684.65684341 542.8233197 684.65684341 542.45178223 683.1590271 C541.75920963 680.37785109 541.05903752 677.59872488 540.35546875 674.8203125 C540.14740097 673.98652573 539.93933319 673.15273895 539.72496033 672.29368591 C539.52721512 671.52146194 539.32946991 670.74923798 539.12573242 669.95361328 C538.95587326 669.28339142 538.7860141 668.61316956 538.61100769 667.92263794 C537.94169729 665.81654077 536.99314467 663.97098756 536 662 C535.45384782 659.88639105 534.95774831 657.75950029 534.5 655.625 C533.08952273 649.07854571 530.99524525 642.9642664 528.6875 636.6875 C526.73293185 631.25495028 525.02305566 625.8003663 523.4375 620.25 C521.90228034 614.88770129 520.21096673 609.73151427 518.03125 604.58984375 C516.70301489 601.2541624 515.60660098 597.85116079 514.5 594.4375 C512.94018743 589.65442809 511.22622937 585.04950229 509.09375 580.4921875 C507.60923056 577.10960391 506.34165485 573.65137396 505.0625 570.1875 C502.90708535 564.36382637 500.64861916 558.60450271 498.22265625 552.88671875 C497.36162704 550.85380952 496.51672213 548.81403323 495.68359375 546.76953125 C495.03583984 545.18205078 495.03583984 545.18205078 494.375 543.5625 C493.99085937 542.61503906 493.60671875 541.66757812 493.2109375 540.69140625 C492.08236585 538.01720302 492.08236585 538.01720302 490.6015625 535.77734375 C489.2050394 533.35556833 488.21264117 531.11514526 487.20703125 528.51953125 C484.69485411 522.08289393 481.70395196 515.9004969 478.6875 509.6875 C478.23455566 508.75316635 478.23455566 508.75316635 477.77246094 507.79995728 C467.18778244 485.99147719 456.09773765 464.5485827 443.63916016 443.73876953 C442.06654489 441.11118566 440.50636717 438.47661508 438.94921875 435.83984375 C427.65119884 416.77396968 415.67760558 398.1763737 403 380 C402.49227051 379.26942383 401.98454102 378.53884766 401.46142578 377.78613281 C394.20018318 367.35028335 386.69625003 357.11859711 379 347 C378.36263916 346.15791992 378.36263916 346.15791992 377.71240234 345.29882812 C371.16185021 336.64784132 364.36159343 328.21545293 357.48828125 319.8203125 C356.18590621 318.22738135 354.88933968 316.6297048 353.59375 315.03125 C344.87435249 304.28996321 335.86219974 293.83575746 326.46484375 283.68359375 C324.35183852 281.3830635 322.28894966 279.05340817 320.25 276.6875 C317.57127344 273.59420861 314.73998537 270.71602517 311.81958008 267.85205078 C310.16328625 266.16620012 308.64226146 264.43596807 307.12109375 262.62890625 C302.14331286 256.90597223 296.74573441 251.59644717 291.37573242 246.24536133 C289.56639067 244.44137915 287.76245681 242.63211335 285.95898438 240.82226562 C280.65187382 235.5124146 275.36316072 230.23939082 269.61499023 225.40063477 C267.82167574 223.84534448 266.16170466 222.1944561 264.5 220.5 C261.51127663 217.46405075 258.38293521 214.65491341 255.15625 211.875 C252.80037042 209.82640906 250.4949254 207.72796998 248.1875 205.625 C243.87576435 201.73392149 239.43577709 198.03991917 234.921875 194.38671875 C231.72588404 191.77608977 228.57948067 189.11257233 225.4375 186.4375 C215.86866698 178.31133107 205.9884181 170.60118075 196 163 C195.38350586 162.53045898 194.76701172 162.06091797 194.13183594 161.57714844 C178.23315945 149.49350769 161.87627247 138.11896563 145.25 127.0625 C144.46696503 126.54119507 143.68393005 126.01989014 142.87716675 125.48278809 C69.42899471 76.62501662 -10.45415172 38.69476075 -138.93359375 -0.90380859 C-142.5245207 -1.86816722 -146.10645663 -2.86279182 -149.6875 -3.86328125 C-182.6461643 -12.92358011 -216.5073055 -18.64975043 -250.33081055 -23.34326172 C-253.56474141 -23.79325726 -256.79428172 -24.26647921 -260.02270508 -24.75439453 C-271.92866515 -26.53896604 -283.82666636 -27.85800564 -295.8215332 -28.88037109 C-298.6973984 -29.12584489 -301.57232934 -29.380616 -304.44726562 -29.63671875 C-306.34370264 -29.80262558 -308.24018562 -29.96800807 -310.13671875 -30.1328125 C-310.96225754 -30.20573517 -311.78779633 -30.27865784 -312.63835144 -30.35379028 C-327.66299811 -31.62405777 -342.64432464 -32.16124253 -357.71875 -32.16796875 C-359.47245304 -32.17120128 -361.22615585 -32.17456663 -362.9798584 -32.17805481 C-366.63713197 -32.18398943 -370.29438213 -32.18590097 -373.95166016 -32.18530273 C-377.62195836 -32.1852221 -381.29213009 -32.19207407 -384.96240234 -32.20581055 C-408.72647261 -32.29339667 -432.2955936 -31.72226844 -456 -30 Z " fill="#8E999F" transform="translate(1408,101)"/>
<path d="M0 0 C54.74815295 -0.01711332 109.49630616 -0.03303459 164.24446106 -0.04234314 C165.05436986 -0.0424812 165.86427866 -0.04261925 166.69873015 -0.04276149 C184.29897966 -0.0457542 201.89922919 -0.04852441 219.49947877 -0.05106533 C228.13026775 -0.0523127 236.76105673 -0.05360925 245.3918457 -0.05493164 C246.68016683 -0.05512778 246.68016683 -0.05512778 247.99451465 -0.05532788 C275.84810726 -0.05959147 303.70169785 -0.06710446 331.55528923 -0.07629722 C360.17142028 -0.08572453 388.7875502 -0.09188422 417.40368277 -0.09391499 C421.44277514 -0.09420316 425.4818675 -0.09452879 429.52095985 -0.09487724 C430.31593427 -0.09494467 431.11090868 -0.09501209 431.92997322 -0.09508156 C444.74208792 -0.09626463 457.55419917 -0.10090634 470.36631246 -0.10683203 C483.23758337 -0.11271162 496.10885085 -0.1149699 508.98012307 -0.11350138 C516.63312587 -0.1127391 524.28611611 -0.11478369 531.93911666 -0.12079754 C537.64492136 -0.1249761 543.35071553 -0.12396828 549.0565205 -0.12089889 C551.37153393 -0.12047426 553.6865484 -0.12176103 556.00155976 -0.12488318 C559.13598531 -0.12886646 562.27034827 -0.12675118 565.40477276 -0.12304783 C566.31413632 -0.12567484 567.22349988 -0.12830186 568.16041991 -0.13100848 C568.99587127 -0.12876118 569.83132263 -0.12651389 570.69209069 -0.1241985 C571.40882166 -0.12435448 572.12555263 -0.12451046 572.86400272 -0.12467116 C575 0 575 0 580 1 C580 4.63 580 8.26 580 12 C578.35 12 576.7 12 575 12 C575.02320313 12.66 575.04640625 13.32 575.0703125 14 C575.57076123 41.45318751 572.21086548 70.80928325 565.78125 97.4921875 C564.90289031 101.43602249 564.22587581 105.39071385 563.5625 109.375 C562.43130246 116.05583332 560.9057854 122.5289565 559.07421875 129.05859375 C558.31859779 131.76697365 557.6436179 134.48102188 557.01953125 137.22265625 C553.48165835 152.57211413 548.36325001 167.36975434 543.2722168 182.25756836 C541.78040081 186.64598655 540.33172823 191.04779241 538.89746094 195.45532227 C537.65735591 198.97153953 536.11027751 202.30494838 534.5234375 205.67578125 C532.96036753 209.08648009 531.5010394 212.52937295 530.04833984 215.98803711 C507.66321632 269.1268765 478.16980647 318.86085482 441 363 C440.14555958 364.02841846 439.29140922 365.05707794 438.4375 366.0859375 C432.75628296 372.89870863 426.86992562 379.48158115 420.81640625 385.96484375 C418.43367207 388.519192 416.11756749 391.12515436 413.8125 393.75 C409.50881908 398.55025949 404.98693822 403.12188905 400.4375 407.6875 C399.72891846 408.40067383 399.02033691 409.11384766 398.2902832 409.84863281 C394.26836871 413.85889499 390.14802841 417.69041193 385.84643555 421.39868164 C383.23477442 423.66364069 380.71713483 426.01872476 378.1875 428.375 C373.60057533 432.60741472 368.90021388 436.6455474 364.03515625 440.55859375 C361.75828067 442.39005737 359.49777908 444.23569658 357.24609375 446.09765625 C349.32058256 452.6332349 341.27093213 458.84785887 332.83789062 464.71240234 C330.88544845 466.08025304 328.94965539 467.4695322 327.015625 468.86328125 C249.70069655 524.41521997 157.97746083 559.08877258 12 575 C12 576.98 12 578.96 12 581 C8.37 581 4.74 581 1 581 C0.31043489 577.55217443 -0.12493334 575.06817227 -0.1241985 571.68567866 C-0.12644579 570.84879389 -0.12869308 570.01190911 -0.13100848 569.14966419 C-0.12838146 568.23869629 -0.12575445 567.32772838 -0.12304783 566.38915539 C-0.12420167 565.41088292 -0.12535552 564.43261046 -0.12654433 563.42469338 C-0.12920383 560.12695866 -0.12469425 556.82927217 -0.12025452 553.53153992 C-0.12069035 551.15133951 -0.12156549 548.77113916 -0.12284368 546.39093906 C-0.12461724 541.20586713 -0.12327289 536.02080555 -0.11920547 530.83573532 C-0.11317416 523.12570735 -0.11286933 515.41568662 -0.11374746 507.70565672 C-0.11506191 494.73660167 -0.11171789 481.76755172 -0.10573006 468.79849815 C-0.09981549 455.9552578 -0.09596461 443.11201956 -0.09487724 430.26877785 C-0.0948085 429.4705858 -0.09473976 428.67239375 -0.09466894 427.85001407 C-0.09433061 423.79649299 -0.09402923 419.74297192 -0.09374207 415.68945084 C-0.09164098 386.96931669 -0.08490173 358.24918532 -0.07543945 329.52905273 C-0.06625689 301.62573257 -0.05917236 273.72241317 -0.05493164 245.8190918 C-0.05480011 244.95917322 -0.05466859 244.09925465 -0.05453308 243.21327794 C-0.05321457 234.57771768 -0.05193875 225.94215743 -0.05069422 217.30659716 C-0.04815792 199.71455534 -0.04533667 182.12251356 -0.04234314 164.5304718 C-0.04220585 163.72159663 -0.04206856 162.91272146 -0.04192711 162.07933492 C-0.03272456 108.05288879 -0.01685836 54.02644422 0 0 Z " fill="#307FA7" transform="translate(1035,1035)"/>
<path d="M0 0 C0 0.66 0 1.32 0 2 C0.82951172 2.37511719 0.82951172 2.37511719 1.67578125 2.7578125 C15.66227805 10.23294861 28.80446837 27.62492565 33.59887695 42.90917969 C34.40994216 47.1367892 34.18467741 51.45966603 34.1875 55.75 C34.19974609 56.71421875 34.21199219 57.6784375 34.22460938 58.671875 C34.23643439 64.47401767 33.66717019 69.43837295 32 75 C33.18335938 74.44570313 34.36671875 73.89140625 35.5859375 73.3203125 C55.86254732 63.95725183 72.37751441 62.47936707 93.6328125 69.921875 C110.11798767 76.99472243 122.73393254 92.99166033 129.80859375 108.89453125 C135.47463793 123.6634005 134.11494317 140.3670045 128 154.8125 C122.15780604 167.85752666 113.64999976 178.81773786 104.29199219 189.50634766 C102.32997176 191.77460937 100.44831346 194.10576314 98.5625 196.4375 C94.60491812 201.30129025 90.53457554 206.05881231 86.44165039 210.80834961 C83.41054711 214.33298919 80.43014684 217.89039882 77.5 221.5 C74.06791987 225.7279248 70.55448829 229.8752789 67 234 C62.67827137 239.01591689 58.44520804 244.09175299 54.26953125 249.23046875 C49.45311061 255.10799411 44.505057 260.87611914 39.58398438 266.66601562 C34.8648039 272.22068034 30.15924951 277.78059925 25.5625 283.4375 C21.60491812 288.30129025 17.53457554 293.05881231 13.44165039 297.80834961 C9.66903661 302.19523538 5.99673368 306.65493557 2.3515625 311.1484375 C-0.42593933 314.51650451 -3.27185665 317.8210353 -6.125 321.125 C-10.58517372 326.29289214 -14.89793874 331.54021423 -19 337 C-22.86442484 336.41096527 -24.98800111 334.61765921 -27.9375 332.125 C-28.90558594 331.31289063 -29.87367188 330.50078125 -30.87109375 329.6640625 C-31.91446843 328.77651865 -32.95742782 327.88848638 -34 327 C-35.07388376 326.09075005 -36.14810629 325.18190005 -37.22265625 324.2734375 C-38.87105041 322.87915434 -40.51873471 321.48408264 -42.1640625 320.08618164 C-45.55759434 317.20559056 -48.98183167 314.36864477 -52.4375 311.5625 C-57.30129025 307.60491812 -62.05881231 303.53457554 -66.80834961 299.44165039 C-70.33298919 296.41054711 -73.89039882 293.43014684 -77.5 290.5 C-81.7279248 287.06791987 -85.8752789 283.55448829 -90 280 C-95.01591689 275.67827137 -100.09175299 271.44520804 -105.23046875 267.26953125 C-111.10799411 262.45311061 -116.87611914 257.505057 -122.66601562 252.58398438 C-128.22068034 247.8648039 -133.78059925 243.15924951 -139.4375 238.5625 C-144.30129025 234.60491812 -149.05881231 230.53457554 -153.80834961 226.44165039 C-157.33298919 223.41054711 -160.89039882 220.43014684 -164.5 217.5 C-168.7279248 214.06791987 -172.8752789 210.55448829 -177 207 C-182.00543854 202.68729954 -187.06935545 198.46156402 -192.19921875 194.296875 C-196.00344275 191.17709298 -199.75343296 187.99509171 -203.49829102 184.80444336 C-206.62274827 182.14657172 -209.78359274 179.54582788 -213 177 C-211.29957897 172.85586014 -208.35850595 169.75616765 -205.4375 166.4375 C-204.34144897 165.17664893 -203.24640511 163.91492167 -202.15234375 162.65234375 C-201.34385986 161.72010986 -201.34385986 161.72010986 -200.51904297 160.76904297 C-198.46864567 158.38119681 -196.48066779 155.94585215 -194.5 153.5 C-190.5662143 148.65403211 -186.51552241 143.91901472 -182.44140625 139.19140625 C-179.41041716 135.66682097 -176.43007419 132.10951168 -173.5 128.5 C-169.5662143 123.65403211 -165.51552241 118.91901472 -161.44140625 114.19140625 C-158.41041716 110.66682097 -155.43007419 107.10951168 -152.5 103.5 C-148.5662143 98.65403211 -144.51552241 93.91901472 -140.44140625 89.19140625 C-137.41041716 85.66682097 -134.43007419 82.10951168 -131.5 78.5 C-127.5662143 73.65403211 -123.51552241 68.91901472 -119.44140625 64.19140625 C-116.41041716 60.66682097 -113.43007419 57.10951168 -110.5 53.5 C-106.56761888 48.65576239 -102.5215474 43.91945747 -98.44360352 39.19799805 C-95.36612804 35.62565707 -92.37773455 31.99962776 -89.4375 28.3125 C-67.2805963 1.18322114 -33.9133818 -21.0004709 0 0 Z " fill="#FBFBFB" transform="translate(459,347)"/>
<path d="M0 0 C25.08 0 50.16 0 76 0 C77.32 3.96 78.64 7.92 80 12 C80.78049348 13.99200574 81.58476812 15.97533148 82.4375 17.9375 C84.0636881 21.74126423 85.62536788 25.55754047 87.1015625 29.421875 C87.53621826 30.5574585 87.97087402 31.69304199 88.41870117 32.86303711 C88.66566742 33.50941132 88.91263367 34.15578552 89.16708374 34.82174683 C90.10745 37.2810046 91.05027894 39.73931029 91.9934082 42.19750977 C93.90957435 47.1919704 95.8241111 52.18705358 97.73803711 57.18237305 C98.53565514 59.26384276 99.33350552 61.34522345 100.1315918 63.42651367 C104.11105327 73.80454969 108.08450353 84.1840458 111.97421265 94.59609985 C114.27379457 100.74718141 116.63228698 106.87489164 119 113 C119.82183668 115.13142479 120.64345028 117.26293562 121.46484375 119.39453125 C122.07162964 120.96908081 122.07162964 120.96908081 122.69067383 122.57543945 C125.92674667 130.97706267 129.1625574 139.37813507 132.3125 147.8125 C134.07336682 152.5246788 135.8362067 157.23583786 137.625 161.9375 C137.98851562 162.89527344 138.35203125 163.85304688 138.7265625 164.83984375 C140.37928918 168.94124218 142.18279157 172.96929494 144 177 C144.36013184 176.03441162 144.72026367 175.06882324 145.09130859 174.07397461 C154.38253128 149.17568525 163.82393221 124.33765997 173.34681702 99.52716064 C178.18434679 86.91991547 182.9979195 74.30352279 187.8125 61.6875 C195.53381993 41.45532519 203.26601487 21.22734573 211 1 C236.08 1 261.16 1 287 1 C287 83.5 287 166 287 251 C270.5 251 254 251 237 251 C236.67 194.57 236.34 138.14 236 80 C231.71 91.55 227.42 103.1 223 115 C219.88259098 123.29462466 216.76010325 131.58708419 213.625 139.875 C212.35519224 143.23524216 211.08573252 146.59561569 209.81628418 149.95599365 C208.93138518 152.29836135 208.04637488 154.640687 207.16125488 156.98297119 C203.7305571 166.06245566 200.30560357 175.14409501 196.8828125 184.2265625 C196.36549079 185.59919309 195.84816698 186.9718229 195.33084106 188.3444519 C193.31709364 193.68769122 191.30339836 199.03095012 189.29034424 204.37445068 C186.60726844 211.49620339 183.92174988 218.61702596 181.23217773 225.73632812 C180.4123415 227.90783015 179.59348977 230.07970413 178.77563477 232.25195312 C177.64979996 235.24183713 176.52065131 238.23044815 175.390625 241.21875 C174.8926944 242.54465149 174.8926944 242.54465149 174.38470459 243.89733887 C172.11412625 249.88587375 172.11412625 249.88587375 171 251 C169.28134591 251.0935919 167.55884256 251.11744611 165.83764648 251.11352539 C164.73658066 251.11344986 163.63551483 251.11337433 162.50108337 251.11329651 C161.3031868 251.10813522 160.10529022 251.10297394 158.87109375 251.09765625 C157.65172623 251.0962413 156.4323587 251.09482635 155.17604065 251.09336853 C151.2631693 251.08774967 147.35035419 251.07519396 143.4375 251.0625 C140.79231853 251.05748743 138.14713617 251.0529241 135.50195312 251.04882812 C129.00128274 251.03777411 122.50064539 251.02101764 116 251 C111.51642117 239.90859953 107.10570107 228.8029373 102.98678589 217.57037354 C101.61974468 213.84494134 100.24130924 210.12372314 98.86328125 206.40234375 C98.56200821 205.58854248 98.26073517 204.77474121 97.95033264 203.9362793 C93.82698065 192.81465953 89.62966598 181.72081764 85.4375 170.625 C85.0189978 169.5172522 84.60049561 168.40950439 84.16931152 167.26818848 C82.44710991 162.70998172 80.72475525 158.15183291 79.00198364 153.59384155 C75.79971469 145.1204291 72.60376131 136.64464997 69.41015625 128.16796875 C68.04685848 124.55057753 66.68348711 120.93321406 65.32009888 117.31585693 C64.4484194 115.00254208 63.57705491 112.68910852 62.70602417 110.37554932 C61.49243825 107.15236161 60.27759799 103.92964918 59.0625 100.70703125 C58.53252159 99.29794746 58.53252159 99.29794746 57.99183655 97.86039734 C57.65550705 96.96907608 57.31917755 96.07775482 56.97265625 95.15942383 C56.68656494 94.39994949 56.40047363 93.64047516 56.10571289 92.85798645 C54.44176781 88.55711185 52.71268032 84.28170079 51 80 C50.67 136.43 50.34 192.86 50 251 C33.5 251 17 251 0 251 C0 168.17 0 85.34 0 0 Z " fill="#F8F8F8" transform="translate(879,110)"/>
<path d="M0 0 C4.15388298 1.55891646 6.46918555 4.59719835 9.1875 7.9375 C9.67089844 8.52015625 10.15429688 9.1028125 10.65234375 9.703125 C12.109088 11.46271872 13.55594636 13.22998402 15 15 C15.76957031 15.93972656 16.53914063 16.87945312 17.33203125 17.84765625 C18.7782176 19.6169545 20.22092727 21.38910018 21.66015625 23.1640625 C23.39507207 25.26681523 25.14807602 27.33951418 26.93359375 29.3984375 C27.68189453 30.2656543 27.68189453 30.2656543 28.4453125 31.15039062 C29.41500316 32.27111948 30.38999387 33.3872921 31.37109375 34.49804688 C36.53195962 40.47654992 36.53195962 40.47654992 37 44 C35.60866588 46.96423714 33.63485063 49.42914942 31.625 52 C30.74654419 53.16837402 30.74654419 53.16837402 29.8503418 54.36035156 C27.91814802 56.92107199 25.9602989 59.46074782 24 62 C22.63801401 63.78546063 21.27734805 65.57192894 19.91796875 67.359375 C17.86057948 70.06272867 15.80135917 72.76453676 13.73486328 75.4609375 C9.6674669 80.77313543 5.71087698 86.13949632 1.86645508 91.61425781 C-2.62168033 97.96028982 -7.38888805 104.09399234 -12.1171875 110.26171875 C-15.83095371 115.11764325 -19.48724038 119.996818 -23 125 C-27.9055039 131.96614925 -33.0822131 138.71497067 -38.29296875 145.45507812 C-42.42815764 150.83082368 -46.32057379 156.30207166 -50 162 C-35.6216034 155.85363046 -21.36161349 149.46634907 -7.125 143 C9.00780923 135.67365002 25.18941129 128.46905541 41.43383789 121.39355469 C49.28209996 117.97182599 57.10755744 114.51602562 64.875 110.9140625 C66.23911695 110.28551541 67.60329157 109.6570935 68.9675293 109.02880859 C71.46179226 107.87943363 73.94561121 106.71073828 76.42504883 105.52978516 C77.50810303 105.0301123 78.59115723 104.53043945 79.70703125 104.015625 C80.6400708 103.57508789 81.57311035 103.13455078 82.53442383 102.68066406 C85 102 85 102 87.17578125 102.70825195 C89.984274 104.69697454 92.03246715 107.28936642 94.1875 109.9375 C94.67089844 110.52015625 95.15429688 111.1028125 95.65234375 111.703125 C97.109088 113.46271872 98.55594636 115.22998402 100 117 C100.76957031 117.93972656 101.53914063 118.87945312 102.33203125 119.84765625 C103.78041808 121.61964663 105.22702659 123.39309202 106.671875 125.16796875 C110.20878113 129.47041328 113.81541865 133.71288053 117.421875 137.95703125 C118.27265625 138.96121094 119.1234375 139.96539062 120 141 C120.72993164 141.76449463 120.72993164 141.76449463 121.47460938 142.54443359 C124.96691407 146.3173269 124.96691407 146.3173269 125.1171875 149.41796875 C123.54569939 153.04997448 121.42845019 156.1063887 119.125 159.3125 C118.11437757 160.74985535 117.10396659 162.18735939 116.09375 163.625 C115.31837891 164.71941406 115.31837891 164.71941406 114.52734375 165.8359375 C112.19534077 169.14010541 109.91073148 172.47623862 107.625 175.8125 C106.71104161 177.14199866 105.796977 178.47142431 104.8828125 179.80078125 C101.19272839 185.17269705 97.51506626 190.55310606 93.83642578 195.93286133 C89.95455216 201.60853531 86.06204784 207.27679013 82.1640625 212.94140625 C78.04433269 218.93049323 73.94004072 224.93009174 69.83813477 230.93139648 C67.28291666 234.66856871 64.72458999 238.40342877 62.15234375 242.12890625 C55.32749823 252.01526241 48.63749621 261.98694278 42 272 C53.62021975 266.59058736 65.11960553 260.96730965 76.57110596 255.20932007 C84.38301849 251.28355976 92.22194113 247.4273659 100.125 243.6875 C109.82060703 239.09639592 119.41387808 234.31397527 129 229.5 C139.05215623 224.45516527 149.11145159 219.43219648 159.25 214.5625 C160.16523437 214.12035156 161.08046875 213.67820312 162.0234375 213.22265625 C166.28660743 211.18885041 170.46114529 209.35720656 175 208 C180.75844171 214.21527007 186.31391056 220.50928115 191.640625 227.1015625 C194.28534109 230.35053491 196.97869183 233.55446717 199.6875 236.75 C200.15381836 237.30131592 200.62013672 237.85263184 201.10058594 238.4206543 C203.59993577 241.37001198 206.13120166 244.28754835 208.6875 247.1875 C211 250 211 250 211 252 C210.11045718 252.44431051 209.22091436 252.88862103 208.3044157 253.34639549 C186.5823502 264.19629018 164.86146167 275.0485382 143.1417799 285.90320396 C132.63795392 291.15254729 122.13375757 296.40114682 111.62866211 301.64794922 C102.46417461 306.22518324 93.30040955 310.80385993 84.13748151 315.384215 C79.2932882 317.80566422 74.44875492 320.22642723 69.6033535 322.64545822 C65.02658487 324.93040492 60.45079706 327.21730447 55.8757 329.50559616 C54.21181092 330.33740508 52.54758876 331.16854818 50.88297653 331.998909 C41.41809409 336.72084797 32.00663341 341.52651133 22.67463511 346.50693262 C14.91947768 350.62853111 6.98174316 354.34127522 -1 358 C-6.59925324 351.48017321 -12.11482496 344.92266041 -17.375 338.125 C-21.34449906 333.00225398 -25.48211757 328.06411853 -29.75 323.1875 C-37.63190283 314.14574557 -37.63190283 314.14574557 -40.375 310.8125 C-41.19097656 309.83216797 -41.19097656 309.83216797 -42.0234375 308.83203125 C-43 307 -43 307 -42.70574951 305.12367249 C-41.9529044 302.85828453 -41.00067932 301.17834032 -39.68457031 299.18920898 C-39.19657455 298.44579758 -38.7085788 297.70238617 -38.20579529 296.93644714 C-37.66866409 296.13113052 -37.1315329 295.3258139 -36.578125 294.49609375 C-36.01428604 293.64143021 -35.45044708 292.78676666 -34.86952209 291.90620422 C-33.0020915 289.07945571 -31.12619739 286.25843584 -29.25 283.4375 C-27.94654994 281.46862887 -26.64341291 279.49955047 -25.34057617 277.53027344 C-14.90230671 261.77436797 -4.34767749 246.09640756 6.27832031 230.46655273 C11.7575747 222.39397014 17.13895055 214.29045652 22.25700378 205.98358154 C27.28871883 197.84817065 32.65311717 189.93033269 38 182 C3.41567833 196.7093603 3.41567833 196.7093603 -31.140625 211.484375 C-31.75671631 211.74848679 -32.37280762 212.01259857 -33.00756836 212.28471375 C-39.51820689 215.07598663 -46.0279971 217.86923225 -52.53710938 220.6640625 C-67.67043144 227.15941193 -82.82686572 233.59822436 -98 240 C-100.75566177 237.27169693 -103.47585989 234.54830006 -106.015625 231.6171875 C-106.80175171 230.71117798 -106.80175171 230.71117798 -107.60375977 229.78686523 C-108.14701904 229.15594971 -108.69027832 228.52503418 -109.25 227.875 C-109.82355225 227.21121338 -110.39710449 226.54742676 -110.98803711 225.86352539 C-114.9633606 221.24653556 -118.84469092 216.5617408 -122.67578125 211.82421875 C-125.96185549 207.83122433 -129.34722711 203.92490683 -132.75219727 200.03295898 C-136.09357755 196.17881767 -139.08718169 192.18850517 -142 188 C-140.37486176 185.86700606 -138.74971165 183.73402116 -137.12451172 181.60107422 C-135.68844384 179.71613199 -134.25257673 177.83103679 -132.81689453 175.94580078 C-129.17156428 171.15957169 -125.52367863 166.37536579 -121.8671875 161.59765625 C-114.86952424 152.44699697 -107.95124004 143.24873639 -101.14794922 133.95263672 C-96.62936004 127.80072971 -91.96214241 121.77661781 -87.25170898 115.77099609 C-83.04970437 110.39567017 -78.96809946 104.94230043 -74.9375 99.4375 C-68.97896338 91.29961499 -62.89346326 83.26961525 -56.74658203 75.2734375 C-47.76766407 63.58603408 -38.85895035 51.85643896 -30.15527344 39.96240234 C-25.57451713 33.72552645 -20.84419744 27.61605114 -16.06933594 21.52709961 C-10.54911852 14.46955669 -5.24791122 7.26139552 0 0 Z " fill="#E3E3E3" transform="translate(1613,318)"/>
<path d="M0 0 C26.06155071 0 26.06155071 0 38.375 1.125 C39.45337128 1.22003311 39.45337128 1.22003311 40.55352783 1.31698608 C69.27008906 3.88236748 97.92595645 8.44952012 126 15 C127.20253418 15.28037109 128.40506836 15.56074219 129.64404297 15.84960938 C170.59738974 25.57153579 210.07662647 39.75678573 248 58 C249.11084961 58.53351074 250.22169922 59.06702148 251.36621094 59.61669922 C299.03958267 82.65550439 344.46815902 112.17597533 383.6875 147.90234375 C385.66384372 149.69507446 387.6645673 151.44795227 389.6875 153.1875 C399.45627405 161.72540852 408.81145408 170.71973495 418 179.875 C418.69343506 180.56384277 419.38687012 181.25268555 420.10131836 181.96240234 C424.03342001 185.90636339 427.78128632 189.95702909 431.41894531 194.17382812 C433.52016433 196.60080748 435.69679593 198.95461242 437.875 201.3125 C441.91279322 205.74496474 445.77307434 210.27742177 449.53515625 214.9453125 C451.34085175 217.1831158 453.15979312 219.40481899 454.99609375 221.6171875 C476.08075001 247.10572306 494.88042725 275.1209356 511 304 C511.59087402 305.05832031 512.18174805 306.11664062 512.79052734 307.20703125 C543.6228534 362.82550031 564.39018615 421.76379477 577 484 C577.17692383 484.84369141 577.35384766 485.68738281 577.53613281 486.55664062 C582.09905748 508.58271968 584.59351387 531.32312296 586.25 553.75 C586.32992187 554.79293213 586.40984375 555.83586426 586.4921875 556.91040039 C587.16994995 566.98819456 587 576.82766333 587 587 C393.29 587 199.58 587 0 587 C0 393.29 0 199.58 0 0 Z M13 11 C11.78319459 15.32742831 11.86150988 19.55314598 11.87301636 24.01673889 C11.87145495 24.94310626 11.86989354 25.86947363 11.86828482 26.82391274 C11.86427436 29.95171624 11.86746353 33.07947147 11.87060547 36.20727539 C11.8692697 38.46370884 11.86751099 40.72014207 11.86536407 42.9765749 C11.86081105 49.1982473 11.86269538 55.41990358 11.86577559 61.64157629 C11.86719642 65.62264062 11.86689206 69.6037022 11.86568069 73.58476639 C11.86547845 74.25355591 11.86527622 74.92234542 11.86506785 75.61140129 C11.86464706 76.97553537 11.8642224 78.33966946 11.86379392 79.70380354 C11.85974259 93.55875953 11.86333568 107.41370768 11.86943495 121.26866245 C11.87377864 131.20676095 11.8763229 141.14485803 11.87742338 151.08295741 C11.8857971 224.4748784 11.99134095 297.86625841 12.2265625 371.2578125 C12.23356055 373.45252699 12.24055799 375.64724148 12.24754998 377.84195599 C12.45690554 442.89478696 12.73835041 507.94737001 13 573 C198.79 573 384.58 573 576 573 C574.49967947 547.12640909 574.49967947 547.12640909 571.75 521.4375 C571.58993469 520.22929092 571.58993469 520.22929092 571.42663574 518.99667358 C563.5633063 459.88873058 546.70434781 402.51214352 521.22412109 348.60839844 C520.12267305 346.26139587 519.04863517 343.90483947 517.98828125 341.5390625 C512.93580825 330.35369693 506.92682525 319.75985463 500.7902832 309.13818359 C499.49557516 306.86869264 498.2217947 304.59376 496.96557617 302.30322266 C491.50065446 292.3723459 485.51951591 282.89838065 479.1875 273.5 C478.70477631 272.77976654 478.22205261 272.05953308 477.72470093 271.31747437 C471.1815661 261.55763309 464.57319148 251.8774935 457.29589844 242.64453125 C455.92722844 240.90765086 454.57615351 239.15798711 453.2265625 237.40625 C444.87366738 226.61265905 436.06301594 216.2035303 427 206 C425.93845703 204.79923828 425.93845703 204.79923828 424.85546875 203.57421875 C420.6637403 198.86834303 416.37394976 194.32993695 411.87890625 189.9140625 C410.08984115 188.09152217 408.45156785 186.20721616 406.8125 184.25 C402.62214897 179.36607363 397.83413224 175.15065365 393.08203125 170.828125 C390.71840267 168.67432802 388.42596365 166.47227669 386.1875 164.1875 C382.63266545 160.58077006 378.85084073 157.28605075 375 154 C374.0409375 153.175 373.081875 152.35 372.09375 151.5 C364.23756871 144.77116311 356.20269352 138.30103101 348 132 C347.38817871 131.52981445 346.77635742 131.05962891 346.14599609 130.57519531 C296.9075062 92.88395428 242.46824091 63.54712131 184 43 C183.04915527 42.65807617 182.09831055 42.31615234 181.11865234 41.96386719 C135.2821618 25.51302819 87.13365898 16.60530938 38.75 12.25 C38.02948456 12.18470093 37.30896912 12.11940186 36.56661987 12.05212402 C28.70490949 11.35001426 20.89884594 10.78753851 13 11 Z " fill="#A7A9AF" transform="translate(1034,427)"/>
<path d="M0 0 C193.71 0 387.42 0 587 0 C587 193.38 587 386.76 587 586 C546.98006496 586 507.05304873 582.03600799 468 573 C466.55016724 572.66983887 466.55016724 572.66983887 465.07104492 572.33300781 C427.20244261 563.64437998 390.52306798 551.7926847 355 536 C353.865625 535.49597656 352.73125 534.99195313 351.5625 534.47265625 C288.92417713 506.43921041 229.06740801 466.94433905 180.828125 417.79296875 C178.93323884 415.93452271 176.96023406 414.21777988 174.9375 412.5 C171.59277137 409.62288392 168.76192599 406.52948799 165.9140625 403.16796875 C163.70774516 400.66897667 161.37316307 398.34089953 159 396 C154.78314911 391.82113876 150.84731888 387.51675236 147 383 C146.12073263 381.99526951 145.24043777 380.9914377 144.359375 379.98828125 C137.02432167 371.59363855 130.20431568 362.87766259 123.49902344 353.97509766 C122.15381786 352.20266881 120.79128162 350.44681413 119.4140625 348.69921875 C96.48660572 319.50195583 77.69848709 287.07626755 61 254 C60.505 253.0207959 60.01 252.0415918 59.5 251.03271484 C30.90029057 194.02880181 12.82398233 131.81445757 4.36572266 68.68945312 C4.06120867 66.45011666 3.7345136 64.21727639 3.38671875 61.984375 C2.17099129 53.85477765 1.50503606 45.69323692 0.875 37.5 C0.78718262 36.41533447 0.69936523 35.33066895 0.60888672 34.21313477 C-0.21401343 22.74157424 0 11.60535004 0 0 Z M11 12 C10.96879591 23.7536422 10.96879591 23.7536422 11.76953125 35.37890625 C11.84997681 36.18970139 11.93042236 37.00049652 12.01330566 37.83586121 C12.27165825 40.41230494 12.54099363 42.98741159 12.8125 45.5625 C12.90469818 46.45271851 12.99689636 47.34293701 13.09188843 48.26013184 C15.09036525 67.69070255 15.09036525 67.69070255 18 87 C18.21994629 88.25538574 18.43989258 89.51077148 18.66650391 90.80419922 C33.26535936 173.08504423 64.5089783 251.95240427 141.57617188 359.27197266 C142.86063877 360.8308644 144.12678937 362.40480439 145.390625 363.98046875 C150.28829372 370.08493714 155.46520083 375.85849033 160.8125 381.56640625 C163.30536956 384.22855717 165.73043236 386.94508866 168.15234375 389.671875 C172.95458302 395.01870329 177.9754083 400.12746702 183.06616211 405.1965332 C184.56806925 406.69304925 186.06451062 408.194883 187.56054688 409.69726562 C192.87117876 415.01156262 198.28701371 420.12131745 204 425 C205.60768373 426.45445517 207.21239715 427.91220895 208.8125 429.375 C214.06180977 434.10576093 219.49623945 438.56997052 225 443 C226.13313697 443.92538408 227.26593449 444.85118393 228.3984375 445.77734375 C260.94301002 472.27111495 296.69423676 494.5556743 334.06982422 513.50927734 C336.48339174 514.7371763 338.88709188 515.98052216 341.28515625 517.23828125 C364.86296617 529.5065357 389.84036281 538.59948504 415 547 C416.15741699 547.38671875 417.31483398 547.7734375 418.50732422 548.171875 C467.79978427 564.42359245 522.04679472 575 574 575 C574 389.21 574 203.42 574 12 C388.21 12 202.42 12 11 12 Z " fill="#97989E" transform="translate(427,1035)"/>
<path d="M0 0 C6.6 0 13.2 0 20 0 C20 194.04 20 388.08 20 588 C-174.04 588 -368.08 588 -568 588 C-568 579.75 -568 571.5 -568 563 C-567.67 563 -567.34 563 -567 563 C-567 567.29 -567 571.58 -567 576 C-377.25 576 -187.5 576 8 576 C8 386.58 8 197.16 8 2 C4.04 1.505 4.04 1.505 0 1 C0 0.67 0 0.34 0 0 Z " fill="#819BB0" transform="translate(994,426)"/>
<path d="M0 0 C54.74815295 -0.01711332 109.49630616 -0.03303459 164.24446106 -0.04234314 C165.05436986 -0.0424812 165.86427866 -0.04261925 166.69873015 -0.04276149 C184.29897966 -0.0457542 201.89922919 -0.04852441 219.49947877 -0.05106533 C228.13026775 -0.0523127 236.76105673 -0.05360925 245.3918457 -0.05493164 C246.68016683 -0.05512778 246.68016683 -0.05512778 247.99451465 -0.05532788 C275.84810726 -0.05959147 303.70169785 -0.06710446 331.55528923 -0.07629722 C360.17142028 -0.08572453 388.7875502 -0.09188422 417.40368277 -0.09391499 C421.44277514 -0.09420316 425.4818675 -0.09452879 429.52095985 -0.09487724 C430.31593427 -0.09494467 431.11090868 -0.09501209 431.92997322 -0.09508156 C444.74208792 -0.09626463 457.55419917 -0.10090634 470.36631246 -0.10683203 C483.23758337 -0.11271162 496.10885085 -0.1149699 508.98012307 -0.11350138 C516.63312587 -0.1127391 524.28611611 -0.11478369 531.93911666 -0.12079754 C537.64492136 -0.1249761 543.35071553 -0.12396828 549.0565205 -0.12089889 C551.37153393 -0.12047426 553.6865484 -0.12176103 556.00155976 -0.12488318 C559.13598531 -0.12886646 562.27034827 -0.12675118 565.40477276 -0.12304783 C566.31413632 -0.12567484 567.22349988 -0.12830186 568.16041991 -0.13100848 C568.99587127 -0.12876118 569.83132263 -0.12651389 570.69209069 -0.1241985 C571.40882166 -0.12435448 572.12555263 -0.12451046 572.86400272 -0.12467116 C575 0 575 0 580 1 C580 4.63 580 8.26 580 12 C392.56 12 205.12 12 12 12 C12 199.77 12 387.54 12 581 C8.37 581 4.74 581 1 581 C0.31043489 577.55217443 -0.12493334 575.06817227 -0.1241985 571.68567866 C-0.12644579 570.84879389 -0.12869308 570.01190911 -0.13100848 569.14966419 C-0.12838146 568.23869629 -0.12575445 567.32772838 -0.12304783 566.38915539 C-0.12420167 565.41088292 -0.12535552 564.43261046 -0.12654433 563.42469338 C-0.12920383 560.12695866 -0.12469425 556.82927217 -0.12025452 553.53153992 C-0.12069035 551.15133951 -0.12156549 548.77113916 -0.12284368 546.39093906 C-0.12461724 541.20586713 -0.12327289 536.02080555 -0.11920547 530.83573532 C-0.11317416 523.12570735 -0.11286933 515.41568662 -0.11374746 507.70565672 C-0.11506191 494.73660167 -0.11171789 481.76755172 -0.10573006 468.79849815 C-0.09981549 455.9552578 -0.09596461 443.11201956 -0.09487724 430.26877785 C-0.0948085 429.4705858 -0.09473976 428.67239375 -0.09466894 427.85001407 C-0.09433061 423.79649299 -0.09402923 419.74297192 -0.09374207 415.68945084 C-0.09164098 386.96931669 -0.08490173 358.24918532 -0.07543945 329.52905273 C-0.06625689 301.62573257 -0.05917236 273.72241317 -0.05493164 245.8190918 C-0.05480011 244.95917322 -0.05466859 244.09925465 -0.05453308 243.21327794 C-0.05321457 234.57771768 -0.05193875 225.94215743 -0.05069422 217.30659716 C-0.04815792 199.71455534 -0.04533667 182.12251356 -0.04234314 164.5304718 C-0.04220585 163.72159663 -0.04206856 162.91272146 -0.04192711 162.07933492 C-0.03272456 108.05288879 -0.01685836 54.02644422 0 0 Z " fill="#8BA1BA" transform="translate(1035,1035)"/>
<path d="M0 0 C3.96 0 7.92 0 12 0 C12.21234569 14.26527445 11.6921713 28.29585508 10.375 42.5 C10.2439537 43.94551239 10.2439537 43.94551239 10.11026001 45.42022705 C7.35911582 75.40705307 2.21713588 104.77465427 -5 134 C-5.26361328 135.08152344 -5.52722656 136.16304687 -5.79882812 137.27734375 C-15.58484987 176.96101086 -30.29762169 215.22207892 -48 252 C-48.65500488 253.37575195 -48.65500488 253.37575195 -49.32324219 254.77929688 C-56.1004055 268.97855577 -63.91216889 282.51175738 -72 296 C-72.51804199 296.8652832 -73.03608398 297.73056641 -73.56982422 298.62207031 C-79.14506167 307.90742806 -84.84625788 317.0838116 -91 326 C-91.42861328 326.62165039 -91.85722656 327.24330078 -92.29882812 327.88378906 C-102.57177409 342.73598285 -113.40511128 357.15111365 -125 371 C-125.41427246 371.49918945 -125.82854492 371.99837891 -126.25537109 372.51269531 C-132.7864013 380.38088202 -139.56830108 387.96483977 -146.54882812 395.43554688 C-148.80818139 397.87126957 -151.02387031 400.34642819 -153.25 402.8125 C-157.78346068 407.76048611 -162.45142252 412.55832496 -167.1875 417.3125 C-167.84073242 417.97032471 -168.49396484 418.62814941 -169.16699219 419.3059082 C-173.02872806 423.15548495 -177.00431548 426.81386369 -181.1315918 430.37670898 C-183.74899923 432.65073774 -186.27533535 435.01171097 -188.8125 437.375 C-194.35659827 442.49000206 -200.10905902 447.28724722 -206 452 C-207.11905814 452.91076019 -208.23751888 453.82225476 -209.35546875 454.734375 C-243.79059931 482.7193781 -281.3030001 506.28873393 -321 526 C-322.07878418 526.53995605 -323.15756836 527.07991211 -324.26904297 527.63623047 C-397.47612444 564.15505386 -483.42304703 587.52036949 -575 587 C-575 583.37 -575 579.74 -575 576 C-574.67 576 -574.34 576 -574 576 C-574 577.65 -574 579.3 -574 581 C-570.37 581 -566.74 581 -563 581 C-563 579.02 -563 577.04 -563 575 C-561.78868408 574.89977539 -560.57736816 574.79955078 -559.3293457 574.69628906 C-509.43053104 570.53924584 -460.99069771 563.64828215 -413 549 C-412.00993958 548.69802704 -412.00993958 548.69802704 -410.99987793 548.38995361 C-336.61748656 525.57994102 -266.70542487 487.09437389 -207.68261719 436.43994141 C-205.90097832 434.91525974 -204.1112659 433.40044495 -202.3203125 431.88671875 C-194.25333098 425.05494473 -194.25333098 425.05494473 -186.68383789 417.68286133 C-184.96910745 415.96912536 -183.18393914 414.40128694 -181.33984375 412.828125 C-176.84887454 408.92268852 -172.63313963 404.78092138 -168.4375 400.5625 C-167.36338867 399.49418945 -167.36338867 399.49418945 -166.26757812 398.40429688 C-162.21512697 394.34447092 -158.34155373 390.1870081 -154.59692383 385.84204102 C-152.33378462 383.23152499 -149.9798721 380.71562846 -147.625 378.1875 C-142.50999794 372.64340173 -137.71275278 366.89094098 -133 361 C-132.08923981 359.88094186 -131.17774524 358.76248112 -130.265625 357.64453125 C-102.52407082 323.5150579 -79.6898341 286.27911934 -60 247 C-59.24759033 245.50122314 -59.24759033 245.50122314 -58.47998047 243.97216797 C-49.89588999 226.75493506 -42.66924363 209.03754696 -36 191 C-35.64663574 190.04778564 -35.29327148 189.09557129 -34.92919922 188.11450195 C-29.19471227 172.5799987 -23.96142487 157.08757352 -20 141 C-19.65412842 139.59669434 -19.65412842 139.59669434 -19.30126953 138.16503906 C-17.82241705 132.12031936 -16.38685956 126.0664706 -15 120 C-14.74682007 118.9018396 -14.74682007 118.9018396 -14.48852539 117.78149414 C-12.93907664 110.9568114 -11.67583048 104.08351916 -10.41210938 97.20117188 C-10.15977539 95.85055664 -10.15977539 95.85055664 -9.90234375 94.47265625 C-9.67792603 93.25461304 -9.67792603 93.25461304 -9.44897461 92.01196289 C-9 90 -9 90 -8 88 C-7.73646949 86.62092303 -7.5147792 85.23369596 -7.31640625 83.84375 C-7.19330078 82.98394531 -7.07019531 82.12414063 -6.94335938 81.23828125 C-6.81767578 80.33464844 -6.69199219 79.43101563 -6.5625 78.5 C-6.44068359 77.65824219 -6.31886719 76.81648438 -6.19335938 75.94921875 C-4.00766519 60.47948686 -2.59323615 44.94616051 -1.375 29.375 C-1.23984043 27.67445871 -1.10442474 25.97393776 -0.96875 24.2734375 C-0.64289938 20.18251856 -0.32044913 16.09134545 0 12 C1.65 12 3.3 12 5 12 C5 8.37 5 4.74 5 1 C3.35 1 1.7 1 0 1 C0 0.67 0 0.34 0 0 Z " fill="#144353" transform="translate(1610,1035)"/>
<path d="M0 0 C193.38 0 386.76 0 586 0 C586 0.33 586 0.66 586 1 C394.27 1.33 202.54 1.66 5 2 C4.67 5.3 4.34 8.6 4 12 C6.31 12 8.62 12 11 12 C11.06993164 12.9480249 11.13986328 13.8960498 11.21191406 14.87280273 C17.4544513 98.69679591 36.11617522 177.76207089 142.57617188 359.27197266 C143.86063877 360.8308644 145.12678937 362.40480439 146.390625 363.98046875 C151.28829372 370.08493714 156.46520083 375.85849033 161.8125 381.56640625 C164.31525744 384.23933661 166.75101931 386.96624186 169.18359375 389.703125 C173.84139521 394.88913578 178.69950679 399.85198576 183.63891602 404.76928711 C185.06839717 406.19337492 186.49240511 407.62278044 187.91601562 409.05273438 C193.11657239 414.24605307 198.41653754 419.22347526 204 424 C205.60768373 425.45445517 207.21239715 426.91220895 208.8125 428.375 C214.06180977 433.10576093 219.49623945 437.56997052 225 442 C226.13313697 442.92538408 227.26593449 443.85118393 228.3984375 444.77734375 C260.94301002 471.27111495 296.69423676 493.5556743 334.06982422 512.50927734 C336.48339174 513.7371763 338.88709188 514.98052216 341.28515625 516.23828125 C364.86296617 528.5065357 389.84036281 537.59948504 415 546 C416.15741699 546.38671875 417.31483398 546.7734375 418.50732422 547.171875 C462.54376865 561.69068481 509.18761353 570.48476921 555.45483398 573.31738281 C561.78042548 573.72283613 567.81955121 574.58504498 574 576 C574 577.65 574 579.3 574 581 C577.96 580.67 581.92 580.34 586 580 C586 581.98 586 583.96 586 586 C546.52675066 586.6935427 506.47323385 581.9018517 468 573 C466.55016724 572.66983887 466.55016724 572.66983887 465.07104492 572.33300781 C427.20244261 563.64437998 390.52306798 551.7926847 355 536 C353.865625 535.49597656 352.73125 534.99195313 351.5625 534.47265625 C288.92417713 506.43921041 229.06740801 466.94433905 180.828125 417.79296875 C178.93323884 415.93452271 176.96023406 414.21777988 174.9375 412.5 C171.59277137 409.62288392 168.76192599 406.52948799 165.9140625 403.16796875 C163.70774516 400.66897667 161.37316307 398.34089953 159 396 C154.78314911 391.82113876 150.84731888 387.51675236 147 383 C146.12073263 381.99526951 145.24043777 380.9914377 144.359375 379.98828125 C137.02432167 371.59363855 130.20431568 362.87766259 123.49902344 353.97509766 C122.15381786 352.20266881 120.79128162 350.44681413 119.4140625 348.69921875 C96.48660572 319.50195583 77.69848709 287.07626755 61 254 C60.505 253.0207959 60.01 252.0415918 59.5 251.03271484 C30.90029057 194.02880181 12.82398233 131.81445757 4.36572266 68.68945312 C4.06120867 66.45011666 3.7345136 64.21727639 3.38671875 61.984375 C2.17099129 53.85477765 1.50503606 45.69323692 0.875 37.5 C0.78718262 36.41533447 0.69936523 35.33066895 0.60888672 34.21313477 C-0.21401343 22.74157424 0 11.60535004 0 0 Z " fill="#A7A9AF" transform="translate(427,1035)"/>
<path d="M0 0 C-0.33 3.63 -0.66 7.26 -1 11 C-2.32386719 11.03738281 -3.64773438 11.07476562 -5.01171875 11.11328125 C-101.8365776 14.31998422 -199.28769443 44.87783004 -282 95 C-282.92425781 95.55574707 -283.84851563 96.11149414 -284.80078125 96.68408203 C-296.90277008 103.97394694 -308.58203841 111.68356445 -320 120 C-321.55984767 121.12376478 -323.11974497 122.24746067 -324.6796875 123.37109375 C-334.62703507 130.57769088 -344.29572255 138.06423567 -353.65600586 146.02075195 C-355.33462772 147.4381655 -357.03023098 148.83556337 -358.73657227 150.21948242 C-370.53136954 159.90928539 -381.16460493 170.85988653 -391.92407227 181.66333008 C-394.75204512 184.50273692 -397.58896559 187.3330074 -400.42861652 190.16072941 C-402.65015544 192.3749745 -404.86682746 194.59404313 -407.08214378 196.81451225 C-408.12546165 197.85914375 -409.17020962 198.90234936 -410.21654701 199.94395638 C-416.93833331 206.64197503 -423.10482861 213.56449287 -429 221 C-429.89987075 222.08496032 -430.80388715 223.16651825 -431.71484375 224.2421875 C-437.69824525 231.32973164 -443.44950736 238.57033131 -449 246 C-449.48307617 246.64646484 -449.96615234 247.29292969 -450.46386719 247.95898438 C-476.00927437 282.3351042 -498.45621866 319.80267346 -515.34765625 359.203125 C-516.83420466 362.65698529 -518.438424 366.04592311 -520.0625 369.4375 C-522.73925197 375.17032976 -524.87945391 381.01641906 -526.90844727 387.00170898 C-528.02581312 390.29275259 -529.18822376 393.51789272 -530.58203125 396.703125 C-531.75378323 399.42752905 -532.69508121 402.02903715 -533.5 404.875 C-535.24204231 410.99288668 -537.29873036 417.00342488 -539.39453125 423.0078125 C-556.26752208 471.62781165 -563.26617661 523.79181552 -566 575 C-569.3 575 -572.6 575 -576 575 C-577.68592845 519.36436112 -565.5093927 462.56662648 -548 410 C-547.64470215 408.91396484 -547.2894043 407.82792969 -546.92333984 406.70898438 C-537.77691686 378.82222239 -526.13061353 352.20027847 -513 326 C-512.48969238 324.97680664 -511.97938477 323.95361328 -511.45361328 322.89941406 C-501.04210191 302.13131522 -489.22463861 282.10279068 -476 263 C-475.22970459 261.87464844 -475.22970459 261.87464844 -474.44384766 260.7265625 C-466.05290545 248.47172478 -457.27388465 236.60053778 -448 225 C-446.78376953 223.47826172 -446.78376953 223.47826172 -445.54296875 221.92578125 C-436.30085322 210.51884587 -426.67386604 199.46796085 -416.63769531 188.75537109 C-414.8715292 186.862298 -413.1190146 184.95712706 -411.3671875 183.05078125 C-404.10641035 175.18110833 -396.65624478 167.70167337 -388.69628906 160.54345703 C-386.20384262 158.2755747 -383.76147212 155.95574283 -381.31274414 153.64086914 C-374.75991686 147.45791292 -368.04690683 141.6186076 -361 136 C-359.80957047 135.02020313 -358.62088217 134.03828832 -357.43359375 133.0546875 C-342.91703346 121.05859301 -327.7862533 110.07370129 -312.125 99.625 C-311.56694672 99.25226959 -311.00889343 98.87953918 -310.43392944 98.49551392 C-237.89507163 50.14652494 -155.61442827 18.20342409 -46 2 C-44.95650391 1.86722656 -43.91300781 1.73445313 -42.83789062 1.59765625 C-28.5563755 -0.16158921 -14.37528889 -0.21367069 0 0 Z " fill="#BDD3E5" transform="translate(1003,427)"/>
<path d="M0 0 C7.37781467 5.08542225 13.23195881 12.42032483 16 21 C17.12446085 31.35687629 16.28236319 39.42391987 9.63232422 47.70263672 C6.36990474 51.62807402 2.9790208 55.43257819 -0.43115234 59.22949219 C-2.54680228 61.61708842 -4.55960823 64.07993945 -6.5625 66.5625 C-9.97136988 70.77198519 -13.46399068 74.89760971 -17 79 C-20.55457492 83.124643 -24.06792298 87.27207904 -27.5 91.5 C-30.93208013 95.7279248 -34.44551171 99.8752789 -38 104 C-42.31031374 109.00266845 -46.53464136 114.06295996 -50.6953125 119.19140625 C-53.87090963 123.06132885 -57.11490114 126.87203126 -60.37133789 130.67407227 C-62.39980326 133.05345514 -64.26278015 135.39417023 -66 138 C-69.44779086 136.49993609 -71.82360533 134.49590738 -74.5625 131.9375 C-78.94721344 127.91817934 -83.46001815 124.12475259 -88.08203125 120.3828125 C-91.25417365 117.79244186 -94.38044573 115.15318643 -97.5 112.5 C-103.27409931 107.59253297 -109.11603885 102.77555965 -115 98 C-110.65786299 91.92100818 -105.86737209 86.32580477 -100.95678711 80.70727539 C-96.95523878 76.12246401 -93.0667923 71.46195547 -89.234375 66.734375 C-84.43661929 60.86299564 -79.49430195 55.11122698 -74.58398438 49.33398438 C-69.8648039 43.77931966 -65.15924951 38.21940075 -60.5625 32.5625 C-56.58925617 27.67783107 -52.50431761 22.89825309 -48.38012695 18.14111328 C-45.37454711 14.65954969 -42.52833706 11.10555993 -39.75 7.4375 C-29.96365058 -4.92741037 -13.73420112 -7.84148645 0 0 Z " fill="#818181" transform="translate(515,469)"/>
<path d="M0 0 C7.9345112 4.50152784 12.69503922 10.48382843 16.7265625 18.546875 C16.90339186 20.72970306 16.99418563 22.9198561 17.0390625 25.109375 C17.09513672 26.87474609 17.09513672 26.87474609 17.15234375 28.67578125 C16.2322805 37.04075994 12.12161483 42.87614859 6.5390625 48.921875 C5.36989394 50.22809374 4.20193001 51.53539168 3.03515625 52.84375 C2.46780762 53.47474609 1.90045898 54.10574219 1.31591797 54.75585938 C-0.82734282 57.17106078 -2.86849527 59.66106038 -4.8984375 62.171875 C-10.38790408 68.94355276 -16.04431163 75.57108967 -21.68945312 82.21289062 C-26.4086336 87.76755534 -31.11418799 93.32747425 -35.7109375 98.984375 C-39.65999083 103.83768383 -43.72109645 108.58534589 -47.80541992 113.32446289 C-52.39023544 118.6555578 -56.85362933 124.07792045 -61.2734375 129.546875 C-65.85427929 127.05615114 -69.52398548 123.86088414 -73.3984375 120.421875 C-78.68490896 115.78288389 -84.02741393 111.24459783 -89.49609375 106.8203125 C-93.39058313 103.63241824 -97.21734862 100.36602529 -101.03564453 97.08740234 C-103.97184242 94.55207209 -103.97184242 94.55207209 -107.2734375 92.546875 C-105.98419769 89.75864263 -104.58724219 87.55690898 -102.55078125 85.26171875 C-102.01702881 84.65448975 -101.48327637 84.04726074 -100.93334961 83.42163086 C-100.08075562 82.46268921 -100.08075562 82.46268921 -99.2109375 81.484375 C-98.02224628 80.13125387 -96.83475068 78.7770815 -95.6484375 77.421875 C-95.06835938 76.75929688 -94.48828125 76.09671875 -93.890625 75.4140625 C-91.78029851 72.97750196 -89.73901436 70.48964642 -87.7109375 67.984375 C-84.30206603 63.77488785 -80.80940386 59.64930406 -77.2734375 55.546875 C-72.95165567 50.53100525 -68.71864398 45.4551201 -64.54296875 40.31640625 C-59.72182918 34.43312234 -54.77204918 28.65622285 -49.84130859 22.86474609 C-48.89071823 21.74810242 -47.94076201 20.63091858 -46.99145508 19.51318359 C-46.05966213 18.41678523 -45.12592469 17.32203626 -44.19018555 16.22900391 C-41.38230927 12.93041615 -38.78386971 9.53428312 -36.2109375 6.046875 C-26.78840357 -5.66453356 -13.03281873 -6.12095444 0 0 Z " fill="#949494" transform="translate(429.2734375,409.453125)"/>
<path d="M0 0 C14.31480059 5.18035616 24.64673526 18.8046576 31.47265625 31.8046875 C38.64317011 47.2327902 38.08284655 63.27567935 32.375 79.0625 C25.64000972 96.49878059 13.25470364 110.56443482 1.09375 124.44140625 C-2.26370334 128.2818509 -5.48131861 132.22738977 -8.69140625 136.19140625 C-11.41344185 139.50298593 -14.20143139 142.7531 -17 146 C-21.32178183 151.01586975 -25.55479352 156.0917549 -29.73046875 161.23046875 C-34.54688939 167.10799411 -39.494943 172.87611914 -44.41601562 178.66601562 C-49.1351961 184.22068034 -53.84075049 189.78059925 -58.4375 195.4375 C-62.39443418 200.30049424 -66.46435942 205.05700203 -70.55615234 209.80615234 C-74.35163367 214.22031766 -78.05277913 218.70333198 -81.72265625 223.22265625 C-84.74419944 226.90759143 -87.83035951 230.53568321 -90.91650391 234.16650391 C-93.79557843 237.55973475 -96.63211492 240.9827672 -99.4375 244.4375 C-100.95591596 246.29364682 -102.47698864 248.14762195 -104 250 C-104.74612549 250.90975586 -104.74612549 250.90975586 -105.50732422 251.83789062 C-107.12031648 253.79593145 -108.74614799 255.74264236 -110.375 257.6875 C-111.14348267 258.62517212 -111.14348267 258.62517212 -111.92749023 259.58178711 C-113.21952378 261.11228394 -114.60376342 262.56393084 -116 264 C-120.38968456 264 -121.76905739 261.87194899 -125 259 C-123.72395841 256.24812688 -122.35527063 254.05483035 -120.34765625 251.78515625 C-119.82397461 251.18799805 -119.30029297 250.59083984 -118.76074219 249.97558594 C-118.20032227 249.34426758 -117.63990234 248.71294922 -117.0625 248.0625 C-115.88089746 246.71538115 -114.69991831 245.36771527 -113.51953125 244.01953125 C-112.92736816 243.34486816 -112.33520508 242.67020508 -111.72509766 241.97509766 C-109.20541292 239.09026189 -106.72220078 236.17555565 -104.25 233.25 C-103.79882812 232.71632813 -103.34765625 232.18265625 -102.8828125 231.6328125 C-100.0761997 228.30251685 -97.31012198 224.94153242 -94.5625 221.5625 C-90.60491812 216.69870975 -86.53457554 211.94118769 -82.44165039 207.19165039 C-79.41054711 203.66701081 -76.43014684 200.10960118 -73.5 196.5 C-70.06791987 192.2720752 -66.55448829 188.1247211 -63 184 C-58.67827137 178.98408311 -54.44520804 173.90824701 -50.26953125 168.76953125 C-45.45311061 162.89200589 -40.505057 157.12388086 -35.58398438 151.33398438 C-30.8648039 145.77931966 -26.15924951 140.21940075 -21.5625 134.5625 C-18.15523063 130.37174088 -14.65854577 126.27120899 -11.125 122.1875 C-5.62470244 115.81090166 -0.35033897 109.28430124 4.77001953 102.59912109 C5.89548025 101.13588812 7.03866875 99.68633488 8.18359375 98.23828125 C17.07571219 86.64212679 25.2047999 71.85153133 26 57 C26.06445312 55.79988281 26.12890625 54.59976563 26.1953125 53.36328125 C26.83723893 35.59544468 19.85012081 22.14870134 8.5625 8.7265625 C6.64655122 6.68794627 4.83436713 4.96849597 2.6875 3.2109375 C1.800625 2.48132813 0.91375 1.75171875 0 1 C0 0.67 0 0.34 0 0 Z " fill="#383838" transform="translate(565,425)"/>
<path d="M0 0 C0.495 0.99 0.495 0.99 1 2 C0.24976563 2.02578125 -0.50046875 2.0515625 -1.2734375 2.078125 C-11.06814045 2.62090451 -20.06765545 4.55740674 -27 12 C-29.22286799 14.59627466 -31.37700459 17.23696036 -33.51171875 19.90625 C-36.12199536 23.15168026 -38.79887811 26.3303641 -41.5 29.5 C-44.855019 33.44602563 -48.17223263 37.41643838 -51.4375 41.4375 C-55.39443418 46.30049424 -59.46435942 51.05700203 -63.55615234 55.80615234 C-67.35401501 60.22308718 -71.05680041 64.70953997 -74.73046875 69.23046875 C-77.2492905 72.30421165 -79.80544745 75.34366756 -82.375 78.375 C-82.83148926 78.91398926 -83.28797852 79.45297852 -83.75830078 80.00830078 C-86.1654506 82.84713561 -88.58068539 85.67877769 -91.00390625 88.50390625 C-91.4952002 89.07898926 -91.98649414 89.65407227 -92.49267578 90.24658203 C-93.42451418 91.33713843 -94.35890062 92.42552523 -95.29638672 93.51123047 C-98.15658676 96.86378657 -100.62381222 100.30064501 -103 104 C-96.89314532 109.19422457 -90.7866974 114.3838233 -84.5625 119.4375 C-80.1389702 123.05081164 -75.74096 126.6924173 -71.375 130.375 C-70.75826416 130.88732178 -70.14152832 131.39964355 -69.50610352 131.92749023 C-65.11485184 135.65544449 -65.11485184 135.65544449 -64 139 C-67.44779086 137.49993609 -69.82360533 135.49590738 -72.5625 132.9375 C-76.94721344 128.91817934 -81.46001815 125.12475259 -86.08203125 121.3828125 C-89.25417365 118.79244186 -92.38044573 116.15318643 -95.5 113.5 C-101.27409931 108.59253297 -107.11603885 103.77555965 -113 99 C-108.65786299 92.92100818 -103.86737209 87.32580477 -98.95678711 81.70727539 C-94.95523878 77.12246401 -91.0667923 72.46195547 -87.234375 67.734375 C-82.43661929 61.86299564 -77.49430195 56.11122698 -72.58398438 50.33398438 C-67.8648039 44.77931966 -63.15924951 39.21940075 -58.5625 33.5625 C-54.58925617 28.67783107 -50.50431761 23.89825309 -46.38012695 19.14111328 C-43.37454711 15.65954969 -40.52833706 12.10555993 -37.75 8.4375 C-28.4943797 -3.25684183 -13.45329438 -6.59972932 0 0 Z " fill="#373737" transform="translate(513,468)"/>
<path d="M0 0 C0 0.33 0 0.66 0 1 C-1.03898437 0.94199219 -2.07796875 0.88398438 -3.1484375 0.82421875 C-11.69749184 0.48118846 -19.08249926 0.29668216 -26 6 C-30.36376582 10.35634697 -34.17241747 15.17665633 -38 20 C-39.51870151 21.85591319 -41.03934762 23.7102379 -42.5625 25.5625 C-43.27792969 26.44292969 -43.99335938 27.32335937 -44.73046875 28.23046875 C-49.54688939 34.10799411 -54.494943 39.87611914 -59.41601562 45.66601562 C-64.1351961 51.22068034 -68.84075049 56.78059925 -73.4375 62.4375 C-76.89274592 66.68392924 -80.42709945 70.85285321 -84 75 C-92.93718596 85.16389766 -92.93718596 85.16389766 -101 96 C-100.46246094 96.22816406 -99.92492187 96.45632813 -99.37109375 96.69140625 C-96.27255615 98.40147231 -93.72200578 100.62952889 -91.0625 102.9375 C-89.90505294 103.92981001 -88.74749766 104.92199381 -87.58984375 105.9140625 C-86.99800293 106.42356445 -86.40616211 106.93306641 -85.79638672 107.45800781 C-82.92043419 109.92668357 -80.02171768 112.3682623 -77.125 114.8125 C-72.73513617 118.5244884 -68.35772979 122.25032553 -64 126 C-64.33 126.66 -64.66 127.32 -65 128 C-71.07868823 123.08742747 -77.07987468 118.10170481 -83 113 C-91.80612085 105.4185159 -100.78296314 98.07777399 -110 91 C-108.71076019 88.21176763 -107.31380469 86.01003398 -105.27734375 83.71484375 C-104.74359131 83.10761475 -104.20983887 82.50038574 -103.65991211 81.87475586 C-102.80731812 80.91581421 -102.80731812 80.91581421 -101.9375 79.9375 C-100.74880878 78.58437887 -99.56131318 77.2302065 -98.375 75.875 C-97.79492188 75.21242188 -97.21484375 74.54984375 -96.6171875 73.8671875 C-94.50686101 71.43062696 -92.46557686 68.94277142 -90.4375 66.4375 C-87.02862853 62.22801285 -83.53596636 58.10242906 -80 54 C-75.67821817 48.98413025 -71.44520648 43.9082451 -67.26953125 38.76953125 C-62.44839168 32.88624734 -57.49861168 27.10934785 -52.56787109 21.31787109 C-51.61728073 20.20122742 -50.66732451 19.08404358 -49.71801758 17.96630859 C-48.78622463 16.86991023 -47.85248719 15.77516126 -46.91674805 14.68212891 C-44.10887177 11.38354115 -41.51043221 7.98740812 -38.9375 4.5 C-28.42253053 -8.56921307 -13.80432437 -6.96434383 0 0 Z " fill="#373737" transform="translate(432,411)"/>
<path d="M0 0 C0.33 0 0.66 0 1 0 C1 189.75 1 379.5 1 575 C144.22 574.67 287.44 574.34 435 574 C435 573.67 435 573.34 435 573 C481.86 573 528.72 573 577 573 C577 573.66 577 574.32 577 575 C580.3 575 583.6 575 587 575 C587 575.33 587 575.66 587 576 C393.29 576 199.58 576 0 576 C0 385.92 0 195.84 0 0 Z " fill="#888888" transform="translate(1034,438)"/>
<path d="M0 0 C2.87365014 1.43682507 3.00407955 3.15830409 4.11279297 6.14746094 C4.52936661 7.25971039 4.94594025 8.37195984 5.37513733 9.51791382 C5.82626389 10.74434601 6.27739044 11.9707782 6.7421875 13.234375 C7.22176056 14.52234579 7.70199433 15.81007074 8.18284607 17.0975647 C9.2138172 19.86195473 10.24039201 22.62792258 11.26358032 25.39520264 C12.88495273 29.77997816 14.51610212 34.16107296 16.14916992 38.54150391 C17.81796457 43.0189402 19.48629601 47.49654408 21.15135193 51.97537231 C25.76537001 64.38591347 30.4204061 76.78059495 35.10028076 89.16647339 C36.30955224 92.36719782 37.51742675 95.56844675 38.72509766 98.76977539 C42.95067402 109.96524808 47.19803086 121.15220932 51.46484375 132.33203125 C52.35963087 134.6785437 53.25440644 137.02506056 54.14916992 139.37158203 C55.84984166 143.83110015 57.55506044 148.28884329 59.26293945 152.74560547 C60.02439488 154.7405051 60.78571453 156.73545656 61.546875 158.73046875 C61.89890488 159.64536575 62.25093475 160.56026276 62.6136322 161.50288391 C62.9303035 162.33490829 63.24697479 163.16693268 63.57324219 164.02416992 C63.85045105 164.74811447 64.12765991 165.47205902 64.41326904 166.21794128 C65 168 65 168 65 170 C92.225 169.505 92.225 169.505 120 169 C121.98 163.72 123.96 158.44 126 153 C127.32 152.01 128.64 151.02 130 150 C128 159 128 159 120 180 C101.85 180 83.7 180 65 180 C61.85617406 172.45481775 58.77178728 164.93577675 55.8828125 157.296875 C55.50944763 156.31414612 55.13608276 155.33141724 54.75140381 154.31890869 C53.54058786 151.13003265 52.33269724 147.94005833 51.125 144.75 C50.26717006 142.48825083 49.40925873 140.22653252 48.55126953 137.96484375 C43.34421757 124.23052422 38.17050606 110.48397317 33.0246582 96.72662354 C26.55668945 79.43815675 20.02587688 62.17352055 13.49015045 44.9105835 C12.62687911 42.62996428 11.76403268 40.34918473 10.90130615 38.06835938 C9.53795918 34.46421268 8.1735067 30.86048648 6.80817413 27.25709152 C6.29813087 25.91052804 5.78843774 24.56383188 5.27910614 23.21699905 C4.57720909 21.36124653 3.87384827 19.50604783 3.17041016 17.65087891 C2.77375153 16.60348541 2.3770929 15.55609192 1.96841431 14.47695923 C1.06252774 12.04936765 1.06252774 12.04936765 0 10 C-0.06996014 8.29297265 -0.08440154 6.58331997 -0.0625 4.875 C-0.05347656 3.96492187 -0.04445313 3.05484375 -0.03515625 2.1171875 C-0.02355469 1.41851562 -0.01195312 0.71984375 0 0 Z " fill="#0B0B0B" transform="translate(930,191)"/>
<path d="M0 0 C5.12024957 1.33203485 8.54426321 3.73429785 12.4375 7.1875 C13.01024658 7.68797852 13.58299316 8.18845703 14.1730957 8.70410156 C15.29766483 9.69327481 16.41789319 10.68741021 17.53320312 11.68701172 C18.69154198 12.72388694 19.86635663 13.74235521 21.046875 14.75390625 C36.88219816 29.19421284 42.0428353 47.47133603 43 68 C41.04669132 69.03041513 39.08718472 70.0490893 37.125 71.0625 C36.03445313 71.63097656 34.94390625 72.19945312 33.8203125 72.78515625 C32.88960938 73.18605469 31.95890625 73.58695312 31 74 C30.34 73.67 29.68 73.34 29 73 C29.32226562 71.90429688 29.64453125 70.80859375 29.9765625 69.6796875 C31.26585143 64.49286672 31.36767773 59.44829264 31.375 54.125 C31.39949219 53.19558594 31.42398437 52.26617187 31.44921875 51.30859375 C31.49223253 41.02829963 27.53445879 33.23027917 22.0625 24.75 C21.64548828 24.08226562 21.22847656 23.41453125 20.79882812 22.7265625 C16.69294457 16.25360852 12.33644883 11.02045989 6.25 6.25 C1.10132159 2.20264317 1.10132159 2.20264317 0 0 Z " fill="#404040" transform="translate(461,349)"/>
<path d="M0 0 C0.33 0 0.66 0 1 0 C1.86097026 8.27081007 -0.85939859 14.78910305 -3.95230103 22.31515503 C-5.58561994 26.29330082 -7.16474757 30.29312178 -8.75390625 34.2890625 C-9.09610703 35.14529709 -9.4383078 36.00153168 -9.7908783 36.88371277 C-13.95915676 47.34089467 -17.87978277 57.89004366 -21.8125 68.4375 C-23.33251112 72.50551586 -24.85380305 76.57305245 -26.375 80.640625 C-26.75393906 81.65444244 -27.13287811 82.66825989 -27.52330017 83.71279907 C-31.76147184 95.04709842 -36.03480022 106.36807184 -40.3125 117.6875 C-40.66712311 118.62649139 -41.02174622 119.56548279 -41.38711548 120.53292847 C-45.22724264 130.70062592 -49.08012658 140.86271692 -53 151 C-53.99 151 -54.98 151 -56 151 C-55.37122293 147.45595221 -54.44524649 144.22658084 -53.18432617 140.85742188 C-52.80773865 139.8456337 -52.43115112 138.83384552 -52.04315186 137.79139709 C-51.63059143 136.69492355 -51.21803101 135.59845001 -50.79296875 134.46875 C-50.36034729 133.31003891 -49.92772583 132.15132782 -49.48199463 130.95750427 C-48.30061752 127.79607533 -47.11580493 124.63597697 -45.9292717 121.47648239 C-44.93485817 118.82682504 -43.94318439 116.17614602 -42.95153141 113.52545452 C-39.64247324 104.68058383 -36.32267983 95.83976097 -33 87 C-32.52709754 85.74159827 -32.0541971 84.48319578 -31.58129883 83.22479248 C-21.14160866 55.44984913 -10.64154931 27.69828009 0 0 Z " fill="#111111" transform="translate(1115,188)"/>
<path d="M0 0 C16.5 0 33 0 50 0 C50 2.97 50 5.94 50 9 C33.5 9 17 9 0 9 C0 6.03 0 3.06 0 0 Z " fill="#000000" transform="translate(1116,362)"/>
<path d="M0 0 C16.17 0 32.34 0 49 0 C49 2.97 49 5.94 49 9 C32.83 9 16.66 9 0 9 C0 6.03 0 3.06 0 0 Z " fill="#000000" transform="translate(879,362)"/>
<path d="M0 0 C0.66 0.33 1.32 0.66 2 1 C-11.53 14.53 -25.06 28.06 -39 42 C-39.66 41.67 -40.32 41.34 -41 41 C-39.82244141 39.83984375 -39.82244141 39.83984375 -38.62109375 38.65625 C-37.55975756 37.60430616 -36.49856757 36.5522148 -35.4375 35.5 C-34.92380859 34.9946875 -34.41011719 34.489375 -33.88085938 33.96875 C-31.00434437 31.11010155 -28.27242761 28.1884013 -25.63671875 25.10546875 C-21.82547681 20.69989034 -17.65174595 16.76055611 -13.375 12.8125 C-11.9029907 11.44471513 -10.43162035 10.07624226 -8.9609375 8.70703125 C-8.27870117 8.0723291 -7.59646484 7.43762695 -6.89355469 6.78369141 C-4.54391365 4.5703756 -2.26214535 2.30238114 0 0 Z " fill="#B6CBD9" transform="translate(622,580)"/>
<path d="M0 0 C5.05231166 1.52721968 8.28834993 4.60558997 12.125 8.0625 C13.45460941 9.23954735 14.78534773 10.41532066 16.1171875 11.58984375 C16.77170898 12.16847168 17.42623047 12.74709961 18.10058594 13.34326172 C21.59663183 16.39264056 25.21120772 19.29081832 28.828125 22.1953125 C30.67358438 23.72876975 32.4253142 25.19013385 34 27 C34 27.66 34 28.32 34 29 C30.55220914 27.49993609 28.17639467 25.49590738 25.4375 22.9375 C17.841103 15.9778598 9.85891498 9.5417181 1.58203125 3.41015625 C1.05996094 2.94480469 0.53789062 2.47945312 0 2 C0 1.34 0 0.68 0 0 Z " fill="#444444" transform="translate(415,578)"/>
<path d="M0 0 C4.03805866 1.36266644 6.54368118 3.1409151 9.625 6.0625 C14.06881305 10.18228501 18.66207375 14.03623039 23.37109375 17.84765625 C26.99150687 20.81176863 30.5070741 23.88739268 34 27 C33.67 27.66 33.34 28.32 33 29 C26.23406679 23.53202133 19.58969475 17.95005407 13.01464844 12.25537109 C9.80469033 9.49158823 6.55905621 6.86089202 3.125 4.375 C2.09375 3.59125 1.0625 2.8075 0 2 C0 1.34 0 0.68 0 0 Z " fill="#444444" transform="translate(334,510)"/>
<path d="M0 0 C1.25955231 3.77865693 0.48087189 5.03411786 -0.9375 8.6875 C-1.31777344 9.68136719 -1.69804688 10.67523438 -2.08984375 11.69921875 C-2.39019531 12.45847656 -2.69054688 13.21773438 -3 14 C-3.99 14 -4.98 14 -6 14 C-5.34852929 8.52764604 -3.96510537 3.96510537 0 0 Z " fill="#0F0F0F" transform="translate(1059,341)"/>
<path d="M0 0 C4.43458973 1.3937282 6.87378374 3.60582235 10 7 C9.67 7.66 9.34 8.32 9 9 C7.49428343 7.88266271 5.99555708 6.75589965 4.5 5.625 C3.6646875 4.99851562 2.829375 4.37203125 1.96875 3.7265625 C1.3190625 3.15679688 0.669375 2.58703125 0 2 C0 1.34 0 0.68 0 0 Z " fill="#464646" transform="translate(358,530)"/>
<path d="M0 0 C4.99275057 1.27721526 7.57611908 3.17330957 11 7 C10.01 7.33 9.02 7.66 8 8 C5.95703125 6.6015625 5.95703125 6.6015625 3.8125 4.625 C3.09707031 3.97789062 2.38164062 3.33078125 1.64453125 2.6640625 C0 1 0 1 0 0 Z " fill="#5A5A5A" transform="translate(461,349)"/>
<path d="M0 0 C3.91841827 1.30613942 6.32640809 2.83129848 9 6 C9 6.66 9 7.32 9 8 C4.7257442 6.4169423 2.73468206 3.49431596 0 0 Z " fill="#4A4A4A" transform="translate(440,599)"/>
</svg>
