<?xml version="1.0" encoding="UTF-8"?>
<svg version="1.1" xmlns="http://www.w3.org/2000/svg" width="320" height="320">
<path d="M0 0 C2.02753344 -0.00441953 4.05500534 -0.01348669 6.08251953 -0.02319717 C27.29837631 -0.08653835 48.10188769 1.17818101 68.87231445 5.7455101 C70.3430542 6.06298203 70.3430542 6.06298203 71.84350586 6.38686752 C96.20882536 11.79985147 128.23128046 20.31845712 142.62231445 42.7455101 C146.72749896 49.77278775 147.01778838 59.08649554 144.97387695 66.9173851 C144.02349429 68.94811728 142.96190175 70.6361984 141.62231445 72.4330101 C141.17114258 73.0723851 140.7199707 73.7117601 140.25512695 74.3705101 C119.94294877 100.24074699 77.83168895 107.6914567 47.39575195 111.75722885 C45.47145473 111.9840383 43.54694411 112.2090391 41.62231445 112.4330101 C40.98234528 112.51718185 40.3423761 112.60135361 39.68301392 112.68807602 C25.21672306 114.57856307 10.93428706 114.59251416 -3.63525391 114.2665062 C-7.46528963 114.18245921 -11.29523798 114.12097093 -15.12573242 114.06191635 C-17.59646105 114.01506538 -20.06716581 113.96693419 -22.5378418 113.9173851 C-23.66513199 113.89955978 -24.79242218 113.88173447 -25.95387268 113.86336899 C-32.94979565 113.69217686 -39.53183327 112.85725911 -46.37768555 111.4330101 C-48.24805177 111.10719123 -50.11896358 110.78444424 -51.9909668 110.46816635 C-80.81974311 105.55737298 -80.81974311 105.55737298 -91.37768555 101.4330101 C-92.14266357 101.14289047 -92.9076416 100.85277084 -93.69580078 100.55385971 C-111.78838786 93.68207686 -132.3386432 85.51109479 -141.5378418 67.1126976 C-143.79607948 59.90734386 -143.54631643 50.86621141 -140.37768555 43.9955101 C-127.97707551 23.17897359 -99.55129037 13.96689347 -77.43237305 8.0892601 C-71.78608748 6.66415585 -66.0970945 5.52185727 -60.37768555 4.4330101 C-59.38559082 4.23401108 -58.39349609 4.03501205 -57.37133789 3.82998276 C-38.37610361 0.18497552 -19.27164699 0.03449959 0 0 Z " fill="#465F96" transform="translate(158.377685546875,102.56698989868164)"/>
<path d="M0 0 C-2.25785958 2.25785958 -3.09563046 2.40386344 -6.1484375 2.96484375 C-6.98310547 3.12339844 -7.81777344 3.28195313 -8.67773438 3.4453125 C-9.56783203 3.60773438 -10.45792969 3.77015625 -11.375 3.9375 C-13.20610927 4.2883868 -15.03684205 4.64124417 -16.8671875 4.99609375 C-17.75374023 5.16737793 -18.64029297 5.33866211 -19.55371094 5.51513672 C-24.42519246 6.48068186 -29.22094564 7.65330116 -34 9 C-34.93328125 9.26167969 -35.8665625 9.52335938 -36.828125 9.79296875 C-47.88706622 13.17866065 -58.49820358 18.41051889 -68 25 C-63.86736677 22.10226157 -59.88695907 21.18514901 -54.98828125 20.4296875 C-53.83588203 20.23984787 -53.83588203 20.23984787 -52.66020203 20.0461731 C-51.03802069 19.78089212 -49.41500909 19.52064485 -47.79125977 19.26513672 C-45.33621796 18.87873301 -42.88388539 18.4779555 -40.43164062 18.07421875 C-32.63566062 16.80460047 -24.87624859 15.65435905 -17 15 C-17.33 15.99 -17.66 16.98 -18 18 C-18.39409225 22.89407586 -18.57490477 27.66331828 -16 32 C-11.40997435 33.53000855 -6.68893935 33.88564272 -2.03125 32.3515625 C2.58326212 29.98358918 5.57235284 26.55056874 8 22 C8.85852776 19.23570364 8.85852776 19.23570364 9 17 C8.34 17 7.68 17 7 17 C6.773125 17.5775 6.54625 18.155 6.3125 18.75 C4.5609201 21.7527084 2.98093817 23.18551589 0 25 C-2.8060044 25.3864874 -5.14094105 25.23825491 -8 25 C-9 24 -9 24 -9.375 20.75 C-9 17 -9 17 -7 14.3125 C2.94811287 6.64416299 12.94059804 6.93105685 24.9921875 8.4609375 C28.00947781 8.91650212 31.00507793 9.41664127 34 10 C34 10.66 34 11.32 34 12 C32.42578125 13.33203125 32.42578125 13.33203125 30.3125 14.8125 C26.23310196 17.78258804 22.57029577 20.81733262 19.59765625 24.94921875 C14.54888753 31.62741894 8.92834036 33.03731994 1 35 C0.01 35.495 0.01 35.495 -1 36 C-1.33 36.99 -1.66 37.98 -2 39 C-1.113125 38.505 -0.22625 38.01 0.6875 37.5 C3.87586238 36.05621326 5.58187546 35.69840078 9 36 C7.50298675 40.89267744 4.69541201 43.87811567 1.25 47.5 C0.48042969 48.33337891 0.48042969 48.33337891 -0.3046875 49.18359375 C-10.77073941 60.35965421 -10.77073941 60.35965421 -17.21875 61.3359375 C-20.92643869 61.39942532 -23.31131521 61.40313256 -26.5625 59.5 C-28.57046162 56.00789284 -28.7628578 52.87593407 -28 49 C-25.64842388 44.99361106 -23.41832494 43.35004373 -19 42 C-19.33 41.01 -19.66 40.02 -20 39 C-25.92228163 39.3553369 -28.85020267 40.75588909 -33 45 C-35.9870578 49.4805867 -36.89199265 53.69759927 -36 59 C-34.63831354 63.09238027 -33.23120076 66.07340427 -29.7421875 68.69921875 C-23.99769344 71.42417106 -17.16543468 70.98509378 -11.17578125 69.12109375 C-1.85029536 64.79395405 3.75145318 57.41320889 9.1875 48.9375 C9.69474609 48.16083984 10.20199219 47.38417969 10.72460938 46.58398438 C11.47000977 45.44219727 11.47000977 45.44219727 12.23046875 44.27734375 C12.7112085 43.54749268 13.19194824 42.8176416 13.68725586 42.06567383 C14.83415872 40.26096022 15.8725897 38.38823307 16.890625 36.5078125 C19 34 19 34 22.56640625 33.08984375 C23.88511719 33.03957031 25.20382813 32.98929688 26.5625 32.9375 C27.57086914 32.86885742 27.57086914 32.86885742 28.59960938 32.79882812 C33.48711017 32.5901265 33.48711017 32.5901265 35.828125 34.4609375 C36.40820312 35.22277344 36.40820312 35.22277344 37 36 C39.10332891 36.71447643 39.10332891 36.71447643 41 37 C41 37.66 41 38.32 41 39 C40.02160156 39.14695312 40.02160156 39.14695312 39.0234375 39.296875 C31.38695789 40.60341133 26.2562561 42.84900445 21.2890625 49.08203125 C19.04105407 52.42679531 17.24580663 56.01640419 15.4296875 59.609375 C14 62 14 62 11 64 C11 64.99 11 65.98 11 67 C13.92879371 66.37240135 16.36095629 65.41377341 19 64 C19.45375 64.78375 19.9075 65.5675 20.375 66.375 C21.88428742 69.03698031 21.88428742 69.03698031 24 71 C25.93204678 71.39603479 25.93204678 71.39603479 28.125 71.375 C28.84945312 71.40335937 29.57390625 71.43171875 30.3203125 71.4609375 C38.407998 70.06976128 42.83702298 65.49183554 47.5625 59.125 C55.63472091 48.44787836 55.63472091 48.44787836 61 45 C61.99 45 62.98 45 64 45 C63.50959527 50.4705493 61.49377266 54.03692034 58.625 58.5625 C58.22539062 59.20896484 57.82578125 59.85542969 57.4140625 60.52148438 C56.63817628 61.77591884 55.85870161 63.02814281 55.07519531 64.27783203 C53.68721146 66.50100144 52.3401223 68.74772995 51 71 C54.06678929 71.0032695 56.14891574 70.97772097 59 70 C61.35144844 67.62288073 62.81413648 64.87603887 64.375 61.9375 C65.21030957 60.44333684 66.05116159 58.95225398 66.8984375 57.46484375 C67.25599121 56.800896 67.61354492 56.13694824 67.98193359 55.45288086 C68.48587646 54.73370483 68.48587646 54.73370483 69 54 C69.66 54 70.32 54 71 54 C71.66 56.31 72.32 58.62 73 61 C77.82360189 61.19294408 81.49646738 60.75747614 86 59 C86.13277344 59.61488281 86.26554688 60.22976562 86.40234375 60.86328125 C86.66724609 62.07564453 86.66724609 62.07564453 86.9375 63.3125 C87.11152344 64.11300781 87.28554687 64.91351563 87.46484375 65.73828125 C87.99886159 68.145401 87.99886159 68.145401 89 71 C95.78736062 71.48289522 99.63971779 71.28822577 105 67 C105.66 67 106.32 67 107 67 C108.625 69.5 108.625 69.5 110 72 C115.92956622 71.5910644 119.21388405 70.7677934 124 67 C124.60070312 66.54238281 125.20140625 66.08476562 125.8203125 65.61328125 C129.74418984 62.4856719 132.07634168 59.75256761 134 55 C129.42464355 57.55349999 126.00859301 60.71343464 122.28125 64.35546875 C119.60631168 66.28380613 118.22405266 66.34624509 115 66 C115.39614067 59.96127033 118.20370585 55.97329708 121.4375 51.0625 C121.9722998 50.23508301 122.50709961 49.40766602 123.05810547 48.55517578 C124.69520284 46.02996399 126.34684572 43.51472012 128 41 C128.98346296 39.48593037 129.96655657 37.97162073 130.94921875 36.45703125 C131.83998215 35.09559208 132.73184698 33.73487269 133.625 32.375 C134.03806396 31.74215088 134.45112793 31.10930176 134.87670898 30.45727539 C137.76536145 26.11731928 137.76536145 26.11731928 140 25 C140 26.65 140 28.3 140 30 C145.00629693 31.49245402 150.00188161 32.69347408 155.12109375 33.7265625 C155.86585464 33.87910492 156.61061554 34.03164734 157.37794495 34.18881226 C159.73061886 34.67008631 162.08403635 35.14760444 164.4375 35.625 C166.04367066 35.95287589 167.64979098 36.28099853 169.25585938 36.609375 C173.16999686 37.40910265 177.08480522 38.20546538 181 39 C181.15940857 45.21693437 181.15641659 47.99098513 177 53 C176.56042969 53.54269531 176.12085938 54.08539063 175.66796875 54.64453125 C155.95843614 76.7491463 116.22048416 80.81165632 89 84 C88.01032227 84.11859375 87.02064453 84.2371875 86.00097656 84.359375 C62.27503067 87.10358079 38.36923592 86.71558955 14.63769531 84.26318359 C11.89728508 83.98975132 9.15499031 83.76716366 6.41015625 83.54296875 C1.40168699 83.08886163 -3.45545303 82.27914077 -8.375 81.25 C-9.21933594 81.075896 -10.06367187 80.90179199 -10.93359375 80.72241211 C-13.62500107 80.15980294 -16.31284277 79.58255414 -19 79 C-19.91297852 78.8035791 -20.82595703 78.6071582 -21.76660156 78.40478516 C-32.23207278 76.12479433 -42.35914135 73.80747118 -52 69 C-52.61101563 68.69658691 -53.22203125 68.39317383 -53.8515625 68.08056641 C-55.86810621 67.0698233 -57.87351131 66.04021856 -59.875 65 C-60.4942334 64.67990967 -61.1134668 64.35981934 -61.75146484 64.0300293 C-67.70880155 60.83358666 -72.61957259 57.16821766 -76.3125 51.375 C-76.80363281 50.61960938 -77.29476562 49.86421875 -77.80078125 49.0859375 C-80.41430814 44.53993307 -80.81777953 40.10909785 -80 35 C-73.95126563 20.87034778 -58.31946483 14.44353615 -45 9 C-39.75741837 6.99403848 -34.43149181 5.40531516 -29 4 C-28.25298828 3.80535156 -27.50597656 3.61070313 -26.73632812 3.41015625 C-17.79526378 1.13208324 -9.29523179 -0.73706684 0 0 Z M-72.625 27.5 C-73.07875 27.995 -73.5325 28.49 -74 29 C-73.67 29.66 -73.34 30.32 -73 31 C-71.68 29.35 -70.36 27.7 -69 26 C-71.12364481 25.77390663 -71.12364481 25.77390663 -72.625 27.5 Z " fill="#3C4578" transform="translate(109,119)"/>
<path d="M0 0 C2.02753344 -0.00441953 4.05500534 -0.01348669 6.08251953 -0.02319717 C27.29837631 -0.08653835 48.10188769 1.17818101 68.87231445 5.7455101 C70.3430542 6.06298203 70.3430542 6.06298203 71.84350586 6.38686752 C96.20882536 11.79985147 128.23128046 20.31845712 142.62231445 42.7455101 C146.72749896 49.77278775 147.01778838 59.08649554 144.97387695 66.9173851 C144.02349429 68.94811728 142.96190175 70.6361984 141.62231445 72.4330101 C141.17114258 73.0723851 140.7199707 73.7117601 140.25512695 74.3705101 C119.94294877 100.24074699 77.83168895 107.6914567 47.39575195 111.75722885 C45.47145473 111.9840383 43.54694411 112.2090391 41.62231445 112.4330101 C40.98234528 112.51718185 40.3423761 112.60135361 39.68301392 112.68807602 C25.21672306 114.57856307 10.93428706 114.59251416 -3.63525391 114.2665062 C-7.46528963 114.18245921 -11.29523798 114.12097093 -15.12573242 114.06191635 C-17.59646105 114.01506538 -20.06716581 113.96693419 -22.5378418 113.9173851 C-23.66513199 113.89955978 -24.79242218 113.88173447 -25.95387268 113.86336899 C-32.94979565 113.69217686 -39.53183327 112.85725911 -46.37768555 111.4330101 C-48.24805177 111.10719123 -50.11896358 110.78444424 -51.9909668 110.46816635 C-80.81974311 105.55737298 -80.81974311 105.55737298 -91.37768555 101.4330101 C-92.14266357 101.14289047 -92.9076416 100.85277084 -93.69580078 100.55385971 C-111.78838786 93.68207686 -132.3386432 85.51109479 -141.5378418 67.1126976 C-143.79607948 59.90734386 -143.54631643 50.86621141 -140.37768555 43.9955101 C-127.97707551 23.17897359 -99.55129037 13.96689347 -77.43237305 8.0892601 C-71.78608748 6.66415585 -66.0970945 5.52185727 -60.37768555 4.4330101 C-59.38559082 4.23401108 -58.39349609 4.03501205 -57.37133789 3.82998276 C-38.37610361 0.18497552 -19.27164699 0.03449959 0 0 Z M-70.37768555 14.4330101 C-71.77576449 14.7458149 -73.17419932 15.05703364 -74.57299805 15.36660385 C-94.46281454 19.89909125 -119.03393094 27.74602673 -131.12768555 45.3080101 C-134.1602519 50.25876602 -134.85309609 54.63300153 -134.37768555 60.4330101 C-131.78566275 70.46544367 -123.88851038 77.52073132 -115.28686523 82.72426987 C-59.59657795 114.60063436 20.24855949 112.7310243 80.80981445 97.5580101 C83.09181359 96.88651915 85.36261543 96.17609856 87.62231445 95.4330101 C88.33822754 95.19888412 89.05414063 94.96475815 89.79174805 94.72353745 C106.60738313 89.13234754 125.72046112 82.50763423 135.3527832 66.56972885 C137.60619789 61.00206117 137.26085772 55.33427256 136.62231445 49.4330101 C135.07724814 45.86036726 135.07724814 45.86036726 132.62231445 43.4330101 C131.81793945 42.2264476 131.81793945 42.2264476 130.99731445 40.9955101 C110.05646167 18.4014321 72.35408199 13.41000617 43.62231445 9.4330101 C42.78925781 9.31296616 41.95620117 9.19292221 41.09790039 9.06924057 C5.10966146 4.06963222 -35.08773343 5.91785445 -70.37768555 14.4330101 Z " fill="#77B1D9" transform="translate(158.377685546875,102.56698989868164)"/>
<path d="M0 0 C1.18158691 0.17692383 2.36317383 0.35384766 3.58056641 0.53613281 C28.91219884 4.45203594 54.3535067 9.9323661 75 26 C75.9075 26.61875 76.815 27.2375 77.75 27.875 C83.5198092 33.32426424 86.39241522 37.96502658 86.6875 46.0625 C86.38059549 52.4120132 85.17704769 56.26185635 81 61 C80.52304687 61.6290625 80.04609375 62.258125 79.5546875 62.90625 C57.10674367 89.21732835 7.42695037 92.97085925 -24.44140625 95.5625 C-33.51861105 96.1715098 -42.59311328 96.2438263 -51.6875 96.25 C-53.03835693 96.25101212 -53.03835693 96.25101212 -54.41650391 96.25204468 C-93.79324479 96.2054455 -146.55968816 92.03022666 -176.9375 63.625 C-181.83113673 58.46826452 -184.56876195 53.51150987 -185.4375 46.4375 C-184.27725894 37.32132023 -180.38157577 31.44266668 -173.2109375 25.80859375 C-148.99129417 8.39520055 -120.14038161 2.36562887 -91 -1 C-90.13375 -1.10441406 -89.2675 -1.20882812 -88.375 -1.31640625 C-59.21890353 -4.70365863 -29.0144909 -4.36251034 0 0 Z M-124 9 C-124.76393066 9.1767627 -125.52786133 9.35352539 -126.31494141 9.53564453 C-144.32713702 13.7980725 -167.66535392 21.12935724 -178.5625 37.4375 C-180.62951924 42.56011291 -181.04498292 46.8874038 -179.26953125 52.17578125 C-172.94620886 65.88061467 -157.44736337 72.98198946 -144.25 78.625 C-127.19875481 84.89696675 -107.87781918 88.27278292 -89.8125 90.0625 C-88.57753784 90.1860083 -88.57753784 90.1860083 -87.31762695 90.31201172 C-84.87912605 90.54981088 -82.43989602 90.7770209 -80 91 C-78.77023438 91.11472656 -77.54046875 91.22945313 -76.2734375 91.34765625 C-31.68307609 94.79636612 31.73386126 94.15033732 69.1875 66.5 C75.26723578 61.26999107 81.63133514 55.49771131 82.3125 47.1875 C82.1093739 40.73525924 79.3193848 35.52234143 75.0390625 30.8203125 C66.76123912 23.43053148 56.2390474 18.93809515 46 15 C44.90945312 14.56945312 43.81890625 14.13890625 42.6953125 13.6953125 C30.51003912 9.24672063 17.73974938 7.22749915 5 5 C3.49167603 4.72833008 3.49167603 4.72833008 1.95288086 4.45117188 C-39.23899749 -2.76335748 -83.44348881 -0.42770938 -124 9 Z " fill="#EDEFF3" transform="translate(209,113)"/>
<path d="M0 0 C2.33813477 0.2734375 2.33813477 0.2734375 4.05859375 0.625 C2.54710005 4.97973591 0.22224453 8.55025583 -2.37890625 12.3125 C-6.39214966 18.22970075 -10.25545295 24.22397181 -14.00390625 30.3125 C-14.48077881 31.07844482 -14.95765137 31.84438965 -15.44897461 32.63354492 C-15.89120361 33.35646729 -16.33343262 34.07938965 -16.7890625 34.82421875 C-17.37699585 35.78074341 -17.37699585 35.78074341 -17.97680664 36.7565918 C-18.97951132 38.69880867 -19.4988802 40.49100162 -19.94140625 42.625 C-15.07172958 41.3311589 -12.34142135 39.50408452 -8.75390625 36 C-4.26159552 31.625 -4.26159552 31.625 -0.94140625 31.625 C-2.19381577 38.14322227 -7.10917171 42.25223258 -12.31640625 46 C-16.58124932 48.72254838 -19.91900718 49.44236731 -24.94140625 49.625 C-27.94140625 45.875 -27.94140625 45.875 -27.94140625 43.625 C-28.42609375 43.9859375 -28.91078125 44.346875 -29.41015625 44.71875 C-34.50733097 48.24756327 -37.73678576 49.55569307 -43.94140625 48.625 C-46.37260248 46.75484906 -47.58209798 45.34361655 -48.94140625 42.625 C-48.98163016 40.2920134 -48.98460872 37.95793334 -48.94140625 35.625 C-49.78703125 36.140625 -50.63265625 36.65625 -51.50390625 37.1875 C-55.58024438 38.89215049 -57.71165181 38.76378004 -61.94140625 37.625 C-63.94140625 34.625 -63.94140625 34.625 -63.94140625 30.625 C-64.60140625 30.625 -65.26140625 30.625 -65.94140625 30.625 C-66.32619141 31.68460938 -66.32619141 31.68460938 -66.71875 32.765625 C-68.04652785 35.87084349 -69.66967369 38.54132131 -71.50390625 41.375 C-72.12394531 42.33921875 -72.74398437 43.3034375 -73.3828125 44.296875 C-74.94140625 46.625 -74.94140625 46.625 -75.94140625 47.625 C-78.61199476 47.76615161 -81.26572863 47.66747107 -83.94140625 47.625 C-82.09052747 42.38419649 -79.15701503 37.91986734 -76.21875 33.24023438 C-73.89142735 29.45737495 -72.16752173 25.9363952 -70.94140625 21.625 C-75.61357561 23.67288846 -78.51945116 25.92773505 -81.87890625 29.75 C-82.74128906 30.72324219 -83.60367188 31.69648438 -84.4921875 32.69921875 C-86.63350047 35.25718273 -88.61013636 37.86311614 -90.56640625 40.5625 C-94.3381002 45.47980193 -98.15019654 47.96455476 -104.2734375 49.03125 C-108.64681089 49.32135769 -110.41669513 49.02121043 -114.00390625 46.3125 C-115.94140625 43.625 -115.94140625 43.625 -115.94140625 40.625 C-117.05515625 41.6459375 -117.05515625 41.6459375 -118.19140625 42.6875 C-120.94140625 44.625 -120.94140625 44.625 -123.25390625 44.375 C-123.81078125 44.1275 -124.36765625 43.88 -124.94140625 43.625 C-124.54919867 40.87954693 -124.09631274 39.77442021 -122.06640625 37.81640625 C-119.76535361 35.44344572 -118.618738 33.28051043 -117.19140625 30.3125 C-113.70144415 23.68688667 -108.94065307 18.5669145 -101.94140625 15.625 C-98.69140625 15.5 -98.69140625 15.5 -95.94140625 15.625 C-95.61140625 16.945 -95.28140625 18.265 -94.94140625 19.625 C-95.4725 19.92792969 -96.00359375 20.23085937 -96.55078125 20.54296875 C-101.54359288 23.50403404 -105.278234 26.2986555 -107.94140625 31.625 C-108.19140625 35.125 -108.19140625 35.125 -107.94140625 38.625 C-107.28140625 39.285 -106.62140625 39.945 -105.94140625 40.625 C-102.59884246 40.625 -100.03689943 40.55602983 -97.40625 38.3203125 C-93.43069694 33.66091795 -92.79097305 29.88303522 -92.37890625 23.9375 C-92.29511719 22.75800781 -92.21132812 21.57851562 -92.125 20.36328125 C-92.03412109 19.00783203 -92.03412109 19.00783203 -91.94140625 17.625 C-90.29140625 17.295 -88.64140625 16.965 -86.94140625 16.625 C-85.95140625 18.935 -84.96140625 21.245 -83.94140625 23.625 C-83.47089844 23.14289063 -83.00039062 22.66078125 -82.515625 22.1640625 C-81.89300781 21.53242188 -81.27039063 20.90078125 -80.62890625 20.25 C-80.01402344 19.62351563 -79.39914063 18.99703125 -78.765625 18.3515625 C-75.83671738 15.57944865 -73.87191906 14.3451457 -69.87890625 14.375 C-65.94140625 14.625 -65.94140625 14.625 -63.94140625 16.625 C-63.94140625 17.945 -63.94140625 19.265 -63.94140625 20.625 C-63.44511719 20.18027344 -62.94882813 19.73554688 -62.4375 19.27734375 C-56.8705584 14.63998632 -56.8705584 14.63998632 -52.06640625 14.5625 C-48.94140625 15.625 -48.94140625 15.625 -46.94140625 18.625 C-46.58755676 21.45579592 -46.54931715 22.99330089 -48.06640625 25.4375 C-50.71676582 27.11606106 -52.87387049 26.82950238 -55.94140625 26.625 C-56.93140625 24.645 -56.93140625 24.645 -57.94140625 22.625 C-59.29580293 25.33379335 -59.00642076 27.63433268 -58.94140625 30.625 C-56.08151064 31.46644039 -54.53853647 31.89086767 -51.765625 30.65625 C-51.06050781 30.1509375 -50.35539062 29.645625 -49.62890625 29.125 C-48.85289062 28.57199219 -48.076875 28.01898438 -47.27734375 27.44921875 C-45.02142838 25.6874922 -42.8826177 23.85007792 -40.75390625 21.9375 C-36.56342537 18.19422459 -33.10717282 15.93439522 -27.44140625 15.125 C-22.81649217 15.78570201 -21.39045781 17.56348232 -17.94140625 20.625 C-17.594729 20.01914063 -17.24805176 19.41328125 -16.89086914 18.7890625 C-15.29563814 16.0463939 -13.6511086 13.33674581 -12.00390625 10.625 C-11.45927734 9.67109375 -10.91464844 8.7171875 -10.35351562 7.734375 C-5.57477679 0 -5.57477679 0 0 0 Z " fill="#ECECF0" transform="translate(243.94140625,142.375)"/>
<path d="M0 0 C0.79954102 -0.00386719 1.59908203 -0.00773437 2.42285156 -0.01171875 C9.95241421 0.1235935 17.1250976 1.50387689 24.5 2.9375 C42.68870723 6.43783605 61.360387 6.86556579 79.75 4.4375 C80.3359375 6.3125 80.3359375 6.3125 80.75 8.4375 C77.68900298 12.8898593 72.83823338 15.09202084 67.75 16.4375 C56.09866833 17.80455614 45.48229594 15.59967056 34.234375 12.62890625 C33.44144043 12.42499268 32.64850586 12.2210791 31.83154297 12.01098633 C29.75 11.4375 29.75 11.4375 27.0546875 10.421875 C23.05043776 10.44902246 20.84093355 13.4183676 18.125 16.125 C17.26648438 16.94000977 17.26648438 16.94000977 16.390625 17.77148438 C13.56477597 20.48889966 10.97678839 23.19207437 8.75 26.4375 C11.72 26.7675 14.69 27.0975 17.75 27.4375 C17.6675 26.695 17.585 25.9525 17.5 25.1875 C17.75 22.4375 17.75 22.4375 19.375 20.125 C22.3729538 17.99487493 24.14722105 18.03719123 27.75 18.4375 C28.75 19.4375 28.75 19.4375 29.125 22.1875 C28.63549712 26.42985832 26.93164293 27.73310351 23.75 30.4375 C24.41 30.7675 25.07 31.0975 25.75 31.4375 C25.75 32.0975 25.75 32.7575 25.75 33.4375 C20.875 32.5625 20.875 32.5625 19.75 31.4375 C14.66507515 30.69608515 9.53688574 30.34508809 4.75 32.4375 C0.68223133 36.25039595 -1.64528934 41.54364622 -4.16650391 46.44042969 C-8.81401903 55.00660223 -16.15225367 62.33886988 -24.4375 67.375 C-31.24368764 69.27180639 -38.2291393 69.70944135 -44.8125 66.9375 C-48.8751292 62.77070082 -51.38390404 58.32200671 -51.8125 52.4375 C-51.48276339 46.84296884 -48.53327337 42.58554534 -44.53515625 38.82421875 C-41.71151833 36.63080199 -39.91341989 35.50807658 -36.3125 35.125 C-35.631875 35.228125 -34.95125 35.33125 -34.25 35.4375 C-33.92 36.7575 -33.59 38.0775 -33.25 39.4375 C-33.74371094 39.77523437 -34.23742187 40.11296875 -34.74609375 40.4609375 C-35.70708984 41.12996094 -35.70708984 41.12996094 -36.6875 41.8125 C-37.32558594 42.25335938 -37.96367188 42.69421875 -38.62109375 43.1484375 C-40.38740928 44.35910853 -40.38740928 44.35910853 -41.25 46.4375 C-41.86393753 51.61370572 -41.86393753 51.61370572 -39.99609375 56.16015625 C-37.24257625 58.17447442 -34.96641111 57.97400691 -31.64453125 57.83984375 C-22.62951531 56.32508577 -15.35583492 47.53674535 -10.125 40.6328125 C-8.45742771 38.25921163 -6.82956781 35.87033917 -5.25 33.4375 C-6.136875 33.746875 -7.02375 34.05625 -7.9375 34.375 C-10.71709155 35.2665671 -13.38136375 35.93127007 -16.25 36.4375 C-15.97265625 34.53515625 -15.97265625 34.53515625 -15.25 32.4375 C-11.93111458 30.9818485 -8.73648298 29.80410852 -5.22265625 28.9375 C0.6763185 27.25541611 3.08057888 23.85763902 6.66015625 19.0234375 C9.79359038 15.14617882 13.52854497 12.08247805 17.75 9.4375 C18.41 9.4375 19.07 9.4375 19.75 9.4375 C19.75 8.7775 19.75 8.1175 19.75 7.4375 C-1.18923922 4.54436919 -1.18923922 4.54436919 -20.25 11.4375 C-22.6794516 15.0816774 -22.41179575 17.14991272 -22.25 21.4375 C-16.04455371 22.00640395 -16.04455371 22.00640395 -10.8125 19.0625 C-8.26309583 16.71767144 -8.26309583 16.71767144 -7.25 14.4375 C-6.59 14.4375 -5.93 14.4375 -5.25 14.4375 C-5.47616608 19.9785689 -6.7601208 22.89144847 -10.5859375 26.92578125 C-15.00188979 30.93745622 -19.29910433 32.04414607 -25.12890625 31.8671875 C-28.58970996 31.16610388 -30.17500891 29.1609258 -32.25 26.4375 C-34.01659012 22.90431975 -33.88926222 19.285732 -33.25 15.4375 C-30.08785491 9.23819579 -23.43961113 5.17244445 -17.25 2.4375 C-11.54699705 0.77247436 -5.92911668 0.0212418 0 0 Z " fill="#EDEFF3" transform="translate(123.25,121.5625)"/>
<path d="M0 0 C1.01936646 -0.0033284 2.03873291 -0.0066568 3.08898926 -0.01008606 C5.2473099 -0.015133 7.4056383 -0.01749508 9.56396484 -0.01733398 C12.77846192 -0.01948751 15.99259628 -0.03757488 19.20703125 -0.05664062 C39.77874331 -0.11275841 60.13800344 1.19412583 80.34375 5.16796875 C81.06159668 5.30428711 81.77944336 5.44060547 82.51904297 5.58105469 C100.5378155 9.05098064 118.78662465 14.15709667 134.34375 24.16796875 C134.67375 24.82796875 135.00375 25.48796875 135.34375 26.16796875 C134.69575439 26.05839844 134.04775879 25.94882813 133.38012695 25.8359375 C97.51869119 19.74369045 97.51869119 19.74369045 61.34375 16.16796875 C60.35375 13.19796875 60.35375 13.19796875 59.34375 10.16796875 C58.15265625 10.32523438 56.9615625 10.4825 55.734375 10.64453125 C37.05068017 12.6905633 18.83997901 11.52214148 0.45849609 7.96435547 C-14.76582823 5.06779453 -31.02531208 3.41455494 -44.65625 12.16796875 C-46.64887566 13.57452804 -48.35352114 14.79017666 -49.88012695 16.6953125 C-52.440634 18.8183336 -54.66623387 18.84786787 -57.94921875 19.23046875 C-59.21266113 19.38588135 -60.47610352 19.54129395 -61.77783203 19.70141602 C-62.44284729 19.77756134 -63.10786255 19.85370667 -63.79302979 19.93215942 C-67.21056831 20.32513719 -70.62238344 20.76321697 -74.03515625 21.1953125 C-75.03509613 21.32026344 -75.03509613 21.32026344 -76.05523682 21.44773865 C-81.15393163 22.08893623 -86.22470642 22.8145852 -91.28125 23.73046875 C-92.44914062 23.93800781 -93.61703125 24.14554688 -94.8203125 24.359375 C-97.71453481 25.18458715 -99.41368241 26.19341533 -101.65625 28.16796875 C-102.31625 27.83796875 -102.97625 27.50796875 -103.65625 27.16796875 C-81.44300915 8.66365377 -49.13346667 4.48493004 -21.40258789 1.47753906 C-19.26249137 1.23630496 -17.12763166 0.94845863 -14.99584961 0.64233398 C-9.99997611 0.01690353 -5.02913435 0.0058588 0 0 Z M-105.65625 28.16796875 C-104.99625 28.49796875 -104.33625 28.82796875 -103.65625 29.16796875 C-105.30625 30.48796875 -106.95625 31.80796875 -108.65625 33.16796875 C-106.78125 29.29296875 -106.78125 29.29296875 -105.65625 28.16796875 Z " fill="#5C9FD4" transform="translate(143.65625,116.83203125)"/>
<path d="M0 0 C0.33 0.66 0.66 1.32 1 2 C2.32 2 3.64 2 5 2 C5.83197206 9.25004225 4.40311552 13.32914905 0.23046875 19.30078125 C-17.67046832 40.96373662 -51.33544004 48.58337336 -77.625 53.25 C-78.46877197 53.40098145 -79.31254395 53.55196289 -80.18188477 53.70751953 C-97.27191814 56.54652311 -114.26978247 57.32620944 -131.57202148 57.26074219 C-134.9303598 57.25002279 -138.28816212 57.26070638 -141.64648438 57.2734375 C-159.29988778 57.2854923 -176.71177922 56.2023216 -194.125 53.1875 C-195.12233154 53.01645752 -196.11966309 52.84541504 -197.1472168 52.66918945 C-222.88956998 48.09089972 -256.94503192 40.12171314 -273.0625 17.6875 C-276.72799802 12.19356532 -277.10585361 8.45707042 -277 2 C-275.68 1.67 -274.36 1.34 -273 1 C-272.74476563 1.85271484 -272.74476563 1.85271484 -272.484375 2.72265625 C-268.110561 16.65837213 -260.31947553 24.38925098 -247.5546875 31.19140625 C-192.10857879 59.40189892 -112.36590074 59.47189752 -53.48046875 42.14453125 C-52.33191406 41.76683594 -51.18335938 41.38914063 -50 41 C-49.28408691 40.76587402 -48.56817383 40.53174805 -47.83056641 40.29052734 C-31.19816718 34.76026327 -11.5174004 28.13718071 -2.5 11.9375 C-0.7636586 8.01494694 -0.30420649 4.25889091 0 0 Z " fill="#291943" transform="translate(296,156)"/>
<path d="M0 0 C2.02753344 -0.00441953 4.05500534 -0.01348669 6.08251953 -0.02319717 C27.29837631 -0.08653835 48.10188769 1.17818101 68.87231445 5.7455101 C70.3430542 6.06298203 70.3430542 6.06298203 71.84350586 6.38686752 C96.20882536 11.79985147 128.23128046 20.31845712 142.62231445 42.7455101 C146.72749896 49.77278775 147.01778838 59.08649554 144.97387695 66.9173851 C144.02349429 68.94811728 142.96190175 70.6361984 141.62231445 72.4330101 C141.17114258 73.0723851 140.7199707 73.7117601 140.25512695 74.3705101 C119.94294877 100.24074699 77.83168895 107.6914567 47.39575195 111.75722885 C45.47145473 111.9840383 43.54694411 112.2090391 41.62231445 112.4330101 C40.98234528 112.51718185 40.3423761 112.60135361 39.68301392 112.68807602 C25.21672306 114.57856307 10.93428706 114.59251416 -3.63525391 114.2665062 C-7.46528963 114.18245921 -11.29523798 114.12097093 -15.12573242 114.06191635 C-17.59646105 114.01506538 -20.06716581 113.96693419 -22.5378418 113.9173851 C-23.66513199 113.89955978 -24.79242218 113.88173447 -25.95387268 113.86336899 C-32.94979565 113.69217686 -39.53183327 112.85725911 -46.37768555 111.4330101 C-48.24805177 111.10719123 -50.11896358 110.78444424 -51.9909668 110.46816635 C-80.81974311 105.55737298 -80.81974311 105.55737298 -91.37768555 101.4330101 C-92.14266357 101.14289047 -92.9076416 100.85277084 -93.69580078 100.55385971 C-111.78838786 93.68207686 -132.3386432 85.51109479 -141.5378418 67.1126976 C-143.79607948 59.90734386 -143.54631643 50.86621141 -140.37768555 43.9955101 C-127.97707551 23.17897359 -99.55129037 13.96689347 -77.43237305 8.0892601 C-71.78608748 6.66415585 -66.0970945 5.52185727 -60.37768555 4.4330101 C-59.38559082 4.23401108 -58.39349609 4.03501205 -57.37133789 3.82998276 C-38.37610361 0.18497552 -19.27164699 0.03449959 0 0 Z M-40.37768555 3.4330101 C-42.26982058 3.67857235 -44.16301447 3.91617273 -46.05737305 4.1439476 C-57.37587747 5.57192851 -68.35718002 7.48400934 -79.37768555 10.4330101 C-80.06636719 10.61057846 -80.75504883 10.78814682 -81.46459961 10.97109604 C-97.6338204 15.17254711 -112.97818245 21.30117724 -126.37768555 31.4330101 C-127.1356543 31.99633041 -127.89362305 32.55965073 -128.67456055 33.14004135 C-134.57322903 37.87449895 -138.02693266 43.73150433 -141.37768555 50.4330101 C-142.2500253 59.1190216 -141.59853242 65.36951139 -136.37768555 72.4330101 C-135.97807617 73.02340073 -135.5784668 73.61379135 -135.16674805 74.2220726 C-117.94389969 97.08148952 -79.45422664 105.00802711 -52.80883789 109.06093979 C-51.15897727 109.31343904 -49.51085419 109.57751006 -47.86450195 109.85195541 C-31.99589093 112.43786481 -16.22956965 112.72769631 -0.19018555 112.7455101 C0.81513214 112.74900467 1.82044983 112.75249924 2.85623169 112.7560997 C21.60379494 112.79220598 40.37914479 111.88450959 58.87231445 108.6205101 C59.86207275 108.44874252 60.85183105 108.27697495 61.87158203 108.10000229 C87.98994126 103.40352853 124.07244104 94.82958354 140.18481445 71.7455101 C143.95625661 65.45252736 145.5634007 59.7499557 144.62231445 52.4330101 C140.74250303 38.01598357 129.6584813 30.77834825 117.30981445 23.5580101 C99.26515845 13.86480037 77.76107947 8.34408206 57.62231445 5.4330101 C56.70482422 5.29314682 55.78733398 5.15328354 54.84204102 5.00918198 C36.75350879 2.26233643 18.94275955 1.24623116 0.66137695 1.24770737 C-2.37261858 1.24551376 -5.40625354 1.22726481 -8.44018555 1.20840073 C-19.30149884 1.17690998 -29.64257273 1.68165499 -40.37768555 3.4330101 Z " fill="#535558" transform="translate(158.377685546875,102.56698989868164)"/>
<path d="M0 0 C0 0.66 0 1.32 0 2 C-0.66 2.33 -1.32 2.66 -2 3 C-1.67 3.66 -1.34 4.32 -1 5 C-32.88472935 16.98766956 -67.8353774 20.22701957 -101.6875 20.25 C-103.03835693 20.25101212 -103.03835693 20.25101212 -104.41650391 20.25204468 C-160.37657131 20.18582048 -160.37657131 20.18582048 -179 10 C-178.01 9.67 -177.02 9.34 -176 9 C-176.33 8.34 -176.66 7.68 -177 7 C-172.89517579 7.6416993 -168.79126508 8.28906473 -164.6875 8.9375 C-163.52025391 9.11990234 -162.35300781 9.30230469 -161.15039062 9.49023438 C-160.03212891 9.66748047 -158.91386719 9.84472656 -157.76171875 10.02734375 C-156.73006592 10.18968506 -155.69841309 10.35202637 -154.63549805 10.51928711 C-152 11 -152 11 -149 12 C-142.6821234 12.81275197 -136.34209235 13.40915333 -130 14 C-128.13988281 14.17402344 -128.13988281 14.17402344 -126.2421875 14.3515625 C-81.99863538 17.75491266 -41.74494203 0 0 0 Z " fill="#B8B9C1" transform="translate(259,189)"/>
<path d="M0 0 C0.66 0.33 1.32 0.66 2 1 C2.40621748 2.63376521 2.74930763 4.28338032 3.0625 5.9375 C5.56854315 15.59829635 13.03399508 22.02887005 21.16796875 27.3515625 C39.47588913 38.00803477 61.05738232 44.26009795 82 47 C81.01 47.99 81.01 47.99 80 49 C83.47771264 49.49009791 86.9573785 49.96483662 90.4375 50.4375 C91.39205078 50.57220703 92.34660156 50.70691406 93.33007812 50.84570312 C110.38873743 53.13883438 127.57971615 53.2429488 144.76318359 53.47680664 C147.54807242 53.51632036 150.33253347 53.56778148 153.1171875 53.62109375 C153.96707245 53.6295079 154.8169574 53.63792206 155.69259644 53.64659119 C159.61510005 53.72966632 161.66562473 53.77708316 165 56 C157.9789552 56.05155527 150.95796076 56.08608358 143.93676758 56.10986328 C141.5581683 56.11979748 139.17958082 56.1333494 136.80102539 56.15087891 C117.61294276 56.28854399 98.81092944 55.46595434 79.875 52.1875 C78.87766846 52.01645752 77.88033691 51.84541504 76.8527832 51.66918945 C51.11043002 47.09089972 17.05496808 39.12171314 0.9375 16.6875 C-2.72799802 11.19356532 -3.10585361 7.45707042 -3 1 C-2.01 0.67 -1.02 0.34 0 0 Z " fill="#322C59" transform="translate(22,157)"/>
<path d="M0 0 C0.66 0.33 1.32 0.66 2 1 C1.61328125 1.42410156 1.2265625 1.84820312 0.828125 2.28515625 C-6.12106049 10.1115904 -8.70794531 14.94162573 -8.390625 25.6171875 C-7.52035666 33.15371131 -3.43638696 39.03678164 2.26953125 43.95703125 C25.07837987 60.59943232 51.4391356 67.57009739 79 72 C80.02899414 72.1767627 81.05798828 72.35352539 82.11816406 72.53564453 C98.76775909 75.2953441 115.48253348 75.23984924 132.3125 75.25 C133.47096436 75.25100708 134.62942871 75.25201416 135.82299805 75.25305176 C152.41158447 75.24329039 168.62613665 74.90812348 185 72 C186.2686792 71.79117188 186.2686792 71.79117188 187.56298828 71.578125 C212.43387452 67.43856697 238.24395895 60.86280797 259 46 C260.0725 45.2575 261.145 44.515 262.25 43.75 C266.30974381 39.69025619 269.08653051 34.9218671 272 30 C272.33 30.99 272.66 31.98 273 33 C260.2098875 54.79056203 233.16002136 63.81146408 210 70 C195.89747823 73.296641 181.52988429 75.54340117 167.1038208 76.81300354 C165.59019911 76.94754062 164.07753509 77.0930155 162.56561279 77.24546814 C156.20472092 77.87123295 149.90548409 78.18423656 143.515625 78.23828125 C142.06609436 78.25283607 142.06609436 78.25283607 140.58728027 78.26768494 C137.4748106 78.2924966 134.36255858 78.30520167 131.25 78.3125 C130.18430786 78.31511841 129.11861572 78.31773682 128.02062988 78.32043457 C110.00751104 78.32516473 92.74977367 77.17578368 75 74 C74.01177246 73.82919922 73.02354492 73.65839844 72.00537109 73.48242188 C45.80940734 68.88426613 11.58098829 60.91436422 -5.625 38.75 C-6.43781155 37.51364508 -7.23262439 36.26505762 -8 35 C-8.61875 34.113125 -9.2375 33.22625 -9.875 32.3125 C-11.94026626 26.23143822 -12.23589032 19.51225241 -10.0859375 13.40234375 C-7.41460092 8.37850753 -3.82651181 4.1824664 0 0 Z " fill="#A4A6B0" transform="translate(28,137)"/>
<path d="M0 0 C0 0.66 0 1.32 0 2 C-1.5390625 3.33203125 -1.5390625 3.33203125 -3.625 4.8125 C-6.27222797 6.6994033 -8.62949795 8.59300361 -10.9375 10.875 C-15.03484354 13.7180547 -18.16627952 13.48337205 -23 13 C-23.66666667 11 -24.33333333 9 -25 7 C-25.66 7 -26.32 7 -27 7 C-27.226875 7.5775 -27.45375 8.155 -27.6875 8.75 C-29.4390799 11.7527084 -31.01906183 13.18551589 -34 15 C-36.8060044 15.3864874 -39.14094105 15.23825491 -42 15 C-43 14 -43 14 -43.375 10.75 C-43 7 -43 7 -41 4.3125 C-28.81825982 -5.07759139 -14.38687297 -2.80231265 0 0 Z " fill="#517DB3" transform="translate(143,129)"/>
<path d="M0 0 C-0.66 0 -1.32 0 -2 0 C-2.33 0.99 -2.66 1.98 -3 3 C-4.890625 4.2109375 -4.890625 4.2109375 -7.25 5.375 C-11.20364431 7.44267452 -13.88118606 9.79207709 -17 13 C-20.58096961 14.21383538 -24.42332522 14.54607203 -28.15234375 15.0859375 C-29.58401252 15.29668388 -31.01565218 15.50762811 -32.44726562 15.71875 C-34.67782307 16.04556448 -36.90857012 16.37083097 -39.13989258 16.69238281 C-55.62659335 18.51989396 -55.62659335 18.51989396 -71 24 C-58.60565225 10.81835249 -17.93488565 -6.20822965 0 0 Z M-73 24 C-72.34 24.33 -71.68 24.66 -71 25 C-72.65 26.32 -74.3 27.64 -76 29 C-74.125 25.125 -74.125 25.125 -73 24 Z " fill="#5897CD" transform="translate(111,121)"/>
<path d="M0 0 C2.72022088 0.00461851 5.43999323 -0.00225663 8.16015625 -0.02050781 C29.65720985 -0.16327406 50.66870219 0.99882039 71.72119141 5.62817383 C73.19193115 5.94564575 73.19193115 5.94564575 74.69238281 6.26953125 C99.05770231 11.68251519 131.08015741 20.20112085 145.47119141 42.62817383 C148.22494186 47.34205916 148.68043832 51.4936718 148.72119141 56.87817383 C148.75212891 57.90587891 148.75212891 57.90587891 148.78369141 58.9543457 C148.79931641 60.94458008 148.79931641 60.94458008 148.47119141 64.31567383 C147.48119141 64.97567383 146.49119141 65.63567383 145.47119141 66.31567383 C145.63619141 65.67629883 145.80119141 65.03692383 145.97119141 64.37817383 C147.54394151 54.74507942 145.81245551 47.3781952 140.40869141 39.19067383 C121.30289784 18.64184449 87.27974311 10.19086792 60.47119141 6.31567383 C59.55370117 6.17581055 58.63621094 6.03594727 57.69091797 5.8918457 C39.60238574 3.14500016 21.7916365 2.12889488 3.51025391 2.13037109 C0.47625837 2.12817749 -2.55737659 2.10992853 -5.59130859 2.09106445 C-16.45262188 2.05957371 -26.79369578 2.56431872 -37.52880859 4.31567383 C-39.42094363 4.56123608 -41.31413752 4.79883646 -43.20849609 5.02661133 C-54.53547841 6.45778007 -65.46943661 8.50295476 -76.52880859 11.31567383 C-79.52472385 12.00319797 -82.52565217 12.6604397 -85.52880859 13.31567383 C-85.52880859 12.65567383 -85.52880859 11.99567383 -85.52880859 11.31567383 C-75.78787595 8.34839847 -66.06603035 5.87673001 -56.02880859 4.12817383 C-55.15409912 3.97380859 -54.27938965 3.81944336 -53.37817383 3.66040039 C-50.43349023 3.16815159 -47.48480092 2.7348004 -44.52880859 2.31567383 C-42.72210693 2.04533325 -42.72210693 2.04533325 -40.87890625 1.76953125 C-27.30506871 -0.09509394 -13.67656496 -0.02514239 0 0 Z " fill="#595B5E" transform="translate(155.52880859375,102.684326171875)"/>
<path d="M0 0 C0.495 0.99 0.495 0.99 1 2 C2.32 2 3.64 2 5 2 C5.83197206 9.25004225 4.40311552 13.32914905 0.23046875 19.30078125 C-14.92263995 37.63843119 -40.75934013 44.81815553 -63 50 C-63.66 50 -64.32 50 -65 50 C-65 49.34 -65 48.68 -65 48 C-58.50699714 45.97452787 -51.98985024 44.21670337 -45.37109375 42.6484375 C-43.06234334 42.22752127 -43.06234334 42.22752127 -42 41 C-42.66 40.34 -43.32 39.68 -44 39 C-43.09121094 38.6596875 -42.18242187 38.319375 -41.24609375 37.96875 C-18.55312949 29.38807941 -18.55312949 29.38807941 -2.5 11.9375 C-0.7636586 8.01494694 -0.30420649 4.25889091 0 0 Z " fill="#3E3B66" transform="translate(296,156)"/>
<path d="M0 0 C3.1875 0.25 3.1875 0.25 4.875 1.6875 C5.308125 2.203125 5.74125 2.71875 6.1875 3.25 C8.29082891 3.96447643 8.29082891 3.96447643 10.1875 4.25 C10.1875 4.91 10.1875 5.57 10.1875 6.25 C7.5475 6.25 4.9075 6.25 2.1875 6.25 C2.1875 5.59 2.1875 4.93 2.1875 4.25 C-2.1025 4.25 -6.3925 4.25 -10.8125 4.25 C-11.4725 6.23 -12.1325 8.21 -12.8125 10.25 C-14.14603994 12.81700065 -15.73068853 15.20427254 -17.3125 17.625 C-17.71597656 18.26566406 -18.11945313 18.90632813 -18.53515625 19.56640625 C-19.5691681 21.16690644 -20.68476771 22.71409595 -21.8125 24.25 C-22.4725 24.25 -23.1325 24.25 -23.8125 24.25 C-24.1528125 25.054375 -24.1528125 25.054375 -24.5 25.875 C-28.55400376 33.21081633 -34.45032059 37.41024263 -41.8125 41.25 C-48.7745388 43.05765102 -54.41470726 42.69496532 -60.8125 39.25 C-62.75 37.0625 -62.75 37.0625 -63.8125 35.25 C-62.95140625 35.57097656 -62.0903125 35.89195312 -61.203125 36.22265625 C-52.85493351 38.7521198 -44.91317466 38.06077805 -37.2265625 34.02734375 C-30.59421891 29.14430761 -26.03557227 23.06432205 -21.625 16.1875 C-20.86413086 15.02250977 -20.86413086 15.02250977 -20.08789062 13.83398438 C-17.33758365 9.64400456 -17.33758365 9.64400456 -14.6940918 5.38671875 C-13.6875 3.74609375 -13.6875 3.74609375 -11.8125 1.25 C-7.76894353 0.32197065 -4.12696675 0.27062077 0 0 Z " fill="#2C1943" transform="translate(139.8125,151.75)"/>
<path d="M0 0 C0.33 0 0.66 0 1 0 C2.39672056 5.58688226 2.79253008 10.7544981 0.875 16.1875 C-1.47450984 19.71176477 -3.48487862 21.60971746 -7 24 C-9.96925039 24.55241868 -11.22421732 24.45476916 -13.8125 22.9375 C-15.7093204 19.84268776 -15.42173462 17.55462037 -15 14 C-12.49045638 9.17395458 -9.36261912 6.11615652 -5 3 C-2.125 2.1875 -2.125 2.1875 0 2 C0 1.34 0 0.68 0 0 Z " fill="#3B3D70" transform="translate(150,160)"/>
<path d="M0 0 C0.75769684 -0.0007251 1.51539368 -0.0014502 2.29605103 -0.00219727 C16.77048143 -0.0006769 31.08729576 0.81155058 45.5 2.1875 C45.5 2.5175 45.5 2.8475 45.5 3.1875 C38.32718933 4.31894034 31.29292343 4.28206093 24.04296875 4.21484375 C22.05877706 4.20542679 20.07458521 4.19602314 18.09039021 4.18733311 C13.2454962 4.1646409 8.40068997 4.13132055 3.5559082 4.09155273 C-10.64821416 3.97893799 -24.6864777 3.87900557 -38.78710938 5.78881836 C-43.79626341 6.32668978 -48.54271926 6.0118568 -53.5 5.1875 C-53.5 4.8575 -53.5 4.5275 -53.5 4.1875 C-49.39609827 3.70604679 -45.29183263 3.22776476 -41.1875 2.75 C-40.03958984 2.61529297 -38.89167969 2.48058594 -37.70898438 2.34179688 C-34.30706906 1.94667357 -30.90400382 1.56417463 -27.5 1.1875 C-26.59910645 1.08381104 -25.69821289 0.98012207 -24.77001953 0.87329102 C-16.52412719 0.00959083 -8.28085582 -0.00808886 0 0 Z " fill="#546797" transform="translate(156.5,113.8125)"/>
<path d="M0 0 C0.66016113 0.23348145 1.32032227 0.46696289 2.00048828 0.70751953 C13.61922012 4.77078114 27.12503927 5.54544102 38.37109375 0.33984375 C40.20107956 -0.62778644 42.02130763 -1.61575949 43.80859375 -2.66015625 C43.21159716 0.6580341 42.96642525 1.21207539 40.18359375 3.46484375 C26.02105695 11.33291975 9.60584977 6.98670259 -5.06787109 2.97363281 C-7.51175014 2.2442341 -9.85954907 1.37300614 -12.19140625 0.33984375 C-12.44019531 0.92765625 -12.68898437 1.51546875 -12.9453125 2.12109375 C-14.3654443 4.64972968 -15.89270843 6.00757738 -18.12890625 7.83984375 C-20.92381512 10.13846039 -23.11367097 12.36978956 -25.19140625 15.33984375 C-26.51140625 15.00984375 -27.83140625 14.67984375 -29.19140625 14.33984375 C-27.61906391 12.42908336 -26.01366208 10.56830197 -24.3515625 8.734375 C-22.86875182 7.0906807 -21.44075512 5.3963648 -20.0625 3.6640625 C-13.48926068 -3.66548862 -8.63832744 -2.87944248 0 0 Z " fill="#3F3C6D" transform="translate(160.19140625,133.66015625)"/>
<path d="M0 0 C0.66 0.33 1.32 0.66 2 1 C2.4309804 2.65307552 2.79444609 4.323952 3.125 6 C4.7557612 12.53158281 8.22795133 16.40931185 13 21 C12.67 21.99 12.34 22.98 12 24 C12.52207031 24.25007813 13.04414062 24.50015625 13.58203125 24.7578125 C16.06223763 26.03197345 18.46638125 27.41367299 20.87451172 28.81835938 C26.78863606 32.26521235 32.66298926 35.37778866 39 38 C39 38.99 39 39.98 39 41 C22.50302286 36.36926958 6.74352533 27.0538372 -2 12 C-3.28317892 8.15046324 -3.06643637 5.05261865 -3 1 C-2.01 0.67 -1.02 0.34 0 0 Z " fill="#414678" transform="translate(22,157)"/>
<path d="M0 0 C1 1 1 1 1.3125 4.6875 C1.2294111 9.85747582 -0.87193675 12.7903124 -4.42578125 16.48046875 C-6.84037966 18.70788899 -8.52747615 19.93699682 -11.8125 20.375 C-14 20 -14 20 -15 19 C-15.87507004 12.9995197 -14.09916657 9.92101839 -10.703125 5.015625 C-7.45482209 1.17130321 -5.12483547 -0.55403627 0 0 Z " fill="#3B3E71" transform="translate(219,164)"/>
<path d="M0 0 C28.29824273 -1.3717281 67.11798003 7.14550191 88.9375 26 C89.97293538 26.98487272 91.00076497 27.97841787 92 29 C91.67 29.66 91.34 30.32 91 31 C90.154375 30.175 89.30875 29.35 88.4375 28.5 C67.65405732 10.9394371 35.75987198 5.68087566 9.59057617 2.98730469 C8.62740479 2.88450195 7.6642334 2.78169922 6.671875 2.67578125 C5.8169043 2.59239502 4.96193359 2.50900879 4.08105469 2.4230957 C2 2 2 2 0 0 Z " fill="#494D7D" transform="translate(194,117)"/>
<path d="M0 0 C0 0.99 0 1.98 0 3 C-0.680625 3.391875 -1.36125 3.78375 -2.0625 4.1875 C-7.53913784 7.56670207 -11.2290688 12.88278903 -14.9375 18.0625 C-19.24069924 23.88042537 -24.59598777 29.76599796 -32 31 C-35.68147922 30.97888253 -38.92548173 30.77231001 -42 28.5625 C-43 27 -43 27 -43 25 C-42.01 25.33 -41.02 25.66 -40 26 C-37.98639089 26.2710722 -37.98639089 26.2710722 -35.8125 26.3125 C-35.09707031 26.34988281 -34.38164062 26.38726562 -33.64453125 26.42578125 C-25.57229001 25.12611464 -21.13105569 20.44882658 -16.4375 14.125 C-5.75858071 0 -5.75858071 0 0 0 Z " fill="#2D1A44" transform="translate(173,164)"/>
<path d="M0 0 C0 0.66 0 1.32 0 2 C-4.06880444 2.70421615 -7.04163911 3.06623165 -11 2 C-23.87456095 1.26578637 -23.87456095 1.26578637 -36 5 C-36.99 5.33 -37.98 5.66 -39 6 C-39.71727778 7.64551962 -40.38325228 9.31422289 -41 11 C-41.66 11.66 -42.32 12.32 -43 13 C-43.44840879 9.14368444 -43.39240827 7.51503585 -41 4.375 C-28.9498907 -5.16466986 -14.32593627 -2.79044324 0 0 Z " fill="#424A7E" transform="translate(143,129)"/>
<path d="M0 0 C-2.70975647 4.06463471 -5.79313208 4.18110528 -10.3125 5.125 C-11.07240234 5.29386719 -11.83230469 5.46273437 -12.61523438 5.63671875 C-16.40054412 6.47205209 -20.19568044 7.25584168 -24 8 C-24.33 8.99 -24.66 9.98 -25 11 C-32.51094816 11.8388516 -39.50824535 12.0773541 -47 11 C-47 10.67 -47 10.34 -47 10 C-46.4325708 9.89042969 -45.8651416 9.78085938 -45.28051758 9.66796875 C-38.05052779 8.24922113 -30.86806612 6.64920336 -23.6875 5 C-22.53443359 4.73960937 -21.38136719 4.47921875 -20.19335938 4.2109375 C-19.08154297 3.95570313 -17.96972656 3.70046875 -16.82421875 3.4375 C-15.82479248 3.20933594 -14.82536621 2.98117188 -13.7956543 2.74609375 C-10.98465958 2.05859751 -10.98465958 2.05859751 -8.34301758 0.91796875 C-5.46086534 -0.21122708 -3.06739145 -0.14266937 0 0 Z " fill="#30234D" transform="translate(255,196)"/>
<path d="M0 0 C3.1875 0.25 3.1875 0.25 4.875 1.6875 C5.308125 2.203125 5.74125 2.71875 6.1875 3.25 C8.29082891 3.96447643 8.29082891 3.96447643 10.1875 4.25 C10.1875 4.91 10.1875 5.57 10.1875 6.25 C7.5475 6.25 4.9075 6.25 2.1875 6.25 C2.1875 5.59 2.1875 4.93 2.1875 4.25 C-2.1025 4.25 -6.3925 4.25 -10.8125 4.25 C-11.4725 6.23 -12.1325 8.21 -12.8125 10.25 C-14.14453125 12.76953125 -14.14453125 12.76953125 -15.625 15.0625 C-16.10582031 15.83207031 -16.58664063 16.60164063 -17.08203125 17.39453125 C-19.2276319 19.69511885 -20.73749793 19.93153629 -23.8125 20.25 C-23.36519531 19.54875 -22.91789062 18.8475 -22.45703125 18.125 C-21.85246094 17.17625 -21.24789062 16.2275 -20.625 15.25 C-19.98046875 14.25226563 -19.3359375 13.25453125 -18.671875 12.2265625 C-16.83700222 9.37301686 -16.83700222 9.37301686 -15.515625 6.7734375 C-12.78209353 1.62466247 -12.78209353 1.62466247 -9.97265625 0.5390625 C-6.66776037 0.0696531 -3.3326351 0.21853345 0 0 Z " fill="#362C59" transform="translate(139.8125,151.75)"/>
<path d="M0 0 C-2.25785958 2.25785958 -3.09563046 2.40386344 -6.1484375 2.96484375 C-6.98310547 3.12339844 -7.81777344 3.28195313 -8.67773438 3.4453125 C-10.01288086 3.68894531 -10.01288086 3.68894531 -11.375 3.9375 C-13.20610927 4.2883868 -15.03684205 4.64124417 -16.8671875 4.99609375 C-17.75374023 5.16737793 -18.64029297 5.33866211 -19.55371094 5.51513672 C-27.71002495 7.13174746 -35.5550089 9.4102047 -43.40625 12.1328125 C-44.2621875 12.41898438 -45.118125 12.70515625 -46 13 C-46.7321875 13.24492187 -47.464375 13.48984375 -48.21875 13.7421875 C-48.8065625 13.82726562 -49.394375 13.91234375 -50 14 C-50.66 13.34 -51.32 12.68 -52 12 C-42.59468104 8.047243 -33.09726366 5.06135597 -23.1875 2.625 C-22.15117432 2.36251465 -21.11484863 2.1000293 -20.04711914 1.82958984 C-13.25940318 0.21817602 -6.9680271 -0.32513446 0 0 Z " fill="#4B5283" transform="translate(109,119)"/>
<path d="M0 0 C1 1 1 1 1.375 3.75 C0.88549712 7.99235832 -0.81835707 9.29560351 -4 12 C-3.34 12.33 -2.68 12.66 -2 13 C-2 13.66 -2 14.32 -2 15 C-5.34373475 14.44271087 -8.03312999 13.64826111 -11 12 C-11 11.34 -11 10.68 -11 10 C-13.97 10 -16.94 10 -20 10 C-20 9.67 -20 9.34 -20 9 C-16.7 9 -13.4 9 -10 9 C-10 7.35 -10 5.7 -10 4 C-7.13475113 -0.07746955 -4.85629379 -0.5395882 0 0 Z " fill="#D7D8E1" transform="translate(151,140)"/>
<path d="M0 0 C2.42465571 0.50019121 4.74343344 1.1696103 7.109375 1.8984375 C8.48222656 2.26775391 8.48222656 2.26775391 9.8828125 2.64453125 C14.98397337 4.05502416 14.98397337 4.05502416 17.109375 4.8984375 C17.604375 5.8884375 17.604375 5.8884375 18.109375 6.8984375 C17.42834717 6.88272705 16.74731934 6.8670166 16.0456543 6.85083008 C12.96281219 6.78850528 9.88010256 6.74945492 6.796875 6.7109375 C5.1890918 6.67323242 5.1890918 6.67323242 3.54882812 6.63476562 C2.52080078 6.62509766 1.49277344 6.61542969 0.43359375 6.60546875 C-0.51427002 6.5897583 -1.46213379 6.57404785 -2.4387207 6.55786133 C-4.9313948 6.70136327 -4.9313948 6.70136327 -6.68041992 8.2487793 C-8.24808228 10.38569569 -8.5394468 12.29971884 -8.890625 14.8984375 C-10.870625 14.8984375 -12.850625 14.8984375 -14.890625 14.8984375 C-13.14092472 10.94861906 -10.70876493 8.53045346 -7.609375 5.58984375 C-5.75076135 3.85159495 -5.75076135 3.85159495 -4.015625 1.3359375 C-1.890625 -0.1015625 -1.890625 -0.1015625 0 0 Z " fill="#4A6EA5" transform="translate(149.890625,134.1015625)"/>
<path d="M0 0 C0.33 0.66 0.66 1.32 1 2 C2.32 2 3.64 2 5 2 C5.83504044 9.276781 4.35239888 13.31516282 0.22265625 19.3359375 C-3.32271233 23.58539509 -7.4872855 26.83111195 -12 30 C-12.33 29.01 -12.66 28.02 -13 27 C-12.48050781 26.59910156 -11.96101563 26.19820312 -11.42578125 25.78515625 C-6.26847324 21.58113992 -2.14585415 17.41741358 0 11 C0.36982023 7.28738914 0.31241897 3.7143144 0 0 Z " fill="#434F84" transform="translate(296,156)"/>
<path d="M0 0 C0.33 0.99 0.66 1.98 1 3 C-11.64174813 16.43185739 -11.64174813 16.43185739 -18.27734375 17.296875 C-20.5 17.3125 -20.5 17.3125 -24 17 C-24.66 15.68 -25.32 14.36 -26 13 C-25.01 13.0825 -24.02 13.165 -23 13.25 C-13.62942017 13.1562942 -6.69184109 5.75695153 0 0 Z " fill="#291740" transform="translate(243,178)"/>
<path d="M0 0 C0 0.66 0 1.32 0 2 C-0.99 2.495 -0.99 2.495 -2 3 C-1.67 3.66 -1.34 4.32 -1 5 C-3.91333079 6.00990692 -6.83115319 7.00615952 -9.75 8 C-10.575 8.28617188 -11.4 8.57234375 -12.25 8.8671875 C-13.04921875 9.13789063 -13.8484375 9.40859375 -14.671875 9.6875 C-15.77160645 10.06455078 -15.77160645 10.06455078 -16.89355469 10.44921875 C-19 11 -19 11 -23 11 C-23.66 9.68 -24.32 8.36 -25 7 C-24.06148193 6.73521851 -24.06148193 6.73521851 -23.10400391 6.46508789 C-20.2770813 5.66628919 -17.45103491 4.86443328 -14.625 4.0625 C-13.14773437 3.64581055 -13.14773437 3.64581055 -11.640625 3.22070312 C-10.69960937 2.95322266 -9.75859375 2.68574219 -8.7890625 2.41015625 C-7.91975098 2.16402588 -7.05043945 1.91789551 -6.15478516 1.66430664 C-0.75633958 0 -0.75633958 0 0 0 Z " fill="#C1C2CB" transform="translate(259,189)"/>
<path d="M0 0 C0.33 0.66 0.66 1.32 1 2 C-0.0480957 4.07543945 -0.0480957 4.07543945 -1.67578125 6.61328125 C-2.25650391 7.53173828 -2.83722656 8.45019531 -3.43554688 9.39648438 C-4.05494141 10.35876953 -4.67433594 11.32105469 -5.3125 12.3125 C-6.52056634 14.20210536 -7.72511937 16.09396245 -8.92578125 17.98828125 C-9.46630127 18.82915283 -10.00682129 19.67002441 -10.5637207 20.53637695 C-11.97993555 22.96558383 -13.02687529 25.36588758 -14 28 C-14.99 28 -15.98 28 -17 28 C-16.64324725 21.75173049 -13.49242188 17.41230272 -10.1875 12.3125 C-9.65318359 11.45849609 -9.11886719 10.60449219 -8.56835938 9.72460938 C-6.0198879 5.73419832 -3.95954923 2.69637361 0 0 Z " fill="#301D49" transform="translate(241,157)"/>
<path d="M0 0 C15.61777865 -0.7570557 30.84815831 2.51482924 46 6 C42.12541237 8.58305842 40.79256715 7.92759138 36.27734375 7.13671875 C35.61722794 7.0252803 34.95711212 6.91384186 34.2769928 6.79902649 C32.16168709 6.43989888 30.04969358 6.06446236 27.9375 5.6875 C25.17664986 5.20711528 22.41460484 4.73391181 19.65234375 4.26171875 C18.98737885 4.14593475 18.32241394 4.03015076 17.63729858 3.91085815 C13.03988164 3.12546937 8.47693242 2.59696337 3.82250977 2.31958008 C2 2 2 2 0 0 Z " fill="#47568A" transform="translate(194,117)"/>
<path d="M0 0 C0.33 0 0.66 0 1 0 C1.71915015 7.9106516 -0.64972173 12.73600948 -5.50390625 18.9140625 C-10.16208429 24.00999703 -15.86418205 26.97092532 -22 30 C-22.33 29.01 -22.66 28.02 -23 27 C-22.05640625 26.48953125 -22.05640625 26.48953125 -21.09375 25.96875 C-12.07852048 20.86374051 -4.67340979 14.95855024 -1 5 C-0.23245168 2.18551086 -0.23245168 2.18551086 0 0 Z " fill="#33214D" transform="translate(296,159)"/>
<path d="M0 0 C0.66 0.66 1.32 1.32 2 2 C1.67 2.66 1.34 3.32 1 4 C5.455 3.505 5.455 3.505 10 3 C5.80373832 11.39252336 5.80373832 11.39252336 1.73828125 12.76171875 C-0.50312043 13.25785319 -2.72794457 13.67472711 -5 14 C-4.00372871 11.98652735 -3.00335829 10.00578372 -1.875 8.0625 C-0.82703413 5.59229474 -0.92818581 3.65712518 -1 1 C-0.67 0.67 -0.34 0.34 0 0 Z " fill="#4A6399" transform="translate(119,138)"/>
<path d="M0 0 C0.33 0.66 0.66 1.32 1 2 C-0.02740467 4.34567277 -1.31674385 6.46739659 -2.625 8.66796875 C-4.14053543 11.15817555 -4.14053543 11.15817555 -5.6875 14.5625 C-8 17 -8 17 -10.47265625 17.36328125 C-13.01115793 17.37399223 -15.47589254 17.26011794 -18 17 C-18.33 16.01 -18.66 15.02 -19 14 C-16.03 14 -13.06 14 -10 14 C-9.7525 13.29875 -9.505 12.5975 -9.25 11.875 C-7.09559787 6.91987509 -4.59323126 2.95279153 0 0 Z " fill="#322249" transform="translate(178,177)"/>
<path d="M0 0 C0.66 1.32 1.32 2.64 2 4 C4.832168 4.33448259 4.832168 4.33448259 8 4 C10.37719693 2.12498069 10.37719693 2.12498069 12 0 C12.33 1.65 12.66 3.3 13 5 C11.61765122 6.03902033 10.21844209 7.05563446 8.8125 8.0625 C8.03519531 8.63097656 7.25789062 9.19945312 6.45703125 9.78515625 C3.46296634 11.26552857 2.12237372 11.03000584 -1 10 C-2 9 -2 9 -2.1875 6.125 C-2 3 -2 3 0 0 Z " fill="#48446F" transform="translate(186,164)"/>
<path d="M0 0 C0.85464844 0.32613281 1.70929688 0.65226563 2.58984375 0.98828125 C6.11386139 2.03378018 8.90037705 2.23506004 12.5625 2.1875 C13.65691406 2.18105469 14.75132813 2.17460937 15.87890625 2.16796875 C18.69353265 2.01649324 21.2598323 1.63784164 24 1 C24 1.99 24 2.98 24 4 C20.91732031 7.08267969 17.87422334 6.93524272 13.625 7.25 C8.52221415 6.89808373 4.51513576 5.71063714 1.0625 1.8125 C0.711875 1.214375 0.36125 0.61625 0 0 Z " fill="#3D2F55" transform="translate(76,187)"/>
<path d="M0 0 C0 0.66 0 1.32 0 2 C-2.58789062 3.3671875 -2.58789062 3.3671875 -5.17578125 4.734375 C-8.23248651 6.855087 -9.71700871 9.00120722 -10.73046875 12.578125 C-10.88128906 13.45984375 -11.03210938 14.3415625 -11.1875 15.25 C-11.42533203 16.58804688 -11.42533203 16.58804688 -11.66796875 17.953125 C-11.77753906 18.62859375 -11.88710937 19.3040625 -12 20 C-12.99 19.67 -13.98 19.34 -15 19 C-15.7686344 12.97903055 -14.11667457 9.94630771 -10.703125 5.015625 C-7.40915583 1.11725782 -5.16523838 -0.43043653 0 0 Z " fill="#2F1B47" transform="translate(219,164)"/>
<path d="M0 0 C3.3125 0.5 3.3125 0.5 7 2 C10.09960127 6.56389567 10.33388906 11.65777503 10 17 C9.67 17 9.34 17 9 17 C9 15.35 9 13.7 9 12 C7.68 12 6.36 12 5 12 C4.67 13.98 4.34 15.96 4 18 C3.67 18 3.34 18 3 18 C2.95101563 17.20335937 2.90203125 16.40671875 2.8515625 15.5859375 C2.29970605 7.61842686 2.29970605 7.61842686 0 0 Z " fill="#6282B0" transform="translate(292,146)"/>
<path d="M0 0 C0 2.25 0 2.25 -1 5 C-4.46603825 7.58918848 -7.98615244 8.86352052 -12.25 9.4375 C-15.31183572 8.95038977 -16.74308356 8.08330748 -19 6 C-18.67 5.01 -18.34 4.02 -18 3 C-17.34 3.33 -16.68 3.66 -16 4 C-9.17970737 4.56835772 -5.6910241 0 0 0 Z " fill="#2B1A43" transform="translate(216,186)"/>
<path d="M0 0 C1.12716431 -0.0009668 1.12716431 -0.0009668 2.27709961 -0.00195312 C9.03537026 0.06104103 15.48548144 0.89423725 22.125 2.1875 C22.125 2.8475 22.125 3.5075 22.125 4.1875 C18.02454092 4.89719484 15.10768382 5.19729395 11.125 4.1875 C8.79410844 3.98959411 6.46017289 3.82602721 4.125 3.6875 C-3.29241988 3.24748357 -3.29241988 3.24748357 -6.875 2.1875 C-7.6175 2.001875 -8.36 1.81625 -9.125 1.625 C-9.7025 1.480625 -10.28 1.33625 -10.875 1.1875 C-7.21057147 -0.03397618 -3.81673963 -0.00335132 0 0 Z " fill="#4F5A8C" transform="translate(120.875,126.8125)"/>
<path d="M0 0 C-1.34050949 4.02152847 -3.51929173 4.70273254 -7 7 C-10.6267403 10.50168029 -10.59773076 14.17276917 -11 19 C-11.99 18.67 -12.98 18.34 -14 18 C-14.4596998 12.25375254 -13.67500704 9.44869274 -10 5 C-6.73583484 1.68346855 -4.88589499 0 0 0 Z " fill="#311E48" transform="translate(149,163)"/>
<path d="M0 0 C1.45432686 0.03541649 1.45432686 0.03541649 2.93803406 0.07154846 C6.02525405 0.14793069 9.11220697 0.23206429 12.19921875 0.31640625 C14.29621103 0.36965241 16.39321621 0.42239262 18.49023438 0.47460938 C23.62256396 0.60351136 28.75466788 0.73936408 33.88671875 0.87890625 C33.88671875 1.20890625 33.88671875 1.53890625 33.88671875 1.87890625 C29.82439039 2.0499325 25.76183588 2.21489443 21.69921875 2.37890625 C20.00249023 2.45044922 20.00249023 2.45044922 18.27148438 2.5234375 C7.08758904 2.9695188 -3.98801278 3.28526073 -15.11328125 1.87890625 C-15.11328125 1.54890625 -15.11328125 1.21890625 -15.11328125 0.87890625 C-10.09794435 -0.48390716 -5.14263178 -0.14843633 0 0 Z " fill="#8E8E9E" transform="translate(139.11328125,212.12109375)"/>
<path d="M0 0 C2.64453125 -0.1640625 2.64453125 -0.1640625 5 0 C4.54965877 1.62723299 4.08944646 3.25173664 3.625 4.875 C3.36976562 5.77992188 3.11453125 6.68484375 2.8515625 7.6171875 C2 10 2 10 0 12 C-1.32 12 -2.64 12 -4 12 C-4.36875341 8.12808922 -4.07486527 6.14973053 -2.3125 2.625 C-1.549375 1.75875 -0.78625 0.8925 0 0 Z " fill="#537EB3" transform="translate(23,146)"/>
<path d="M0 0 C0.87347125 2.42510341 1.15774569 3.5911169 0.21484375 6.03515625 C-2.61419205 10.52527728 -4.71660765 13.40501363 -10 15 C-13.35092525 15.21602667 -16.64831826 15.17884468 -20 15 C-20 14.67 -20 14.34 -20 14 C-19.34773438 13.84144531 -18.69546875 13.68289062 -18.0234375 13.51953125 C-9.28913689 11.18780793 -4.6901772 7.75683152 0 0 Z " fill="#382F5C" transform="translate(118,140)"/>
<path d="M0 0 C1.32 0.33 2.64 0.66 4 1 C2.46357006 3.66180337 0.89176025 6.30091942 -0.6875 8.9375 C-1.12255859 9.69224609 -1.55761719 10.44699219 -2.00585938 11.22460938 C-5.36614957 16.77531095 -5.36614957 16.77531095 -8.83203125 18.00390625 C-9.54746094 18.00261719 -10.26289062 18.00132812 -11 18 C-10.31164062 16.93072266 -10.31164062 16.93072266 -9.609375 15.83984375 C-6.27007695 10.62745204 -3.00642459 5.41156426 0 0 Z " fill="#31214D" transform="translate(127,154)"/>
<path d="M0 0 C3.59661011 1.72355888 6.99729944 3.73508117 10.4375 5.75 C17.10847488 9.61671769 23.93520306 12.90181662 31 16 C27.82936332 17.05600181 26.25567506 17.01422835 23.2421875 15.59375 C22.53827881 15.2652002 21.83437012 14.93665039 21.10913086 14.59814453 C20.37186768 14.23575684 19.63460449 13.87336914 18.875 13.5 C17.74300171 12.95448486 17.74300171 12.95448486 16.58813477 12.39794922 C10.7360215 9.51106546 4.85791121 6.41628292 0 2 C0 1.34 0 0.68 0 0 Z " fill="#362853" transform="translate(34,179)"/>
<path d="M0 0 C-2.70975647 4.06463471 -5.79313208 4.18110528 -10.3125 5.125 C-11.07240234 5.29386719 -11.83230469 5.46273437 -12.61523438 5.63671875 C-16.40054412 6.47205209 -20.19568044 7.25584168 -24 8 C-24 7.01 -24 6.02 -24 5 C-22.95199219 4.72285156 -21.90398437 4.44570312 -20.82421875 4.16015625 C-19.44529933 3.79432048 -18.0663938 3.42843233 -16.6875 3.0625 C-15.65206055 2.78889648 -15.65206055 2.78889648 -14.59570312 2.50976562 C-4.7523857 -0.10560857 -4.7523857 -0.10560857 0 0 Z " fill="#2A1841" transform="translate(255,196)"/>
<path d="M0 0 C0.66 0.66 1.32 1.32 2 2 C-21.73312645 9.89449185 -21.73312645 9.89449185 -29 10 C-29.66 9.34 -30.32 8.68 -31 8 C-30.41621582 7.86424561 -29.83243164 7.72849121 -29.23095703 7.58862305 C-26.52820335 6.95815839 -23.82660892 6.32285142 -21.125 5.6875 C-20.2071875 5.47416016 -19.289375 5.26082031 -18.34375 5.04101562 C-12.15421101 3.58080748 -6.06949798 1.89805855 0 0 Z " fill="#9797A4" transform="translate(255,199)"/>
<path d="M0 0 C0.66 0.33 1.32 0.66 2 1 C2.625 3.0625 2.625 3.0625 3 5 C1.50579015 6.22857254 0.01139569 7.45692199 -1.484375 8.68359375 C-3.09291992 10.00971282 -3.09291992 10.00971282 -4.5625 11.875 C-6 13 -6 13 -8.6875 12.6875 C-9.450625 12.460625 -10.21375 12.23375 -11 12 C-10.29875 11.319375 -9.5975 10.63875 -8.875 9.9375 C-5.72065663 6.79219487 -2.86065696 3.4111614 0 0 Z " fill="#5E9CCF" transform="translate(34,134)"/>
<path d="M0 0 C0.33 0.99 0.66 1.98 1 3 C-6.92 6.96 -6.92 6.96 -15 11 C-15 10.01 -15 9.02 -15 8 C-13.68 7.34 -12.36 6.68 -11 6 C-11.66 5.34 -12.32 4.68 -13 4 C-10.23735711 3.40267181 -7.83967231 3 -5 3 C-3.30280873 2.05273046 -1.63064764 1.05771739 0 0 Z " fill="#3F3D6C" transform="translate(282,184)"/>
<path d="M0 0 C-2.76450021 1.67734723 -5.53756856 3.33997634 -8.3125 5 C-9.09818359 5.47695312 -9.88386719 5.95390625 -10.69335938 6.4453125 C-11.45068359 6.89648438 -12.20800781 7.34765625 -12.98828125 7.8125 C-13.68477783 8.23144531 -14.38127441 8.65039062 -15.09887695 9.08203125 C-17 10 -17 10 -20 10 C-15.3186955 4.51157404 -7.44346062 -2.29014332 0 0 Z " fill="#413E6F" transform="translate(59,133)"/>
<path d="M0 0 C-0.33 0.33 -0.66 0.66 -1 1 C3.95 2.98 3.95 2.98 9 5 C9 5.66 9 6.32 9 7 C3.30860098 5.90301833 -1.74567937 4.45946923 -7 2 C-7 1.34 -7 0.68 -7 0 C-3.98968256 -0.93423645 -3.13349732 -1.04449911 0 0 Z " fill="#3A3A66" transform="translate(68,196)"/>
<path d="M0 0 C0.33 0 0.66 0 1 0 C1.31372214 4.12216302 0.61355598 6.27359075 -1.6875 9.6875 C-2.43580078 10.83798828 -2.43580078 10.83798828 -3.19921875 12.01171875 C-5.28734682 14.3172658 -7.06528255 15.06509001 -10 16 C-8.55901911 11.87321179 -6.52700506 8.69813572 -3.9375 5.1875 C-3.22464844 4.21167969 -2.51179687 3.23585937 -1.77734375 2.23046875 C-1.19082031 1.49441406 -0.60429687 0.75835937 0 0 Z " fill="#3B315D" transform="translate(248,144)"/>
<path d="M0 0 C-0.99 0.33 -1.98 0.66 -3 1 C-0.525 1.99 -0.525 1.99 2 3 C2 3.33 2 3.66 2 4 C-3.445 4.495 -3.445 4.495 -9 5 C-9 4.34 -9 3.68 -9 3 C-11.64 2.67 -14.28 2.34 -17 2 C-17 1.67 -17 1.34 -17 1 C-14.91835982 0.63601378 -12.83459438 0.28416713 -10.75 -0.0625 C-9.00976562 -0.35833984 -9.00976562 -0.35833984 -7.234375 -0.66015625 C-4.37477376 -0.9606216 -2.66674071 -0.9439206 0 0 Z " fill="#433A61" transform="translate(218,205)"/>
<path d="M0 0 C-1.375 1.5 -1.375 1.5 -3 3 C-3.66 3 -4.32 3 -5 3 C-5 3.66 -5 4.32 -5 5 C-8.82320557 6.42258812 -11.91281305 7.24042276 -16 7 C-11.77028022 2.09352505 -6.55854758 -0.5962316 0 0 Z " fill="#33224A" transform="translate(272,189)"/>
<path d="M0 0 C0.99 0.33 1.98 0.66 3 1 C4.89212737 1.22179785 6.78884472 1.40614015 8.6875 1.5625 C9.68136719 1.64628906 10.67523438 1.73007813 11.69921875 1.81640625 C12.83810547 1.90728516 12.83810547 1.90728516 14 2 C13.67 2.99 13.34 3.98 13 5 C8.65290358 6.01095266 5.92588896 6.29010189 2 4 C0.6875 1.875 0.6875 1.875 0 0 Z " fill="#2D1D46" transform="translate(130,189)"/>
<path d="M0 0 C5.99500283 2.43952496 8.78295477 8.34462859 11.375 14 C12.20669215 17.9921223 12.52556247 21.94234856 12 26 C11.34 26.99 10.68 27.98 10 29 C10.06960938 27.98292969 10.06960938 27.98292969 10.140625 26.9453125 C10.47073111 18.43329061 9.18766823 11.48419551 3.3125 5.0625 C2.549375 4.381875 1.78625 3.70125 1 3 C0.67 2.01 0.34 1.02 0 0 Z " fill="#A7AFBC" transform="translate(291,138)"/>
<path d="M0 0 C6.95023264 0.64653327 13.38177303 2.86027248 20 5 C20 5.33 20 5.66 20 6 C15.545 6.495 15.545 6.495 11 7 C10.67 6.34 10.34 5.68 10 5 C7.65961814 3.86897474 7.65961814 3.86897474 4.9375 2.875 C4.01839844 2.52179688 3.09929687 2.16859375 2.15234375 1.8046875 C1.44207031 1.53914062 0.73179688 1.27359375 0 1 C0 0.67 0 0.34 0 0 Z " fill="#2D1D47" transform="translate(66,196)"/>
<path d="M0 0 C-1 3 -1 3 -2.9375 4.8125 C-5.36536105 7.38750415 -6.07808265 9.61963637 -7 13 C-7.66 13 -8.32 13 -9 13 C-9.32470459 8.86001651 -9.4304413 6.66000999 -7.125 3.125 C-4.46977076 0.46977076 -3.77109367 0 0 0 Z " fill="#2F1D49" transform="translate(90,162)"/>
<path d="M0 0 C0 0.99 0 1.98 0 3 C-2.54126172 3.19617816 -5.08260459 3.38217248 -7.625 3.5625 C-8.33785156 3.61857422 -9.05070312 3.67464844 -9.78515625 3.73242188 C-14.03668104 4.02495798 -17.79456347 3.89547939 -22 3 C-22 2.67 -22 2.34 -22 2 C-7.40318907 -0.29612756 -7.40318907 -0.29612756 0 0 Z " fill="#5F6D9A" transform="translate(125,116)"/>
<path d="M0 0 C1.8253125 0.2784375 1.8253125 0.2784375 3.6875 0.5625 C7.02977939 0.98993182 9.71968417 0.92258883 13 0 C13 0.99 13 1.98 13 3 C9.30513897 5.46324069 7.36706908 5.38991688 3 5 C1.0625 3.625 1.0625 3.625 0 2 C0 1.34 0 0.68 0 0 Z " fill="#2D1E48" transform="translate(181,179)"/>
<path d="M0 0 C2.62506802 -0.02690844 5.24986173 -0.04679404 7.875 -0.0625 C8.62136719 -0.07087891 9.36773437 -0.07925781 10.13671875 -0.08789062 C15.7734375 -0.11328125 15.7734375 -0.11328125 18 1 C18 1.66 18 2.32 18 3 C11.73 2.67 5.46 2.34 -1 2 C-0.67 1.34 -0.34 0.68 0 0 Z " fill="#2C1B45" transform="translate(191,207)"/>
<path d="M0 0 C5.75 1.875 5.75 1.875 8 3 C9.70363822 3.22622081 11.41328701 3.40888473 13.125 3.5625 C14.03507812 3.64628906 14.94515625 3.73007813 15.8828125 3.81640625 C16.58148438 3.87699219 17.28015625 3.93757812 18 4 C15.54006058 6.45993942 14.64998115 6.34992473 11.25 6.4375 C7.47798144 6.38283306 5.30020547 5.98384233 2.375 3.5625 C0 1 0 1 0 0 Z " fill="#26133D" transform="translate(76,187)"/>
<path d="M0 0 C0.33 0.66 0.66 1.32 1 2 C3.52733235 2.65555119 3.52733235 2.65555119 6 3 C5.67 3.99 5.34 4.98 5 6 C2.93359375 6.73046875 2.93359375 6.73046875 0.4375 7.1875 C-0.38878906 7.34605469 -1.21507813 7.50460938 -2.06640625 7.66796875 C-3.02353516 7.83232422 -3.02353516 7.83232422 -4 8 C-2.66666667 5.33333333 -1.33333333 2.66666667 0 0 Z " fill="#455489" transform="translate(118,144)"/>
<path d="M0 0 C0.33 0.99 0.66 1.98 1 3 C-2.56600568 6.25135812 -5.12135417 7.7831713 -10 8 C-10.66 7.34 -11.32 6.68 -12 6 C-8.04 4.02 -4.08 2.04 0 0 Z " fill="#494878" transform="translate(203,131)"/>
<path d="M0 0 C0.66 0.99 1.32 1.98 2 3 C1 6 1 6 -2 8 C-5.1875 8.125 -5.1875 8.125 -8 8 C-8.33 7.01 -8.66 6.02 -9 5 C-7.88625 4.731875 -6.7725 4.46375 -5.625 4.1875 C-1.78159049 3.34190981 -1.78159049 3.34190981 0 0 Z " fill="#3C2C56" transform="translate(197,164)"/>
<path d="M0 0 C0 0.66 0 1.32 0 2 C-2.04009755 2.65077296 -4.08215669 3.29539824 -6.125 3.9375 C-7.26195312 4.29714844 -8.39890625 4.65679687 -9.5703125 5.02734375 C-12.71432699 5.91898339 -15.76894393 6.53351014 -19 7 C-19 6.34 -19 5.68 -19 5 C-15.66830974 3.99445968 -12.33482135 2.99510681 -9 2 C-8.28972656 1.78730469 -7.57945312 1.57460937 -6.84765625 1.35546875 C-2.23516187 0 -2.23516187 0 0 0 Z " fill="#32315F" transform="translate(250,199)"/>
<path d="M0 0 C0.33 0.99 0.66 1.98 1 3 C0.67 3.66 0.34 4.32 0 5 C-3.3 5 -6.6 5 -10 5 C-10.33 4.01 -10.66 3.02 -11 2 C-10.28972656 1.93941406 -9.57945312 1.87882813 -8.84765625 1.81640625 C-7.46900391 1.69072266 -7.46900391 1.69072266 -6.0625 1.5625 C-5.14597656 1.48128906 -4.22945312 1.40007812 -3.28515625 1.31640625 C-1.03840268 1.23955024 -1.03840268 1.23955024 0 0 Z " fill="#23103B" transform="translate(170,189)"/>
<path d="M0 0 C2.03448779 0.41740567 4.05401678 0.90895178 6.0625 1.4375 C7.71958984 1.86869141 7.71958984 1.86869141 9.41015625 2.30859375 C10.26480469 2.53675781 11.11945313 2.76492187 12 3 C12 3.99 12 4.98 12 6 C2.40546697 4.25740319 2.40546697 4.25740319 -1 1 C-0.67 0.67 -0.34 0.34 0 0 Z " fill="#414275" transform="translate(148,131)"/>
<path d="M0 0 C1.25541557 3.76624671 0.37061958 5.37188934 -1 9 C-2.98 9 -4.96 9 -7 9 C-5.44499019 5.18315774 -2.96404505 2.80804268 0 0 Z " fill="#475B91" transform="translate(142,140)"/>
<path d="M0 0 C-3.4766338 2.14336161 -6.21229195 2.21277626 -10.25 2.125 C-11.32765625 2.10695312 -12.4053125 2.08890625 -13.515625 2.0703125 C-14.33546875 2.04710937 -15.1553125 2.02390625 -16 2 C-16.33 1.34 -16.66 0.68 -17 0 C-15.10507254 -0.19644384 -13.20899097 -0.38177288 -11.3125 -0.5625 C-9.72888672 -0.71912109 -9.72888672 -0.71912109 -8.11328125 -0.87890625 C-5.18573914 -0.99277552 -2.82868856 -0.70848415 0 0 Z " fill="#353064" transform="translate(194,139)"/>
<path d="M0 0 C-1 3 -1 3 -3.8125 4.6875 C-7 6 -7 6 -11 6 C-11 5.34 -11 4.68 -11 4 C-10.01 4 -9.02 4 -8 4 C-8 3.34 -8 2.68 -8 2 C-4.77208445 -0.1519437 -3.71599191 -0.20086443 0 0 Z " fill="#372A55" transform="translate(118,155)"/>
<path d="M0 0 C-0.33724836 3.11954738 -0.6209965 4.6209965 -2.875 6.875 C-3.57625 7.24625 -4.2775 7.6175 -5 8 C-5.99 7.67 -6.98 7.34 -8 7 C-8 6.34 -8 5.68 -8 5 C-2.52380952 0 -2.52380952 0 0 0 Z " fill="#2C1B44" transform="translate(128,183)"/>
<path d="M0 0 C5.06998019 0.65419099 9.41990777 2.8546409 14 5 C11.26980214 6.06528748 10.20701188 6.07998186 7.421875 5.00390625 C6.54015625 4.52824219 5.6584375 4.05257812 4.75 3.5625 C3.85796875 3.08941406 2.9659375 2.61632812 2.046875 2.12890625 C1.37140625 1.75636719 0.6959375 1.38382813 0 1 C0 0.67 0 0.34 0 0 Z " fill="#2D1D48" transform="translate(51,190)"/>
<path d="M0 0 C-4.455 2.97 -4.455 2.97 -9 6 C-9.66 5.01 -10.32 4.02 -11 3 C-4.5 -1.125 -4.5 -1.125 0 0 Z " fill="#311E4A" transform="translate(284,183)"/>
<path d="M0 0 C0.66 0.33 1.32 0.66 2 1 C2 2.32 2 3.64 2 5 C1.360625 5.103125 0.72125 5.20625 0.0625 5.3125 C-0.618125 5.539375 -1.29875 5.76625 -2 6 C-2.33 6.99 -2.66 7.98 -3 9 C-3 6.36 -3 3.72 -3 1 C-2.01 0.67 -1.02 0.34 0 0 Z " fill="#465F96" transform="translate(22,157)"/>
<path d="M0 0 C6.625 -0.125 6.625 -0.125 10 1 C10 1.66 10 2.32 10 3 C2.25 3.125 2.25 3.125 0 2 C0 1.34 0 0.68 0 0 Z " fill="#3A3661" transform="translate(118,209)"/>
<path d="M0 0 C3.465 1.485 3.465 1.485 7 3 C7 3.66 7 4.32 7 5 C4.36 5 1.72 5 -1 5 C-1 4.34 -1 3.68 -1 3 C-1.66 2.67 -2.32 2.34 -3 2 C-2.01 2 -1.02 2 0 2 C0 1.34 0 0.68 0 0 Z " fill="#393463" transform="translate(143,153)"/>
<path d="M0 0 C1.2077558 3.62326739 0.54311128 4.64146369 -1 8 C-1.99 8 -2.98 8 -4 8 C-3.6875 5.125 -3.6875 5.125 -3 2 C-2.01 1.34 -1.02 0.68 0 0 Z " fill="#281640" transform="translate(228,177)"/>
<path d="M0 0 C-1.59792102 1.17520646 -3.20356908 2.33991247 -4.8125 3.5 C-6.15248047 4.47453125 -6.15248047 4.47453125 -7.51953125 5.46875 C-10 7 -10 7 -13 7 C-4.84931507 -1.61643836 -4.84931507 -1.61643836 0 0 Z " fill="#5B5D60" transform="translate(41,129)"/>
<path d="M0 0 C0 3.39593478 -0.52165948 4.06619881 -2.5 6.6875 C-2.9640625 7.31011719 -3.428125 7.93273437 -3.90625 8.57421875 C-4.2671875 9.04472656 -4.628125 9.51523438 -5 10 C-5.99 9.67 -6.98 9.34 -8 9 C-6.4169423 4.7257442 -3.49431596 2.73468206 0 0 Z " fill="#27113F" transform="translate(165,170)"/>
<path d="M0 0 C0.66 0.99 1.32 1.98 2 3 C0.25 5.0625 0.25 5.0625 -2 7 C-4.25 6.75 -4.25 6.75 -6 6 C-4 4 -2 2 0 0 Z " fill="#413C69" transform="translate(152,146)"/>
<path d="M0 0 C2 1 2 1 3 3 C-0.78187881 4.83691257 -2.94568308 5.15837626 -7 4 C-4.61426621 2.10786631 -2.92824652 0.97608217 0 0 Z " fill="#535885" transform="translate(64,128)"/>
<path d="M0 0 C0.66 0.33 1.32 0.66 2 1 C1.34 1.66 0.68 2.32 0 3 C0.33 3.66 0.66 4.32 1 5 C-0.98 5.66 -2.96 6.32 -5 7 C-4.67 6.01 -4.34 5.02 -4 4 C-4.66 3.67 -5.32 3.34 -6 3 C-4.03533587 1.93224776 -2.03144641 0.93446535 0 0 Z " fill="#35254C" transform="translate(148,187)"/>
<path d="M0 0 C0.33 0.66 0.66 1.32 1 2 C-0.98 4.97 -0.98 4.97 -3 8 C-3.66 7.67 -4.32 7.34 -5 7 C-4.60196439 4.11424181 -4.20990931 3.17810487 -1.9375 1.25 C-1.298125 0.8375 -0.65875 0.425 0 0 Z " fill="#291640" transform="translate(178,177)"/>
<path d="M0 0 C0.33 0 0.66 0 1 0 C1.28571429 8.57142857 1.28571429 8.57142857 -1 12 C-1.66 11.67 -2.32 11.34 -3 11 C-2.01 7.37 -1.02 3.74 0 0 Z " fill="#3B335F" transform="translate(296,159)"/>
<path d="M0 0 C2.64 0 5.28 0 8 0 C8 0.66 8 1.32 8 2 C5.69 2.33 3.38 2.66 1 3 C0.67 2.01 0.34 1.02 0 0 Z " fill="#4A5284" transform="translate(135,129)"/>
<path d="M0 0 C0 3.12900213 -0.42451317 4.37418862 -2 7 C-2.99 7.495 -2.99 7.495 -4 8 C-4.66 7.34 -5.32 6.68 -6 6 C-4.02 4.02 -2.04 2.04 0 0 Z " fill="#3E2E57" transform="translate(288,175)"/>
<path d="M0 0 C0.33 0.66 0.66 1.32 1 2 C-1.47812494 5.45167403 -2.79606135 7.23163306 -7 8 C-6.02133662 6.85373678 -5.04205413 5.70800212 -4.0625 4.5625 C-3.51722656 3.92441406 -2.97195312 3.28632813 -2.41015625 2.62890625 C-1.63204305 1.73008851 -0.84063472 0.84063472 0 0 Z " fill="#24123D" transform="translate(112,179)"/>
<path d="M0 0 C4.455 0.99 4.455 0.99 9 2 C9 2.66 9 3.32 9 4 C6.69 4 4.38 4 2 4 C1.34 2.68 0.68 1.36 0 0 Z " fill="#240F39" transform="translate(181,179)"/>
<path d="M0 0 C0.33 0.66 0.66 1.32 1 2 C0.22265625 3.7265625 0.22265625 3.7265625 -0.9375 5.625 C-1.618125 6.73875 -2.29875 7.8525 -3 9 C-3.33 9 -3.66 9 -4 9 C-4.25 6.1875 -4.25 6.1875 -4 3 C-2 1.125 -2 1.125 0 0 Z " fill="#3B376A" transform="translate(104,133)"/>
<path d="M0 0 C-0.99 1.485 -0.99 1.485 -2 3 C-4.31 2.67 -6.62 2.34 -9 2 C-5.5647952 -0.29013653 -4.014669 -0.17842973 0 0 Z " fill="#35244B" transform="translate(255,196)"/>
<path d="M0 0 C4.455 0.99 4.455 0.99 9 2 C9 2.33 9 2.66 9 3 C7.35 3 5.7 3 4 3 C4 3.66 4 4.32 4 5 C2.68 4.34 1.36 3.68 0 3 C0 2.01 0 1.02 0 0 Z " fill="#322149" transform="translate(197,189)"/>
<path d="M0 0 C0.70125 0.309375 1.4025 0.61875 2.125 0.9375 C5.08936657 2.03302678 7.87698108 2.56422992 11 3 C11 3.33 11 3.66 11 4 C8.03 4 5.06 4 2 4 C1.34 2.68 0.68 1.36 0 0 Z " fill="#230F38" transform="translate(130,189)"/>
<path d="M0 0 C0.66 0 1.32 0 2 0 C2.33 2.31 2.66 4.62 3 7 C2.01 6.67 1.02 6.34 0 6 C0 4.02 0 2.04 0 0 Z " fill="#301E4B" transform="translate(184,167)"/>
<path d="M0 0 C1 3 1 3 0.3125 5.125 C-1 7 -1 7 -5 8 C-3.35 5.36 -1.7 2.72 0 0 Z " fill="#3D2A53" transform="translate(121,164)"/>
<path d="M0 0 C2.31 0.66 4.62 1.32 7 2 C7 2.66 7 3.32 7 4 C5.02 4 3.04 4 1 4 C0.67 2.68 0.34 1.36 0 0 Z " fill="#568ABF" transform="translate(292,146)"/>
<path d="M0 0 C1.485 0.99 1.485 0.99 3 2 C3.1875 5.125 3.1875 5.125 3 8 C2.01 7.67 1.02 7.34 0 7 C0 4.69 0 2.38 0 0 Z " fill="#34244C" transform="translate(204,176)"/>
<path d="M0 0 C1.32 0 2.64 0 4 0 C3.67 0.99 3.34 1.98 3 3 C-0.0625 4.1875 -0.0625 4.1875 -3 5 C-1.75 2.5 -1.75 2.5 0 0 Z " fill="#291443" transform="translate(145,163)"/>
<path d="M0 0 C0.66 0.33 1.32 0.66 2 1 C2 1.66 2 2.32 2 3 C0.1875 4.6875 0.1875 4.6875 -2 6 C-2.99 5.67 -3.98 5.34 -5 5 C-3.35 3.35 -1.7 1.7 0 0 Z " fill="#504C75" transform="translate(38,142)"/>
<path d="M0 0 C0 0.66 0 1.32 0 2 C-2.31 2.66 -4.62 3.32 -7 4 C-6.625 2.0625 -6.625 2.0625 -6 0 C-3.50907189 -1.24546405 -2.58919267 -0.7767578 0 0 Z " fill="#5C7CAD" transform="translate(150,138)"/>
</svg>
