<?xml version="1.0" encoding="UTF-8"?>
<svg version="1.1" xmlns="http://www.w3.org/2000/svg" width="225" height="225">
<path d="M0 0 C12.21721686 10.69920937 21.3385317 22.21374808 22.734375 38.8984375 C23.33000591 54.44068147 17.13956146 66.69128065 7.12207031 78.19238281 C4.51034358 80.93181473 1.6184894 83.14928007 -1.453125 85.34765625 C-2.1042627 85.81647217 -2.75540039 86.28528809 -3.42626953 86.76831055 C-32.34763884 107.1467844 -68.83258154 113.25331966 -103.578125 107.78515625 C-124.12963007 104.14643368 -143.15418058 97.05295587 -159.515625 83.91015625 C-160.21945313 83.38164062 -160.92328125 82.853125 -161.6484375 82.30859375 C-172.30074633 73.82852045 -179.27035579 61.25817873 -181.515625 47.91015625 C-182.70990007 34.59692598 -178.87509905 21.79249285 -170.4765625 11.3828125 C-130.62737922 -34.1493299 -46.37714809 -38.52759973 0 0 Z M-133.515625 -1.08984375 C-135.80416494 2.17949903 -135.98724718 4.97997145 -135.515625 8.91015625 C-132.22472007 15.92121458 -126.37250604 18.37241277 -119.5078125 21.109375 C-114.01558474 23.07088491 -109.35101125 24.44064591 -103.515625 23.91015625 C-102.44897652 20.74899804 -101.41571592 17.58436576 -100.4375 14.39453125 C-96.89850865 3.11694549 -93.05838215 -5.64649317 -83.515625 -13.08984375 C-83.515625 -13.41984375 -83.515625 -13.74984375 -83.515625 -14.08984375 C-100.35884271 -14.73490315 -120.37593059 -12.84641243 -133.515625 -1.08984375 Z M-75.515625 -14.08984375 C-74.79375 -13.38859375 -74.071875 -12.68734375 -73.328125 -11.96484375 C-72.38810571 -11.00898144 -71.45066789 -10.05057463 -70.515625 -9.08984375 C-69.3090625 -7.85234375 -69.3090625 -7.85234375 -68.078125 -6.58984375 C-61.58461498 1.43998567 -58.87082686 11.21952161 -57.25390625 21.20703125 C-57.01027344 22.0990625 -56.76664063 22.99109375 -56.515625 23.91015625 C-53.26705995 24.99301127 -52.69159696 24.89087091 -49.6015625 23.87109375 C-48.84439941 23.62286865 -48.08723633 23.37464355 -47.30712891 23.11889648 C-46.50968262 22.84376221 -45.71223633 22.56862793 -44.890625 22.28515625 C-43.67318604 21.86955444 -43.67318604 21.86955444 -42.43115234 21.44555664 C-30.69075405 17.56260529 -30.69075405 17.56260529 -22.515625 8.91015625 C-22.515625 4.43479886 -22.88498752 2.02007821 -25.078125 -1.83984375 C-31.31229378 -7.59446109 -38.94128472 -9.14886137 -47.015625 -10.77734375 C-48.00949219 -10.98939453 -49.00335938 -11.20144531 -50.02734375 -11.41992188 C-57.14761926 -12.91075895 -64.20975056 -14.26649804 -71.515625 -14.15234375 C-72.27875 -14.14332031 -73.041875 -14.13429688 -73.828125 -14.125 C-74.385 -14.11339844 -74.941875 -14.10179687 -75.515625 -14.08984375 Z M-87.515625 7.91015625 C-90.90663375 13.79321506 -92.08799883 19.17504409 -92.515625 25.91015625 C-87.97027398 27.04875313 -83.60474504 27.05911309 -78.953125 27.03515625 C-77.82100586 27.04095703 -77.82100586 27.04095703 -76.66601562 27.046875 C-73.11237707 27.04061308 -69.93315692 26.86811161 -66.515625 25.91015625 C-66.78176227 17.92603824 -69.26907974 11.68138887 -73.515625 4.91015625 C-79.49501498 0.92389626 -83.29313362 2.46536474 -87.515625 7.91015625 Z M-5.515625 10.91015625 C-5.79535156 11.47863281 -6.07507813 12.04710937 -6.36328125 12.6328125 C-13.29505584 25.9837224 -23.94861329 32.05729238 -37.9921875 36.63671875 C-39.19617188 37.01570313 -40.40015625 37.3946875 -41.640625 37.78515625 C-42.88328125 38.18734375 -44.1259375 38.58953125 -45.40625 39.00390625 C-48.43932109 39.98382153 -51.47554539 40.95225283 -54.515625 41.91015625 C-54.61359375 43.15667969 -54.7115625 44.40320313 -54.8125 45.6875 C-56.41176664 64.46496824 -59.65557823 82.54409501 -69.515625 98.91015625 C-63.75743693 99.17923046 -58.87058196 98.24112997 -53.328125 96.72265625 C-52.48805908 96.49489502 -51.64799316 96.26713379 -50.7824707 96.0324707 C-30.33810851 90.33241355 -10.30544095 80.03853659 0.671875 61.265625 C5.98971168 51.42075064 7.73211485 40.93859402 5.41796875 29.89453125 C3.33166091 23.22532961 0.36503144 14.83059387 -5.515625 10.91015625 Z M-155.515625 11.91015625 C-163.22470587 20.0359442 -165.15262755 27.58532653 -165.05615234 38.6081543 C-164.49826308 53.26347615 -157.59147575 66.91277636 -146.92578125 76.94140625 C-130.63824914 90.24597056 -110.55091819 98.2113093 -89.515625 98.91015625 C-89.89074219 98.2553125 -90.26585938 97.60046875 -90.65234375 96.92578125 C-100.78275832 78.85944998 -103.83068293 62.31670611 -104.515625 41.91015625 C-105.49619873 41.64706665 -105.49619873 41.64706665 -106.49658203 41.37866211 C-141.61356143 31.84761627 -141.61356143 31.84761627 -150.515625 20.91015625 C-152.14747934 17.99613064 -153.42806147 15.06552149 -154.515625 11.91015625 C-154.845625 11.91015625 -155.175625 11.91015625 -155.515625 11.91015625 Z M-94.515625 42.91015625 C-94.515625 48.76165789 -94.26439142 53.28453271 -92.828125 58.78515625 C-92.65095947 59.47625488 -92.47379395 60.16735352 -92.29125977 60.87939453 C-89.49783397 71.26029553 -89.49783397 71.26029553 -82.515625 78.91015625 C-79.60121801 79.57737161 -79.60121801 79.57737161 -76.515625 78.91015625 C-66.57113179 70.66350335 -65.66909787 54.86432958 -64.515625 42.91015625 C-74.415625 42.91015625 -84.315625 42.91015625 -94.515625 42.91015625 Z " fill="#CA030D" transform="translate(191.515625,70.08984375)"/>
<path d="M0 0 C1.4778584 0.01006671 2.95572358 0.01918593 4.43359375 0.02734375 C7.99754028 0.04902629 11.56122415 0.08334464 15.125 0.125 C14.795 2.765 14.465 5.405 14.125 8.125 C12.33341511 8.15196365 10.54171527 8.17137917 8.75 8.1875 C7.75226563 8.19910156 6.75453125 8.21070313 5.7265625 8.22265625 C3.125 8.125 3.125 8.125 1.125 7.125 C1.125 7.785 1.125 8.445 1.125 9.125 C0.465 9.125 -0.195 9.125 -0.875 9.125 C-0.875 8.465 -0.875 7.805 -0.875 7.125 C-1.535 7.455 -2.195 7.785 -2.875 8.125 C-4.6154417 8.20949628 -6.35909722 8.23223024 -8.1015625 8.22265625 C-9.1328125 8.21943359 -10.1640625 8.21621094 -11.2265625 8.21289062 C-12.84691406 8.20032227 -12.84691406 8.20032227 -14.5 8.1875 C-16.13195312 8.18073242 -16.13195312 8.18073242 -17.796875 8.17382812 C-20.48963789 8.16201776 -23.18229188 8.14554778 -25.875 8.125 C-25.875 8.785 -25.875 9.445 -25.875 10.125 C-27.855 10.125 -29.835 10.125 -31.875 10.125 C-32.205 9.135 -32.535 8.145 -32.875 7.125 C-35.185 7.125 -37.495 7.125 -39.875 7.125 C-37.72120975 3.89431463 -36.840149 3.48437663 -33.21630859 2.59301758 C-22.04895384 0.36071111 -11.33374967 -0.13661331 0 0 Z " fill="#CF010C" transform="translate(110.875,46.875)"/>
<path d="M0 0 C0.63164063 0.36351562 1.26328125 0.72703125 1.9140625 1.1015625 C12.43584383 7.0143791 23.30469047 11.92796017 35 15 C35 15.33 35 15.66 35 16 C32.69 16 30.38 16 28 16 C28.33 17.32 28.66 18.64 29 20 C27.68 20.33 26.36 20.66 25 21 C26.32 21.99 27.64 22.98 29 24 C24.03083364 23.48594831 19.70973649 22.76615118 15 21 C15.99 20.67 16.98 20.34 18 20 C18.33 17.69 18.66 15.38 19 13 C15.37 11.35 11.74 9.7 8 8 C8 7.34 8 6.68 8 6 C6.02 6.99 6.02 6.99 4 8 C3.896875 7.38125 3.79375 6.7625 3.6875 6.125 C3.12474627 3.63473516 3.12474627 3.63473516 0 2 C0 1.34 0 0.68 0 0 Z " fill="#BF060E" transform="translate(50,151)"/>
<path d="M0 0 C0 0.66 0 1.32 0 2 C0.66 2 1.32 2 2 2 C2 1.34 2 0.68 2 0 C8.6 0.33 15.2 0.66 22 1 C22 1.66 22 2.32 22 3 C17.38 3 12.76 3 8 3 C10.475 5.97 10.475 5.97 13 9 C8.125 7.25 8.125 7.25 7 5 C2.48382401 4.92345464 -1.59085217 4.89771304 -6 6 C-5.34 5.01 -4.68 4.02 -4 3 C-13.56470344 2.70967173 -22.57182803 3.53948097 -32 5 C-32 4.34 -32 3.68 -32 3 C-29.69 3 -27.38 3 -25 3 C-25 2.34 -25 1.68 -25 1 C-21.20836402 0.8326303 -17.4166864 0.66622322 -13.625 0.5 C-12.54476562 0.45230469 -11.46453125 0.40460937 -10.3515625 0.35546875 C-9.3203125 0.31035156 -8.2890625 0.26523437 -7.2265625 0.21875 C-6.27346191 0.17685547 -5.32036133 0.13496094 -4.33837891 0.09179688 C-2.89304218 0.03505783 -1.44644999 0 0 0 Z " fill="#B50B11" transform="translate(110,54)"/>
<path d="M0 0 C0.99 0 1.98 0 3 0 C5.875 6.625 5.875 6.625 7 10 C7.99 10 8.98 10 10 10 C10 9.34 10 8.68 10 8 C10.66 8 11.32 8 12 8 C12 6.35 12 4.7 12 3 C14.09350689 6.4019487 14.17942163 9.05272412 14 13 C11.69 13.33 9.38 13.66 7 14 C6.67 14.99 6.34 15.98 6 17 C4.02 17 2.04 17 0 17 C1.32 16.67 2.64 16.34 4 16 C3.79503906 15.18015625 3.59007813 14.3603125 3.37890625 13.515625 C2.25260417 9.01041667 1.12630208 4.50520833 0 0 Z " fill="#C3060D" transform="translate(121,80)"/>
<path d="M0 0 C1.20086095 4.26170201 0.73017666 7.12240288 -0.875 11.25 C-2 13 -2 13 -5 14 C-6.32 14 -7.64 14 -9 14 C-9.103125 14.639375 -9.20625 15.27875 -9.3125 15.9375 C-9.539375 16.618125 -9.76625 17.29875 -10 18 C-10.99 18.33 -11.98 18.66 -13 19 C-13.33 19.66 -13.66 20.32 -14 21 C-14.66 20.67 -15.32 20.34 -16 20 C-16 20.99 -16 21.98 -16 23 C-17.65 23 -19.3 23 -21 23 C-17.23225289 19.11807874 -13.37202211 15.20468119 -9 12 C-8.34 12 -7.68 12 -7 12 C-6.72414062 11.42765625 -6.44828125 10.8553125 -6.1640625 10.265625 C-5.00532152 8.01035733 -3.73124294 5.89143622 -2.375 3.75 C-1.92898437 3.04359375 -1.48296875 2.3371875 -1.0234375 1.609375 C-0.68570313 1.07828125 -0.34796875 0.5471875 0 0 Z " fill="#BD060C" transform="translate(192,130)"/>
<path d="M0 0 C0.99 0.33 1.98 0.66 3 1 C3.68132451 2.66072849 4.34742127 4.327767 5 6 C5.99 6.66 6.98 7.32 8 8 C10.80398752 13.5898848 10.01537512 19.32418558 9.625 25.375 C9.56828125 26.39722656 9.5115625 27.41945313 9.453125 28.47265625 C9.31238311 30.98255335 9.16104835 33.49133774 9 36 C8.34 36 7.68 36 7 36 C6.67 36.66 6.34 37.32 6 38 C6.09539062 37.04480469 6.19078125 36.08960938 6.2890625 35.10546875 C7.42032944 21.91173916 5.56163818 12.16343007 0 0 Z " fill="#AA0E13" transform="translate(190,85)"/>
<path d="M0 0 C0.33 1.32 0.66 2.64 1 4 C-0.423125 4.928125 -0.423125 4.928125 -1.875 5.875 C-5.90351119 8.45103332 -5.90351119 8.45103332 -7.625 12.625 C-7.74875 13.40875 -7.8725 14.1925 -8 15 C-8.61875 15.04125 -9.2375 15.0825 -9.875 15.125 C-10.57625 15.41375 -11.2775 15.7025 -12 16 C-13.3045656 18.99615946 -13.3045656 18.99615946 -14 22 C-14.66 22 -15.32 22 -16 22 C-13.9087091 12.93773945 -6.55056762 6.1921779 0 0 Z " fill="#B00B10" transform="translate(31,71)"/>
<path d="M0 0 C0 2 0 2 -1.15234375 3.53125 C-3.54379416 5.43227611 -5.58439634 5.84769046 -8.5625 6.5 C-13.45562024 7.61639151 -18.18367406 8.9531519 -22.94140625 10.546875 C-25 11 -25 11 -28 10 C-27.13834229 9.7054895 -27.13834229 9.7054895 -26.25927734 9.4050293 C-23.62968104 8.5035064 -21.00234558 7.59556033 -18.375 6.6875 C-17.47136719 6.37876953 -16.56773437 6.07003906 -15.63671875 5.75195312 C-10.8508828 4.09263044 -4.8797387 0 0 0 Z " fill="#A70F13" transform="translate(164,85)"/>
<path d="M0 0 C2.99497189 1.49748594 3.39507915 3.71336647 4.6875 6.75 C5.14511719 7.79671875 5.60273437 8.8434375 6.07421875 9.921875 C7.04881133 13.16229253 6.97543843 14.80765605 6 18 C3.61114603 15.10928596 2.34884838 12.59706105 1.3125 9 C1.06113281 8.154375 0.80976562 7.30875 0.55078125 6.4375 C0 4 0 4 0 0 Z " fill="#B40A0D" transform="translate(89,138)"/>
<path d="M0 0 C1.32 0.33 2.64 0.66 4 1 C2.73755365 2.65227538 1.46474765 4.29663951 0.1875 5.9375 C-0.87404297 7.31228516 -0.87404297 7.31228516 -1.95703125 8.71484375 C-4 11 -4 11 -7 12 C-7 10.68 -7 9.36 -7 8 C-6.34 8 -5.68 8 -5 8 C-4.01 6.02 -3.02 4.04 -2 2 C-1.34 2 -0.68 2 0 2 C0 1.34 0 0.68 0 0 Z " fill="#BA070D" transform="translate(202,138)"/>
<path d="M0 0 C0.68964844 0.38671875 1.37929688 0.7734375 2.08984375 1.171875 C7.94961377 4.4192647 13.8220482 7.40678567 20 10 C20 10.33 20 10.66 20 11 C15.6822542 10.49202991 11.96697886 9.80317221 8 8 C8 7.34 8 6.68 8 6 C6.02 6.99 6.02 6.99 4 8 C3.896875 7.38125 3.79375 6.7625 3.6875 6.125 C3.12474627 3.63473516 3.12474627 3.63473516 0 2 C0 1.34 0 0.68 0 0 Z " fill="#AB0D13" transform="translate(50,151)"/>
<path d="M0 0 C0.66 0 1.32 0 2 0 C1.57664615 6.49142565 -0.91099799 11.33492989 -4 17 C-4.33 17 -4.66 17 -5 17 C-5 15.02 -5 13.04 -5 11 C-4.01 11 -3.02 11 -2 11 C-2.061875 9.39125 -2.061875 9.39125 -2.125 7.75 C-2.0114175 4.34252515 -1.78726636 2.79260369 0 0 Z " fill="#B00A10" transform="translate(211,120)"/>
<path d="M0 0 C0.99 0.33 1.98 0.66 3 1 C3.68132451 2.66072849 4.34742127 4.327767 5 6 C5.99 6.66 6.98 7.32 8 8 C9.1875 11.125 9.1875 11.125 10 14 C8.68 14.33 7.36 14.66 6 15 C5.18618205 13.06305322 4.37399084 11.12542289 3.5625 9.1875 C3.11003906 8.10855469 2.65757812 7.02960938 2.19140625 5.91796875 C1.39624987 3.9704874 0.66520352 1.99561057 0 0 Z " fill="#B30B0D" transform="translate(190,85)"/>
<path d="M0 0 C2.94751667 2.74423966 5.22773678 5.36219655 7 9 C6.67 9.99 6.34 10.98 6 12 C6 11.34 6 10.68 6 10 C5.34 10 4.68 10 4 10 C4 9.34 4 8.68 4 8 C2.35 8 0.7 8 -1 8 C-1.08226668 4.95613276 -0.97608217 2.92824652 0 0 Z " fill="#B8070E" transform="translate(203,83)"/>
<path d="M0 0 C2.69082872 0.17635452 5.32851446 0.61835921 8 1 C5.20083611 2.86610926 3.18061731 3.68785383 0 4.625 C-0.86625 4.88539062 -1.7325 5.14578125 -2.625 5.4140625 C-5 6 -5 6 -8 6 C-8 5.34 -8 4.68 -8 4 C-6.865625 3.525625 -5.73125 3.05125 -4.5625 2.5625 C-1.24259834 1.36377917 -1.24259834 1.36377917 0 0 Z " fill="#B6090E" transform="translate(145,106)"/>
<path d="M0 0 C1.32 0.33 2.64 0.66 4 1 C3.67 1.53625 3.34 2.0725 3 2.625 C1.71744312 5.6710726 1.67108826 7.71088258 2 11 C3.39924945 14.30101131 3.39924945 14.30101131 5 17 C3.0625 16.1875 3.0625 16.1875 1 15 C-0.09506492 11.71480525 -0.09960608 9.26336585 -0.0625 5.8125 C-0.05347656 4.72582031 -0.04445312 3.63914062 -0.03515625 2.51953125 C-0.02355469 1.68808594 -0.01195312 0.85664062 0 0 Z " fill="#AF0A10" transform="translate(55,68)"/>
<path d="M0 0 C0.33 0 0.66 0 1 0 C1 1.65 1 3.3 1 5 C2.32 5 3.64 5 5 5 C5.33 6.32 5.66 7.64 6 9 C1.89188572 7.55007731 -1.46855666 5.54592427 -5 3 C-5 2.67 -5 2.34 -5 2 C-3.35 2 -1.7 2 0 2 C0 1.34 0 0.68 0 0 Z " fill="#B7090D" transform="translate(39,153)"/>
<path d="M0 0 C1.65 0 3.3 0 5 0 C4.34 1.32 3.68 2.64 3 4 C2.67 3.34 2.34 2.68 2 2 C1.401875 2.763125 0.80375 3.52625 0.1875 4.3125 C-1.46959332 6.3483575 -3.10297674 8.1978279 -5 10 C-5 8.68 -5 7.36 -5 6 C-4.34 6 -3.68 6 -3 6 C-3 4.68 -3 3.36 -3 2 C-2.01 2 -1.02 2 0 2 C0 1.34 0 0.68 0 0 Z " fill="#AD0C0E" transform="translate(34,81)"/>
<path d="M0 0 C2.9156164 3.54039134 5.50127818 7.1626772 8 11 C6.0625 10.6875 6.0625 10.6875 4 10 C3.67 9.01 3.34 8.02 3 7 C1.68 7.33 0.36 7.66 -1 8 C-0.67 5.36 -0.34 2.72 0 0 Z " fill="#B40A10" transform="translate(34,133)"/>
<path d="M0 0 C0.99 0.33 1.98 0.66 3 1 C1.50902342 4.7952131 -0.75700849 6.61042731 -4 9 C-4 7.68 -4 6.36 -4 5 C-3.01 5 -2.02 5 -1 5 C-1.33 4.01 -1.66 3.02 -2 2 C-1.34 2 -0.68 2 0 2 C0 1.34 0 0.68 0 0 Z " fill="#BA0913" transform="translate(180,86)"/>
<path d="M0 0 C3.94727588 -0.17942163 6.5980513 -0.09350689 10 2 C9.67 2.99 9.34 3.98 9 5 C5.22454612 3.90931332 2.52956528 3.0916909 0 0 Z " fill="#B7080F" transform="translate(45,162)"/>
<path d="M0 0 C9.59453303 2.89066059 9.59453303 2.89066059 13 6 C8.02693484 5.50269348 4.36200187 4.44697666 0 2 C0 1.34 0 0.68 0 0 Z " fill="#AA0D0E" transform="translate(164,55)"/>
<path d="M0 0 C0.99 0 1.98 0 3 0 C4.98362069 2.91708924 4.9876191 4.12380904 4.625 7.75 C4.41875 8.8225 4.2125 9.895 4 11 C2.03698408 7.49461443 1.04097612 3.86648272 0 0 Z " fill="#AF0D12" transform="translate(121,80)"/>
<path d="M0 0 C2.64 0.33 5.28 0.66 8 1 C5.73814546 3.26185454 4.03016439 4.03921617 1 5 C0.01 4.67 -0.98 4.34 -2 4 C-1.34 2.68 -0.68 1.36 0 0 Z " fill="#B60912" transform="translate(156,168)"/>
<path d="M0 0 C0.99 0.66 1.98 1.32 3 2 C-2.75 6 -2.75 6 -5 6 C-4.67 4.35 -4.34 2.7 -4 1 C-3.01 1.33 -2.02 1.66 -1 2 C-0.67 1.34 -0.34 0.68 0 0 Z " fill="#B5070E" transform="translate(169,97)"/>
<path d="M0 0 C0.71484375 1.734375 0.71484375 1.734375 1 4 C-0.43359375 6.140625 -0.43359375 6.140625 -2.4375 8.25 C-3.09621094 8.95640625 -3.75492188 9.6628125 -4.43359375 10.390625 C-4.95050781 10.92171875 -5.46742188 11.4528125 -6 12 C-6 8.36804504 -5.04546845 7.25286089 -3 4.3125 C-2.443125 3.50425781 -1.88625 2.69601563 -1.3125 1.86328125 C-0.879375 1.24839844 -0.44625 0.63351563 0 0 Z " fill="#A70A0E" transform="translate(192,130)"/>
<path d="M0 0 C0 2 0 2 -1.25 3.5625 C-3.17692483 5.14533111 -4.56795851 5.5806825 -7 6 C-7.33 5.01 -7.66 4.02 -8 3 C-2.25 0 -2.25 0 0 0 Z " fill="#B0070A" transform="translate(164,85)"/>
<path d="M0 0 C1.60031344 3.20062687 0.03173691 5.72271806 -1 9 C-1.99 9 -2.98 9 -4 9 C-2.94124926 5.59687262 -1.99097846 2.98646769 0 0 Z " fill="#AE0B13" transform="translate(97,68)"/>
<path d="M0 0 C0.99 0.33 1.98 0.66 3 1 C-2.75 6 -2.75 6 -5 6 C-5 5.01 -5 4.02 -5 3 C-3.35 2.67 -1.7 2.34 0 2 C0 1.34 0 0.68 0 0 Z " fill="#B9090E" transform="translate(191,151)"/>
<path d="M0 0 C2.97 0.495 2.97 0.495 6 1 C6.33 2.65 6.66 4.3 7 6 C3.63279613 4.60667426 2.0140476 3.0210714 0 0 Z " fill="#AD0C13" transform="translate(41,91)"/>
<path d="M0 0 C2.6855594 2.6855594 3.06049974 5.37621328 4 9 C2.68 8.34 1.36 7.68 0 7 C0 4.69 0 2.38 0 0 Z " fill="#AB0B0A" transform="translate(100,135)"/>
<path d="M0 0 C0.99 0.99 1.98 1.98 3 3 C2.67 3.99 2.34 4.98 2 6 C0.02 6 -1.96 6 -4 6 C-2.68 5.67 -1.36 5.34 0 5 C0 3.35 0 1.7 0 0 Z " fill="#B30A10" transform="translate(125,91)"/>
</svg>
